<?xml version="1.0" encoding="UTF-8"?>
<svg width="64px" height="64px" viewBox="0 0 64 64" version="1.1" xmlns="http://www.w3.org/2000/svg" xmlns:xlink="http://www.w3.org/1999/xlink">
    <!-- Generator: Sketch 63.1 (92452) - https://sketch.com -->
    <title>icons / code / dark</title>
    <desc>Created with Sketch.</desc>
    <g id="icons-/-code-/-dark" stroke="none" stroke-width="1" fill="none" fill-rule="evenodd">
        <path d="M13.3333333,7 C31.025904,7 41.4339164,7.4620719 47.5450658,8.22596557 C51.146685,8.67616797 53.3100703,9.24626893 54.6108414,9.8702122 C55.5184556,10.3055692 56.0633077,10.7870357 56.4073375,11.2707878 C56.8729634,11.9255201 57,12.6122253 57,13.3333333 L57,13.3333333 L57,50.6666667 C57,52.3973498 56.2847217,53.9822845 55.1335031,55.1335031 C53.9822845,56.2847217 52.3973498,57 50.6666667,57 L50.6666667,57 L13.3333333,57 C11.6026505,57 10.0177156,56.2847217 8.86649695,55.133503 C7.71527836,53.9822844 7,52.3973497 7,50.6666667 L7,50.6666667 L7,13.3333333 C7,11.58375 7.70864304,10.0004767 8.85455989,8.85455989 C10.0004767,7.70864304 11.58375,7 13.3333333,7 L13.3333333,7 Z M49.6666667,19.6666667 L14.3333333,19.6666667 L14.3333333,49.6666667 L49.6666667,49.6666667 L49.6666667,19.6666667 Z M26.6666667,25.8958347 C27.4053334,25.8958347 28.1439453,26.1776491 28.7071068,26.7408106 C29.2702683,27.303972 29.552,28.0425727 29.552,28.7812507 C29.552,29.5199286 29.2702683,30.2585293 28.7071067,30.8216908 L28.7071067,30.8216908 L24.8621304,34.6666667 L28.7071068,38.5116426 C29.2702683,39.074804 29.552,39.8134047 29.552,40.5520827 C29.552,41.2907606 29.2702683,42.0293613 28.7071068,42.5925228 C28.1439453,43.1556843 27.4053446,43.437416 26.6666667,43.437416 C25.9279887,43.437416 25.189388,43.1556843 24.6262266,42.5925228 L24.6262266,42.5925228 L19.2928932,37.2591894 C18.5761426,36.5424388 18.218,35.6037641 18.218,34.6656667 C18.218,33.726914 18.5765908,32.7886132 19.2928932,32.0741439 L19.2928932,32.0741439 L24.6262266,26.7408106 C25.189388,26.1776491 25.9279999,25.8958347 26.6666667,25.8958347 Z M37.3333333,25.8958347 C38.0720001,25.8958347 38.810612,26.1776491 39.3737734,26.7408106 L39.3737734,26.7408106 L44.7062008,32.0732391 C45.4234092,32.7886132 45.782,33.726914 45.782,34.6656667 C45.782,35.6037641 45.4238574,36.5424388 44.7071068,37.2591894 L44.7071068,37.2591894 L39.3737734,42.5925228 C38.810612,43.1556843 38.0720113,43.437416 37.3333333,43.437416 C36.5946554,43.437416 35.8560547,43.1556843 35.2928932,42.5925228 C34.7297317,42.0293613 34.448,41.2907606 34.448,40.5520827 C34.448,39.8134047 34.7297317,39.074804 35.2928932,38.5116426 L35.2928932,38.5116426 L39.1378691,34.6666667 L35.2928932,30.8216908 C34.7297317,30.2585293 34.448,29.5199286 34.448,28.7812507 C34.448,28.0425727 34.7297317,27.303972 35.2928932,26.7408106 C35.8560547,26.1776491 36.5946666,25.8958347 37.3333333,25.8958347 Z" id="Shape-Copy-5" stroke="#FFFFFF" stroke-width="2" fill="#4A4A4A" fill-rule="nonzero"></path>
    </g>
</svg>