<?xml version="1.0" encoding="UTF-8"?>
<svg width="40px" height="40px" viewBox="0 0 40 40" version="1.1" xmlns="http://www.w3.org/2000/svg" xmlns:xlink="http://www.w3.org/1999/xlink">
    <!-- Generator: Sketch 63.1 (92452) - https://sketch.com -->
    <title>Icons / Arrow</title>
    <desc>Created with Sketch.</desc>
    <g id="Page-1" stroke="none" stroke-width="1" fill="none" fill-rule="evenodd" fill-opacity="0.5">
        <g id="1.0-Desktop" transform="translate(-184.000000, -2193.000000)" fill="#000000" fill-rule="nonzero">
            <g id="Examples" transform="translate(184.000000, 1940.000000)">
                <g id="Icons-/-Arrow" transform="translate(0.000000, 253.000000)">
                    <path d="M20,0 C8.955,0 0,8.955 0,20 C0,31.045 8.955,40 20,40 C31.045,40 40,31.045 40,20 C40,8.955 31.045,0 20,0 Z M20,3.33333333 C29.205,3.33333333 36.6666667,10.795 36.6666667,20 C36.6666667,29.205 29.205,36.6666667 20,36.6666667 C10.795,36.6666667 3.33333333,29.205 3.33333333,20 C3.33333333,10.795 10.795,3.33333333 20,3.33333333 Z M18.3333333,11.6666667 C17.9066667,11.6666667 17.4799483,11.8299483 17.1549483,12.1549483 L10.4882813,18.821615 C9.8366145,19.4732817 9.8366145,20.5267183 10.4882813,21.178385 L17.1549483,27.8450517 C17.806615,28.4967183 18.8600517,28.4967183 19.5117183,27.8450517 C20.163385,27.193385 20.163385,26.1399483 19.5117183,25.4882817 L15.6901033,21.6666667 L28.3333333,21.6666667 C29.2533333,21.6666667 30,20.9216667 30,20 C30,19.0783333 29.2533333,18.3333333 28.3333333,18.3333333 L15.6901033,18.3333333 L19.5117183,14.5117183 C20.163385,13.8600517 20.163385,12.806615 19.5117183,12.1549483 C19.1867183,11.8299483 18.76,11.6666667 18.3333333,11.6666667 Z" id="Shape"></path>
                </g>
            </g>
        </g>
    </g>
</svg>