<?xml version="1.0" encoding="UTF-8"?>
<svg width="56px" height="62px" viewBox="0 0 56 62" version="1.1" xmlns="http://www.w3.org/2000/svg" xmlns:xlink="http://www.w3.org/1999/xlink">
    <!-- Generator: Sketch 63.1 (92452) - https://sketch.com -->
    <title>icons/calculator</title>
    <desc>Created with Sketch.</desc>
    <g id="Page-1" stroke="none" stroke-width="1" fill="none" fill-rule="evenodd">
        <g id="1.0-Desktop" transform="translate(-1074.000000, -5297.000000)" fill="#FFFFFF" fill-rule="nonzero">
            <g id="Phases" transform="translate(590.000000, 5108.000000)">
                <g id="Icons" transform="translate(29.000000, 78.000000)">
                    <g id="icons/calculator" transform="translate(451.000000, 110.000000)">
                        <path d="M9.6,1 C6.506,1 4,3.506 4,6.6 L4,51.4 C4,54.494 6.506,57 9.6,57 L38.7976552,57 C38.0024552,55.1436 37.6,53.1948 37.6,51.4 L23.6,51.4 L23.6,45.8 L37.6,45.8 L38.8031264,45.8 C38.0639264,44.2488 37.6,42.4008 37.6,40.2 L34.8,40.2 L34.8,34.6 L38.7210948,34.6 C39.6758948,32.3208 41.2008,30.3650448 43.2,28.9398448 L43.2,23.4 L48.8,23.4 L48.8,6.6 C48.8,3.506 46.294,1 43.2,1 L9.6,1 Z M9.6,6.6 L43.2,6.6 L43.2,17.8 L9.6,17.8 L9.6,6.6 Z M12.4,23.4 L18,23.4 L18,29 L12.4,29 L12.4,23.4 Z M23.6,23.4 L29.2,23.4 L29.2,29 L23.6,29 L23.6,23.4 Z M34.8,23.4 L40.4,23.4 L40.4,29 L34.8,29 L34.8,23.4 Z M48.8,29 L48.8,32.3578132 C46,33.1978132 43.2,35.72 43.2,40.2 C43.2,45.52 47.6789052,47.2010948 50.4789052,48.3210948 C53.8389052,49.7210948 54.4,50 54.4,51.4 C54.4,52.8 53.84,54.2 51.6,54.2 C49.36,54.2 48.8,52.8 48.8,51.4 L43.2,51.4 C43.2,54.2 44.88,58.1221868 48.8,59.2421868 L48.8,62.6 L54.4,62.6 L54.4,59.2421868 C58.32,58.1221868 60,54.2 60,51.4 C60,46.08 55.5210948,44.3989052 52.7210948,43.2789052 C49.3610948,41.8789052 48.8,41.6 48.8,40.2 C48.8,37.96 50.2,37.4 51.6,37.4 C53.84,37.4 54.4,38.8 54.4,40.2 L57.2,40.2 L60,40.2 C60,37.4 58.32,33.4778132 54.4,32.3578132 L54.4,29 L48.8,29 Z M12.4,34.6 L18,34.6 L18,40.2 L12.4,40.2 L12.4,34.6 Z M23.6,34.6 L29.2,34.6 L29.2,40.2 L23.6,40.2 L23.6,34.6 Z M12.4,45.8 L18,45.8 L18,51.4 L12.4,51.4 L12.4,45.8 Z" id="Shape"></path>
                    </g>
                </g>
            </g>
        </g>
    </g>
</svg>