<?xml version="1.0" encoding="UTF-8"?>
<svg width="56px" height="42px" viewBox="0 0 56 42" version="1.1" xmlns="http://www.w3.org/2000/svg" xmlns:xlink="http://www.w3.org/1999/xlink">
    <!-- Generator: Sketch 63.1 (92452) - https://sketch.com -->
    <title>icons/car</title>
    <desc>Created with Sketch.</desc>
    <g id="Page-1" stroke="none" stroke-width="1" fill="none" fill-rule="evenodd">
        <g id="1.0-Desktop" transform="translate(-1187.000000, -5313.000000)" fill="#FFFFFF">
            <g id="Phases" transform="translate(590.000000, 5108.000000)">
                <g id="Icons" transform="translate(29.000000, 78.000000)">
                    <g id="icons/car" transform="translate(564.000000, 116.000000)">
                        <g id="icons8-people_in_car_side_view" transform="translate(4.000000, 11.000000)">
                            <path d="M11.1182064,0 C9.41385857,0 7.81458696,0.907336835 6.94293478,2.3682064 C6.88206522,2.47046727 6.82507621,2.57493478 6.78124988,2.68206522 L0.185461957,18.5414393 C0.0612880435,18.8384828 0,19.1568696 0,19.4782609 L0,31.6521739 C0,33.712 1.29138588,35.4683913 3.10529885,36.1793478 C4.4006032,39.2398696 7.43095652,41.3913043 10.9565217,41.3913043 C14.3433043,41.3913043 17.2490652,39.389913 18.6222826,36.5217391 L34.9429336,36.5217391 C36.3161534,39.389913 39.221913,41.3913043 42.6086957,41.3913043 C46.2438261,41.3913043 49.3327666,39.0912334 50.5550275,35.8797551 L54.6542129,33.8301624 C55.4796042,33.4162494 56,32.5749565 56,31.6521739 L56,23.9103249 C56,21.5997186 54.3554943,19.5888536 52.0862769,19.1311144 L43.1413043,17.343071 L37.0448376,2.68206522 C36.9985767,2.57493478 36.9487781,2.47046727 36.8879085,2.3682064 C36.0138216,0.907336835 34.4122289,0 32.707881,0 L11.1182064,0 Z M32.6793478,4.86480984 L37.7438856,17.0434783 L29.2173913,17.0434783 L24.3478261,17.0434783 L24.3478261,4.86956522 L32.6793478,4.86480984 Z M29.2173913,17.0434783 C30.5620846,17.0434783 31.6521739,15.953389 31.6521739,14.6086957 C31.6521739,13.2640023 30.5620846,12.173913 29.2173913,12.173913 C27.872698,12.173913 26.7826087,13.2640023 26.7826087,14.6086957 C26.7826087,15.953389 27.872698,17.0434783 29.2173913,17.0434783 Z M11.1467391,4.86956522 L19.4782609,4.86956522 L19.4782609,17.0434783 L14.6086957,17.0434783 L6.08220115,17.0434783 L11.1467391,4.86956522 Z M14.6086957,17.0434783 C15.953389,17.0434783 17.0434783,15.953389 17.0434783,14.6086957 C17.0434783,13.2640023 15.953389,12.173913 14.6086957,12.173913 C13.2640023,12.173913 12.173913,13.2640023 12.173913,14.6086957 C12.173913,15.953389 13.2640023,17.0434783 14.6086957,17.0434783 Z M10.9565217,29.2173913 C12.970087,29.2173913 14.6086957,30.856 14.6086957,32.8695652 C14.6086957,34.8831304 12.970087,36.5217391 10.9565217,36.5217391 C8.94295652,36.5217391 7.30434783,34.8831304 7.30434783,32.8695652 C7.30434783,30.856 8.94295652,29.2173913 10.9565217,29.2173913 Z M42.6086957,29.2173913 C44.6222609,29.2173913 46.2608696,30.856 46.2608696,32.8695652 C46.2608696,34.8831304 44.6222609,36.5217391 42.6086957,36.5217391 C40.5951304,36.5217391 38.9565217,34.8831304 38.9565217,32.8695652 C38.9565217,30.856 40.5951304,29.2173913 42.6086957,29.2173913 Z" id="Shape" fill-rule="nonzero"></path>
                        </g>
                    </g>
                </g>
            </g>
        </g>
    </g>
</svg>