<?xml version="1.0" encoding="UTF-8"?>
<svg width="24px" height="24px" viewBox="0 0 24 24" version="1.1" xmlns="http://www.w3.org/2000/svg" xmlns:xlink="http://www.w3.org/1999/xlink">
    <!-- Generator: Sketch 63.1 (92452) - https://sketch.com -->
    <title>icons/cart</title>
    <desc>Created with Sketch.</desc>
    <g id="icons/cart" stroke="none" stroke-width="1" fill="none" fill-rule="evenodd">
        <path d="M3.29505457,4.31852926e-05 L1.20677329,0.0164935727 C0.774477768,0.0140969639 0.374299695,0.244384275 0.159163715,0.619353174 C-0.0559722656,0.994322072 -0.0528161232,1.45601978 0.167426049,1.82801246 C0.387668222,2.20000513 0.790957213,2.42479998 1.22317957,2.41649357 L2.50755457,2.40711857 L6.45911701,11.8899309 L5.02239829,14.1868065 C4.01637685,15.7932993 5.23964377,18.0002078 7.13411701,18.0002078 L20.4044296,18.0002078 C20.8371927,18.0062076 21.2397272,17.7788369 21.4578948,17.4050399 C21.6760625,17.0312428 21.6760625,16.5689318 21.4578948,16.1951347 C21.2397272,15.8213376 20.8371927,15.5939669 20.4044296,15.6000873 L7.13411701,15.6000873 C7.00059061,15.6000873 6.98519449,15.5737725 7.05677329,15.4594617 C7.05755453,15.4594625 7.05833577,15.4594625 7.05911701,15.4594617 L8.47005457,13.2000873 L17.4302104,13.2000873 C18.3014104,13.2000873 19.1054668,12.7269309 19.5278668,11.9649309 L23.8497424,4.18133729 C24.2949424,3.38213729 23.716486,2.40008729 22.802086,2.40008729 L5.10442957,2.40008729 L4.41302329,0.738368573 C4.2251916,0.287813458 3.78317675,-0.00408315901 3.29505457,4.31852926e-05 Z M7.20442957,19.2000873 C5.87894617,19.2000873 4.80442957,20.2746039 4.80442957,21.6000873 C4.80442957,22.9255707 5.87894617,24.0000873 7.20442957,24.0000873 C8.52991297,24.0000873 9.60442957,22.9255707 9.60442957,21.6000873 C9.60442957,20.2746039 8.52991297,19.2000873 7.20442957,19.2000873 Z M19.2044296,19.2000873 C17.8789462,19.2000873 16.8044296,20.2746039 16.8044296,21.6000873 C16.8044296,22.9255707 17.8789462,24.0000873 19.2044296,24.0000873 C20.529913,24.0000873 21.6044296,22.9255707 21.6044296,21.6000873 C21.6044296,20.2746039 20.529913,19.2000873 19.2044296,19.2000873 Z" id="cart" fill="#FFFFFF" fill-rule="nonzero"></path>
    </g>
</svg>