<?xml version="1.0" encoding="UTF-8"?>
<svg width="24px" height="25px" viewBox="0 0 24 25" version="1.1" xmlns="http://www.w3.org/2000/svg" xmlns:xlink="http://www.w3.org/1999/xlink">
    <!-- Generator: Sketch 63.1 (92452) - https://sketch.com -->
    <title>cart</title>
    <desc>Created with Sketch.</desc>
    <g id="Page-1" stroke="none" stroke-width="1" fill="none" fill-rule="evenodd">
        <g id="1.0-Home" transform="translate(-780.000000, -2352.000000)" fill="#FFFFFF" fill-rule="nonzero">
            <g id="Examples" transform="translate(382.000000, 1940.000000)">
                <g id="Group-4" transform="translate(210.000000, 316.666667)">
                    <path d="M191.295055,96.0000432 L189.206773,96.0164936 C188.774478,96.014097 188.3743,96.2443843 188.159164,96.6193532 C187.944028,96.9943221 187.947184,97.4560198 188.167426,97.8280125 C188.387668,98.2000051 188.790957,98.4248 189.22318,98.4164936 L190.507555,98.4071186 L194.459117,107.889931 L193.022398,110.186806 C192.016377,111.793299 193.239644,114.000208 195.134117,114.000208 L208.40443,114.000208 C208.837193,114.006208 209.239727,113.778837 209.457895,113.40504 C209.676062,113.031243 209.676062,112.568932 209.457895,112.195135 C209.239727,111.821338 208.837193,111.593967 208.40443,111.600087 L195.134117,111.600087 C195.000591,111.600087 194.985194,111.573772 195.056773,111.459462 C195.057555,111.459462 195.058336,111.459462 195.059117,111.459462 L196.470055,109.200087 L205.43021,109.200087 C206.30141,109.200087 207.105467,108.726931 207.527867,107.964931 L211.849742,100.181337 C212.294942,99.3821373 211.716486,98.4000873 210.802086,98.4000873 L193.10443,98.4000873 L192.413023,96.7383686 C192.225192,96.2878135 191.783177,95.9959168 191.295055,96.0000432 Z M195.20443,115.200087 C193.878946,115.200087 192.80443,116.274604 192.80443,117.600087 C192.80443,118.925571 193.878946,120.000087 195.20443,120.000087 C196.529913,120.000087 197.60443,118.925571 197.60443,117.600087 C197.60443,116.274604 196.529913,115.200087 195.20443,115.200087 Z M207.20443,115.200087 C205.878946,115.200087 204.80443,116.274604 204.80443,117.600087 C204.80443,118.925571 205.878946,120.000087 207.20443,120.000087 C208.529913,120.000087 209.60443,118.925571 209.60443,117.600087 C209.60443,116.274604 208.529913,115.200087 207.20443,115.200087 Z" id="cart"></path>
                </g>
            </g>
        </g>
    </g>
</svg>