<?xml version="1.0" encoding="UTF-8"?>
<svg width="24px" height="22px" viewBox="0 0 24 22" version="1.1" xmlns="http://www.w3.org/2000/svg" xmlns:xlink="http://www.w3.org/1999/xlink">
    <!-- Generator: Sketch 63.1 (92452) - https://sketch.com -->
    <title>code</title>
    <desc>Created with Sketch.</desc>
    <g id="Page-1" stroke="none" stroke-width="1" fill="none" fill-rule="evenodd">
        <g id="1.0-Home" transform="translate(-592.000000, -2352.000000)" fill="#FFFFFF" fill-rule="nonzero">
            <g id="Examples" transform="translate(382.000000, 1940.000000)">
                <g id="Group-4" transform="translate(210.000000, 316.666667)">
                    <path d="M2.76923077,96.1071382 C1.20072092,96.1071382 0,97.3078591 0,98.8763689 L0,113.6456 C0,115.21411 1.20072092,116.41483 2.76923077,116.41483 L21.2307692,116.41483 C22.7992791,116.41483 24,115.21411 24,113.6456 L24,98.8763689 C24,97.3078591 22.7992791,96.1071382 21.2307692,96.1071382 L2.76923077,96.1071382 Z M1.84615385,100.722523 L22.1538462,100.722523 L22.1538462,113.6456 C22.1538462,114.200889 21.7860582,114.568677 21.2307692,114.568677 L2.76923077,114.568677 C2.21394277,114.568677 1.84615385,114.200889 1.84615385,113.6456 L1.84615385,100.722523 Z M12.9230769,102.568677 L9.23076923,112.722523 L11.0769231,112.722523 L14.7692308,102.568677 L12.9230769,102.568677 Z M6.69230769,103.809061 L3.40384615,107.6456 L6.69230769,111.482138 L8.07692308,110.2706 L5.82692308,107.6456 L8.07692308,105.0206 L6.69230769,103.809061 Z M17.3076923,103.809061 L15.9230769,105.0206 L18.1730769,107.6456 L15.9230769,110.2706 L17.3076923,111.482138 L20.5961538,107.6456 L17.3076923,103.809061 Z" id="code"></path>
                </g>
            </g>
        </g>
    </g>
</svg>