<?xml version="1.0" encoding="UTF-8"?>
<svg width="24px" height="24px" viewBox="0 0 24 24" version="1.1" xmlns="http://www.w3.org/2000/svg" xmlns:xlink="http://www.w3.org/1999/xlink">
    <!-- Generator: Sketch 63.1 (92452) - https://sketch.com -->
    <title>icons/code</title>
    <desc>Created with Sketch.</desc>
    <g id="icons/code" stroke="none" stroke-width="1" fill="none" fill-rule="evenodd">
        <path d="M2.72727273,2 C1.18252818,2 0,3.18252818 0,4.72727273 L0,19.2727273 C0,20.8174718 1.18252818,22 2.72727273,22 L20.9090909,22 C22.4538355,22 23.6363636,20.8174718 23.6363636,19.2727273 L23.6363636,4.72727273 C23.6363636,3.18252818 22.4538355,2 20.9090909,2 L2.72727273,2 Z M1.81818182,6.54545455 L21.8181818,6.54545455 L21.8181818,19.2727273 C21.8181818,19.8196027 21.4559664,20.1818182 20.9090909,20.1818182 L2.72727273,20.1818182 C2.18039818,20.1818182 1.81818182,19.8196027 1.81818182,19.2727273 L1.81818182,6.54545455 Z M12.7272727,8.36363636 L9.09090909,18.3636364 L10.9090909,18.3636364 L14.5454545,8.36363636 L12.7272727,8.36363636 Z M6.59090909,9.58522727 L3.35227273,13.3636364 L6.59090909,17.1420455 L7.95454545,15.9488636 L5.73863636,13.3636364 L7.95454545,10.7784091 L6.59090909,9.58522727 Z M17.0454545,9.58522727 L15.6818182,10.7784091 L17.8977273,13.3636364 L15.6818182,15.9488636 L17.0454545,17.1420455 L20.2840909,13.3636364 L17.0454545,9.58522727 Z" id="code" fill="#FFFFFF" fill-rule="nonzero"></path>
    </g>
</svg>