<?xml version="1.0" encoding="UTF-8"?>
<svg width="52px" height="41px" viewBox="0 0 52 41" version="1.1" xmlns="http://www.w3.org/2000/svg" xmlns:xlink="http://www.w3.org/1999/xlink">
    <!-- Generator: Sketch 63.1 (92452) - https://sketch.com -->
    <title>complex</title>
    <desc>Created with Sketch.</desc>
    <g id="Page-1" stroke="none" stroke-width="1" fill="none" fill-rule="evenodd">
        <g id="1.0-Desktop" transform="translate(-814.000000, -3600.000000)" fill="#E1340E" fill-rule="nonzero" stroke="#FFFFFF" stroke-width="2">
            <g id="Why-us" transform="translate(590.000000, 3262.000000)">
                <path d="M250.002463,364.237096 C255.650855,370.856779 261.865311,376.840339 270.869648,377.976106 C271.960142,378.115163 272.993725,377.753011 273.75446,377.077974 C274.51456,376.403501 275,375.417707 275,374.317301 C275,373.403368 274.662131,372.55648 274.097592,371.909824 C273.532814,371.262897 272.741779,370.816231 271.835094,370.700365 C263.825749,369.66941 258.492345,363.037131 252.828735,356.170585 L252.219061,355.431814 C245.942799,347.834364 239.328938,340.31724 229.124827,339.033454 C228.034525,338.894421 227.00277,339.255931 226.24362,339.929413 C225.484497,340.602871 225,341.587544 225,342.687091 L225,367.470543 C227.738431,367.655527 230.080256,367.086186 232.306466,365.887008 L232.331406,347.432029 C233.495015,347.909934 234.602318,348.510924 235.666667,349.212895 L235.666667,363.603692 C237.975323,361.764496 240.305508,359.182775 243,355.911337 C243.746493,356.75608 244.486059,357.628507 245.225543,358.512352 C243.927357,360.071442 242.625717,361.564535 241.281011,362.955612 C239.641606,364.698965 237.935644,366.252539 236.098663,367.520315 C234.52917,368.608831 232.861929,369.497296 231.02672,370.058173 C230.131145,370.346664 229.202406,370.562469 228.229053,370.69041 C227.308563,370.813262 226.501011,371.259022 225.924312,371.904467 C225.34743,372.550117 225,373.395194 225,374.322509 C225,375.423009 225.485193,376.406198 226.244869,377.078978 C227.005002,377.752164 228.038235,378.113537 229.130063,377.976142 C238.132746,376.840645 244.345866,370.864663 250.002463,364.237096 Z M257,355.696647 L257,355.990702 C259.694492,359.182775 262.024677,361.764496 264.333333,363.603692 L264.333333,349.200739 C265.40829,348.498265 266.519411,347.88985 267.690799,347.415547 L267.66583,365.926825 C269.892152,367.085994 272.233906,367.654555 274.973112,367.470855 L274.994795,342.687966 C274.996625,341.592366 274.516626,340.607496 273.762519,339.932493 C273.00794,339.257067 271.98127,338.892395 270.892,339.028095 C263.330024,339.970243 257.742042,344.318628 252.815033,349.609783 C252.609039,349.831001 252.404772,350.053255 252.202417,350.276626 C252.398905,350.499065 252.59617,350.7225 252.793102,350.948393 C253.693112,351.980757 254.541318,353.013002 255.398072,354.056992 C255.551621,354.238458 255.696358,354.420672 255.837848,354.598566 C256.004202,354.807723 256.172387,355.007382 256.367681,355.17003 L257,355.696647 Z" id="complex"></path>
            </g>
        </g>
    </g>
</svg>