<?xml version="1.0" encoding="UTF-8"?>
<svg width="64px" height="64px" viewBox="0 0 64 64" version="1.1" xmlns="http://www.w3.org/2000/svg" xmlns:xlink="http://www.w3.org/1999/xlink">
    <!-- Generator: Sketch 63.1 (92452) - https://sketch.com -->
    <title>icons / demo</title>
    <desc>Created with Sketch.</desc>
    <g id="icons-/-demo" stroke="none" stroke-width="1" fill="none" fill-rule="evenodd">
        <path d="M15.2,44 C13.5983742,44 12.1483742,44.6491871 11.0987807,45.6987807 C10.0491871,46.7483742 9.4,48.1983742 9.4,49.8 C9.4,51.4016258 10.0491871,52.8516258 11.0987807,53.9012193 C12.1483742,54.9508129 13.5983742,55.6 15.2,55.6 C16.8016258,55.6 18.2516258,54.9508129 19.3012193,53.9012193 C20.3508129,52.8516258 21,51.4016258 21,49.8 C21,48.1983742 20.3508129,46.7483742 19.3012193,45.6987807 C18.2516258,44.6491871 16.8016258,44 15.2,44 Z M32,44 C30.3983742,44 28.9483742,44.6491871 27.8987807,45.6987807 C26.8491871,46.7483742 26.2,48.1983742 26.2,49.8 C26.2,51.4016258 26.8491871,52.8516258 27.8987807,53.9012193 C28.9483742,54.9508129 30.3983742,55.6 32,55.6 C33.6016258,55.6 35.0516258,54.9508129 36.1012193,53.9012193 C37.1508129,52.8516258 37.8,51.4016258 37.8,49.8 C37.8,48.1983742 37.1508129,46.7483742 36.1012193,45.6987807 C35.0516258,44.6491871 33.6016258,44 32,44 Z M48.8,44 C47.1983742,44 45.7483742,44.6491871 44.6987807,45.6987807 C43.6491871,46.7483742 43,48.1983742 43,49.8 C43,51.4016258 43.6491871,52.8516258 44.6987807,53.9012193 C45.7483742,54.9508129 47.1983742,55.6 48.8,55.6 C50.4016258,55.6 51.8516258,54.9508129 52.9012193,53.9012193 C53.9508129,52.8516258 54.6,51.4016258 54.6,49.8 C54.6,48.1983742 53.9508129,46.7483742 52.9012193,45.6987807 C51.8516258,44.6491871 50.4016258,44 48.8,44 Z M10.4,8 C9.4616,8 8.61152056,8.38066588 7.99609322,8.99609322 C7.38066588,9.61152056 7,10.4616 7,11.4 L7,37.8 C7,38.7384 7.38066588,39.5884794 7.99609322,40.2039068 C8.61152056,40.8193341 9.4616,41.2 10.4,41.2 L27.4531256,41.2 C28.320087,41.2 29.1174617,40.873924 29.7219134,40.3324109 C30.326302,39.7909543 30.7378299,39.0340679 30.8330168,38.172286 L32,27.6618489 L33.1670459,38.1728528 C33.2622332,39.0329388 33.6738929,39.7902293 34.278788,40.3321395 C34.8831977,40.873615 35.6803336,41.2 36.5468744,41.2 L53.6,41.2 C54.5384,41.2 55.3884794,40.8193341 56.0039068,40.2039068 C56.6193341,39.5884794 57,38.7384 57,37.8 L57,11.4 C57,10.8687939 56.9127968,10.3610976 56.2001619,9.87960704 C55.8864123,9.66762265 55.3680761,9.44145275 54.4753529,9.25083172 C53.2097232,8.98058486 51.0452342,8.73668501 47.3441158,8.54188931 C40.9165361,8.20359564 29.7596394,8 10.4,8 Z" id="Shape" stroke="#FFFFFF" stroke-width="2" fill="#4A4A4A" fill-rule="nonzero"></path>
    </g>
</svg>