<?xml version="1.0" encoding="UTF-8"?>
<svg width="54px" height="54px" viewBox="0 0 54 54" version="1.1" xmlns="http://www.w3.org/2000/svg" xmlns:xlink="http://www.w3.org/1999/xlink">
    <!-- Generator: Sketch 63.1 (92452) - https://sketch.com -->
    <title>icons/design</title>
    <desc>Created with Sketch.</desc>
    <g id="Page-1" stroke="none" stroke-width="1" fill="none" fill-rule="evenodd">
        <g id="1.0-Desktop" transform="translate(-963.000000, -5307.000000)" fill="#FFFFFF">
            <g id="Phases" transform="translate(590.000000, 5108.000000)">
                <g id="Icons" transform="translate(29.000000, 78.000000)">
                    <g id="icons/design" transform="translate(338.000000, 117.000000)">
                        <g id="icons8-design" transform="translate(4.000000, 4.000000)">
                            <path d="M48.08125,0 C46.05475,0 44.02825,0.77175 42.48125,2.31875 L39.2,5.6 L50.4,16.8 L53.68125,13.51875 C56.77245,10.42755 56.77245,5.41275 53.68125,2.31875 C52.13425,0.77175 50.10775,0 48.08125,0 Z M16.8,2.31875 C15.3671,2.31875 13.934025,2.865975 12.840625,3.959375 L3.959375,12.840625 C1.772575,15.027425 1.772575,18.572575 3.959375,20.759375 L8.553125,25.3531264 C9.647925,26.4479264 11.4205,26.4479264 12.5125,25.3531264 C13.6073,24.2611236 13.6099687,22.48855 12.5179687,21.39375 L7.91875,16.8 L16.8,7.91875 L21.39375,12.5179687 C22.48855,13.6127687 24.2611264,13.6127687 25.3531264,12.5179687 C26.4479264,11.4231687 26.4479264,9.65059368 25.3531264,8.55859368 L20.759375,3.959375 C19.665975,2.865975 18.2329,2.31875 16.8,2.31875 Z M35,9.8 L4.440625,40.3593736 C3.390625,41.4093736 2.8,42.83475 2.8,44.31875 L2.8,53.2 L11.68125,53.2 C13.16525,53.2 14.590625,52.6093736 15.640625,51.5593736 L46.2,21 L35,9.8 Z M45.4671868,29.8265629 C44.7503868,29.8262132 44.0294316,30.0954052 43.4820316,30.6414052 C42.3872316,31.7362052 42.3872316,33.5087816 43.4820316,34.6007816 L48.08125,39.2 L39.2,48.08125 L34.60625,43.4875 C33.51145,42.3927 31.7388764,42.3927 30.6468736,43.4875 C29.5520736,44.5823 29.5520764,46.3548736 30.6468736,47.4468736 L35.2406264,52.0406264 C37.4274264,54.2274236 40.9725764,54.2274236 43.1593736,52.0406264 L52.0406264,43.1593736 C54.2274236,40.9725764 54.2274264,37.4274236 52.0406264,35.2406264 L47.4468736,30.6468736 C46.8994736,30.0994764 46.1839868,29.8269132 45.4671868,29.8265629 Z" id="Shape" fill-rule="nonzero"></path>
                        </g>
                    </g>
                </g>
            </g>
        </g>
    </g>
</svg>