<?xml version="1.0" encoding="UTF-8"?>
<svg width="32px" height="32px" viewBox="0 0 32 32" version="1.1" xmlns="http://www.w3.org/2000/svg" xmlns:xlink="http://www.w3.org/1999/xlink">
    <!-- Generator: Sketch 63.1 (92452) - https://sketch.com -->
    <title>Combined Shape</title>
    <desc>Created with Sketch.</desc>
    <g id="Symbols" stroke="none" stroke-width="1" fill="none" fill-rule="evenodd" fill-opacity="0.25">
        <g id="Icons-/-Facebook" fill="#000000" fill-rule="nonzero">
            <path d="M16,0 C24.8227692,0 32,7.17723077 32,16 C32,23.5354881 26.7643592,29.87059 19.7395707,31.5588127 L19.7392657,32 L16.8077575,31.979867 C17.8119416,31.9296994 18.792032,31.7865286 19.7395707,31.5588127 L19.7392657,20.9863222 L23.6723964,20.9863222 L24.2894176,16.9908815 L19.7377459,16.9908815 L19.7377459,14.8069909 C19.7377459,13.1474164 20.2802991,11.674772 21.8334906,11.674772 L21.8334906,11.674772 L24.3289313,11.674772 L24.3289313,8.18844985 C23.8897216,8.12917933 22.9641897,8 21.21191,8 C17.5538553,8 15.4094784,9.93161094 15.4094784,14.3328267 L15.4094784,14.3328267 L15.4094784,16.9908815 L11.6496,16.9908815 L11.6496,20.9863222 L15.4094784,20.9863222 L15.4094784,31.9680851 L16.8077575,31.979867 C16.5401626,31.9932356 16.2708567,32 16,32 C7.17723077,32 0,24.8227692 0,16 C0,7.17723077 7.17723077,0 16,0 Z" id="Combined-Shape"></path>
        </g>
    </g>
</svg>