<?xml version="1.0" encoding="UTF-8"?>
<svg width="32px" height="32px" viewBox="0 0 32 32" version="1.1" xmlns="http://www.w3.org/2000/svg" xmlns:xlink="http://www.w3.org/1999/xlink">
    <!-- Generator: Sketch 63.1 (92452) - https://sketch.com -->
    <title>Path</title>
    <desc>Created with Sketch.</desc>
    <g id="Symbols" stroke="none" stroke-width="1" fill="none" fill-rule="evenodd" fill-opacity="0.25">
        <g id="Icons-/-Github" fill="#1A1A1A" fill-rule="nonzero">
            <path d="M14.2039467,0.1142353 C6.82900565,0.939452684 0.896987874,7.04606133 0.0953638497,14.4730178 C-0.706260174,22.2300612 3.62250955,29.1618872 10.1958266,31.8025828 C10.676801,31.9676263 11.1577754,31.6375394 11.1577754,30.9773655 L11.1577754,28.3366698 C11.1577754,28.3366698 10.5164762,28.5017133 9.71485214,28.5017133 C7.47030487,28.5017133 6.50835604,26.5211916 6.34803124,25.3658873 C6.18770643,24.7057133 5.86705682,24.2105829 5.38608241,23.7154525 C4.90510799,23.550409 4.74478319,23.550409 4.74478319,23.3853655 C4.74478319,23.0552786 5.2257576,23.0552786 5.38608241,23.0552786 C6.34803124,23.0552786 7.14965526,24.2105829 7.47030487,24.7057133 C8.27192889,26.0260612 9.23387772,26.3561481 9.71485214,26.3561481 C10.3561514,26.3561481 10.8371258,26.1911046 11.1577754,26.0260612 C11.3181002,24.8707568 11.7990746,23.7154525 12.7610234,23.0552786 C9.07355292,22.2300612 6.34803124,20.084496 6.34803124,16.4535395 C6.34803124,14.6380613 7.14965526,12.822583 8.27192889,11.5022352 C8.11160409,11.1721482 7.95127928,10.3469309 7.95127928,9.19162652 C7.95127928,8.53145262 7.95127928,7.54119176 8.4322537,6.5509309 C8.4322537,6.5509309 10.676801,6.5509309 12.9213482,8.69649609 C13.7229723,8.36640914 14.8452459,8.20136566 15.9675195,8.20136566 C17.0897932,8.20136566 18.2120668,8.36640914 19.1740156,8.69649609 C21.2582381,6.5509309 23.6631102,6.5509309 23.6631102,6.5509309 C23.9837598,7.54119176 23.9837598,8.53145262 23.9837598,9.19162652 C23.9837598,10.5119743 23.823435,11.1721482 23.6631102,11.5022352 C24.7853838,12.822583 25.5870078,14.4730178 25.5870078,16.4535395 C25.5870078,20.084496 22.8614861,22.2300612 19.1740156,23.0552786 C20.1359644,23.880496 20.7772637,25.3658873 20.7772637,26.8512785 L20.7772637,31.1424089 C20.7772637,31.6375394 21.2582381,32.1326698 21.8995373,31.9676263 C27.8315551,29.4919742 32,23.550409 32,16.618583 C32,6.71597437 23.823435,-1.04106904 14.2039467,0.1142353 Z" id="Path"></path>
        </g>
    </g>
</svg>