<?xml version="1.0" encoding="UTF-8"?>
<svg width="24px" height="24px" viewBox="0 0 24 24" version="1.1" xmlns="http://www.w3.org/2000/svg" xmlns:xlink="http://www.w3.org/1999/xlink">
    <!-- Generator: Sketch 63.1 (92452) - https://sketch.com -->
    <title>icons/growth</title>
    <desc>Created with Sketch.</desc>
    <g id="icons/growth" stroke="none" stroke-width="1" fill="none" fill-rule="evenodd">
        <path d="M6.40885413,0 C5.97685413,0 5.5885416,0.258854133 5.42187493,0.658854133 C5.2565416,1.0575208 5.34964587,1.5149792 5.65364587,1.82031253 L6.9739584,3.14062507 L0.942708267,9.17187493 C0.422708267,9.69187467 0.422708267,10.537292 0.942708267,11.057292 C1.46270827,11.577292 2.30812493,11.577292 2.82812507,11.057292 L8.85937493,5.0260416 L10.179688,6.34635413 C10.4850213,6.65035413 10.9424787,6.7434584 11.3411453,6.57812507 C11.4731453,6.5234584 11.5901667,6.44368747 11.6875,6.34635413 C11.8835,6.15035413 12,5.8804792 12,5.59114587 L12,1.06770827 C12,0.478375067 11.5216253,0 10.932292,0 L6.40885413,0 Z M22,0 C20.896,0 20,0.896 20,2 L20,22 C20,23.104 20.896,24 22,24 C23.104,24 24,23.104 24,22 L24,2 C24,0.896 23.104,0 22,0 Z M15.3333333,10.6666667 C14.2293333,10.6666667 13.3333333,11.5626667 13.3333333,12.6666667 L13.3333333,22 C13.3333333,23.104 14.2293333,24 15.3333333,24 C16.4373333,24 17.3333333,23.104 17.3333333,22 L17.3333333,12.6666667 C17.3333333,11.5626667 16.4373333,10.6666667 15.3333333,10.6666667 Z M8.66666667,16 C7.56266667,16 6.66666667,16.896 6.66666667,18 L6.66666667,22 C6.66666667,23.104 7.56266667,24 8.66666667,24 C9.77066667,24 10.6666667,23.104 10.6666667,22 L10.6666667,18 C10.6666667,16.896 9.77066667,16 8.66666667,16 Z M2,18.6666667 C0.896,18.6666667 0,19.5626667 0,20.6666667 L0,22 C0,23.104 0.896,24 2,24 C3.104,24 4,23.104 4,22 L4,20.6666667 C4,19.5626667 3.104,18.6666667 2,18.6666667 Z" id="growth" fill="#FFFFFF" fill-rule="nonzero"></path>
    </g>
</svg>