<?xml version="1.0" encoding="UTF-8"?>
<svg width="24px" height="25px" viewBox="0 0 24 25" version="1.1" xmlns="http://www.w3.org/2000/svg" xmlns:xlink="http://www.w3.org/1999/xlink">
    <!-- Generator: Sketch 63.1 (92452) - https://sketch.com -->
    <title>growth</title>
    <desc>Created with Sketch.</desc>
    <g id="Page-1" stroke="none" stroke-width="1" fill="none" fill-rule="evenodd">
        <g id="1.0-Home" transform="translate(-592.000000, -2397.000000)" fill="#FFFFFF" fill-rule="nonzero">
            <g id="Examples" transform="translate(382.000000, 1940.000000)">
                <g id="Group-4" transform="translate(210.000000, 316.666667)">
                    <path d="M6.40885413,140.41483 C5.97685413,140.41483 5.5885416,140.673685 5.42187493,141.073685 C5.2565416,141.472351 5.34964587,141.92981 5.65364587,142.235143 L6.9739584,143.555456 L0.942708267,149.586705 C0.422708267,150.106705 0.422708267,150.952122 0.942708267,151.472122 C1.46270827,151.992122 2.30812493,151.992122 2.82812507,151.472122 L8.85937493,145.440872 L10.179688,146.761185 C10.4850213,147.065185 10.9424787,147.158289 11.3411453,146.992956 C11.4731453,146.938289 11.5901667,146.858518 11.6875,146.761185 C11.8835,146.565185 12,146.29531 12,146.005976 L12,141.482539 C12,140.893206 11.5216253,140.41483 10.932292,140.41483 L6.40885413,140.41483 Z M22,140.41483 C20.896,140.41483 20,141.31083 20,142.41483 L20,162.41483 C20,163.51883 20.896,164.41483 22,164.41483 C23.104,164.41483 24,163.51883 24,162.41483 L24,142.41483 C24,141.31083 23.104,140.41483 22,140.41483 Z M15.3333333,151.081497 C14.2293333,151.081497 13.3333333,151.977497 13.3333333,153.081497 L13.3333333,162.41483 C13.3333333,163.51883 14.2293333,164.41483 15.3333333,164.41483 C16.4373333,164.41483 17.3333333,163.51883 17.3333333,162.41483 L17.3333333,153.081497 C17.3333333,151.977497 16.4373333,151.081497 15.3333333,151.081497 Z M8.66666667,156.41483 C7.56266667,156.41483 6.66666667,157.31083 6.66666667,158.41483 L6.66666667,162.41483 C6.66666667,163.51883 7.56266667,164.41483 8.66666667,164.41483 C9.77066667,164.41483 10.6666667,163.51883 10.6666667,162.41483 L10.6666667,158.41483 C10.6666667,157.31083 9.77066667,156.41483 8.66666667,156.41483 Z M2,159.081497 C0.896,159.081497 0,159.977497 0,161.081497 L0,162.41483 C0,163.51883 0.896,164.41483 2,164.41483 C3.104,164.41483 4,163.51883 4,162.41483 L4,161.081497 C4,159.977497 3.104,159.081497 2,159.081497 Z" id="growth"></path>
                </g>
            </g>
        </g>
    </g>
</svg>