<?xml version="1.0" encoding="UTF-8"?>
<svg width="56px" height="56px" viewBox="0 0 56 56" version="1.1" xmlns="http://www.w3.org/2000/svg" xmlns:xlink="http://www.w3.org/1999/xlink">
    <!-- Generator: Sketch 63.1 (92452) - https://sketch.com -->
    <title>icons/improvement</title>
    <desc>Created with Sketch.</desc>
    <g id="Page-1" stroke="none" stroke-width="1" fill="none" fill-rule="evenodd">
        <g id="1.0-Desktop" transform="translate(-1533.000000, -5190.000000)" fill="#FFFFFF">
            <g id="Phases" transform="translate(590.000000, 5108.000000)">
                <g id="Icons" transform="translate(29.000000, 78.000000)">
                    <g id="icons/improvement" transform="translate(910.000000, 0.000000)">
                        <g id="icons8-process_improvement" transform="translate(4.000000, 4.000000)">
                            <path d="M28,0 C19.6031827,0 12.137076,3.77837227 7,9.65234387 L7,4.66666667 L2.33333333,4.66666667 L2.33333333,18.6666667 L16.3333333,18.6666667 L16.3333333,14 L9.57486973,14 C13.8330824,8.40124273 20.4051097,4.66666667 28,4.66666667 L28,0 Z M37.3333333,2.33333333 L37.3333333,16.3333333 L42,16.3333333 L42,9.5703125 C47.598845,13.8285315 51.3333333,20.4038777 51.3333333,28 L56,28 C56,19.6108803 52.2427897,12.1369649 46.379557,7 L51.3333333,7 L51.3333333,2.33333333 L37.3333333,2.33333333 Z M25.6666667,18.6666667 L25.6666667,25.6666667 L18.6666667,25.6666667 L18.6666667,30.3333333 L25.6666667,30.3333333 L25.6666667,37.3333333 L30.3333333,37.3333333 L30.3333333,30.3333333 L37.3333333,30.3333333 L37.3333333,25.6666667 L30.3333333,25.6666667 L30.3333333,18.6666667 L25.6666667,18.6666667 Z M0,28 C0,36.3968173 3.77837227,43.862924 9.65234387,49 L4.66666667,49 L4.66666667,53.6666667 L18.6666667,53.6666667 L18.6666667,39.6666667 L14,39.6666667 L14,46.4251293 C8.40124273,42.1669173 4.66666667,35.5948903 4.66666667,28 L0,28 Z M39.6666667,37.3333333 L39.6666667,42 L46.4296887,42 C42.1714697,47.598845 35.5961223,51.3333333 28,51.3333333 L28,56 C36.3891197,56 43.863036,52.2427897 49,46.379557 L49,51.3333333 L53.6666667,51.3333333 L53.6666667,37.3333333 L39.6666667,37.3333333 Z" id="Shape" fill-rule="nonzero"></path>
                        </g>
                    </g>
                </g>
            </g>
        </g>
    </g>
</svg>