<?xml version="1.0" encoding="UTF-8"?>
<svg width="32px" height="32px" viewBox="0 0 32 32" version="1.1" xmlns="http://www.w3.org/2000/svg" xmlns:xlink="http://www.w3.org/1999/xlink">
    <!-- Generator: Sketch 63.1 (92452) - https://sketch.com -->
    <title>Icons / Instagram</title>
    <desc>Created with Sketch.</desc>
    <g id="Icons-/-Instagram" stroke="none" stroke-width="1" fill="none" fill-rule="evenodd" fill-opacity="0.25">
        <path d="M16,0 C24.8227692,0 32,7.17723077 32,16 C32,24.8227692 24.8227692,32 16,32 C7.17723077,32 0,24.8227692 0,16 C0,7.17723077 7.17723077,0 16,0 Z M16.008,7.984 C11.58904,7.984 8,11.57304 8,15.992 C8,20.41096 11.58904,24 16.008,24 C20.42696,24 24.016,20.41096 24.016,15.992 C24.016,11.57304 20.42696,7.984 16.008,7.984 Z M16.008,9.44 C19.61888,9.44 22.56,12.38112 22.56,15.992 C22.56,19.60288 19.61888,22.544 16.008,22.544 C12.39712,22.544 9.456,19.60288 9.456,15.992 C9.456,12.38112 12.39712,9.44 16.008,9.44 Z M24.744,5.8 C23.9432,5.8 23.288,6.4552 23.288,7.256 C23.288,8.0568 23.9432,8.712 24.744,8.712 C25.5448,8.712 26.2,8.0568 26.2,7.256 C26.2,6.4552 25.5448,5.8 24.744,5.8 Z" id="Combined-Shape" fill="#000000" fill-rule="nonzero"></path>
    </g>
</svg>