<?xml version="1.0" encoding="UTF-8"?>
<svg width="32px" height="32px" viewBox="0 0 32 32" version="1.1" xmlns="http://www.w3.org/2000/svg" xmlns:xlink="http://www.w3.org/1999/xlink">
    <!-- Generator: Sketch 63.1 (92452) - https://sketch.com -->
    <title>Icons / LinkedIn</title>
    <desc>Created with Sketch.</desc>
    <g id="Icons-/-LinkedIn" stroke="none" stroke-width="1" fill="none" fill-rule="evenodd" fill-opacity="0.25">
        <path d="M16,0 C24.8227692,0 32,7.17723077 32,16 C32,24.8227692 24.8227692,32 16,32 C7.17723077,32 0,24.8227692 0,16 C0,7.17723077 7.17723077,0 16,0 Z M11.4285714,12.5714286 L8,12.5714286 L8,23.4285714 L11.4285714,23.4285714 L11.4285714,12.5714286 Z M16.5714286,12.5714286 L13.1428571,12.5714286 L13.1428571,23.4285714 L16.5714286,23.4285714 L16.5714286,23.4285714 L16.5714286,17.7142857 C16.5714286,16.5828571 17.1428571,15.4057143 18.5257143,15.4057143 L18.5257143,15.4057143 L18.5714286,15.4057143 C20,15.4285714 20.5714286,16.5714286 20.5714286,17.7142857 L20.5714286,17.7142857 L20.5714286,23.4285714 L24,23.4285714 L24,17.2914286 C24,14.1314286 22.16,12.5714286 19.8914286,12.5714286 C17.6742857,12.5714286 16.5714286,14.0342857 16.5714286,14.0342857 L16.5714286,14.0342857 L16.5714286,12.5714286 Z M9.71428571,8 C8.68571429,8 8,8.61142857 8,9.41142857 C8,10.2114286 8.68571429,10.8571429 9.71428571,10.8571429 C10.7885714,10.8571429 11.4285714,10.2114286 11.4285714,9.41142857 C11.3885714,8.61142857 10.7428571,8 9.71428571,8 Z" id="Combined-Shape" fill="#000000" fill-rule="nonzero"></path>
    </g>
</svg>