<?xml version="1.0" encoding="UTF-8"?>
<svg width="24px" height="25px" viewBox="0 0 24 25" version="1.1" xmlns="http://www.w3.org/2000/svg" xmlns:xlink="http://www.w3.org/1999/xlink">
    <!-- Generator: Sketch 63.1 (92452) - https://sketch.com -->
    <title>paint</title>
    <desc>Created with Sketch.</desc>
    <g id="Page-1" stroke="none" stroke-width="1" fill="none" fill-rule="evenodd">
        <g id="1.0-Home" transform="translate(-592.000000, -2304.000000)" fill="#FFFFFF" fill-rule="nonzero">
            <g id="Examples" transform="translate(382.000000, 1940.000000)">
                <g id="Group-4" transform="translate(210.000000, 316.666667)">
                    <path d="M21.0781575,48.00086 C20.3380708,47.9835975 19.5912674,48.226156 18.9941697,48.733199 C18.9933838,48.7339828 18.9925989,48.7347678 18.9918151,48.7355538 L7.69118808,58.3807646 C7.66681379,58.4010213 7.64324763,58.4222311 7.6205445,58.4443446 C7.1621773,58.9027116 6.93270892,59.5093206 6.92588204,60.118599 C5.78140177,60.1648441 4.66018009,60.6024052 3.8128525,61.5267612 C3.25943669,62.1304875 2.90646765,62.881835 2.49652604,63.7967773 C2.08658443,64.7117197 1.68419417,65.7576717 1.32384161,66.7543909 C0.603136834,68.7478306 0.0522561412,70.5503084 0.0522562618,70.5503084 C-0.0764866856,70.9733836 0.0366998756,71.4329887 0.347185041,71.7478956 C0.657670206,72.0628024 1.11562892,72.1824764 1.54048221,72.0597285 C1.54048221,72.0597285 3.34647001,71.540346 5.34581945,70.832883 C6.34549399,70.4791521 7.39568219,70.0792351 8.31756172,69.6601989 C9.23944124,69.2411627 10.007841,68.8670937 10.6181899,68.2567459 C11.4693979,67.4055367 11.9208022,66.3079226 12.0075139,65.1955211 C12.6164619,65.1868126 13.2222788,64.9544836 13.6794136,64.4961492 C13.7015271,64.473446 13.7227369,64.4498797 13.7429936,64.4255053 L23.3811397,53.1060402 C23.3835045,53.1036951 23.3858596,53.1013403 23.3882049,53.0989758 C24.2376719,52.0856019 24.1309247,50.7382816 23.5059439,49.6374375 C23.4874961,49.3296342 23.3518247,49.040595 23.1268232,48.8297454 C23.126824,48.8289604 23.126824,48.8281754 23.1268232,48.8273905 C22.5536722,48.2934568 21.8182442,48.0181225 21.0781575,48.00086 Z M11.5059448,58.2936382 L13.8230561,60.6107495 L11.9674827,62.7889275 L9.33012045,60.1515651 L11.5059448,58.2936382 Z M7.20845659,62.5039983 C7.81819357,62.5212633 8.44784019,62.7680432 8.95099963,63.2292736 C9.88800767,64.0881966 9.91016151,65.5550403 8.91332302,66.5518789 C8.80027994,66.6649208 8.13791134,67.0910088 7.31913165,67.4631826 C6.50035196,67.8353551 5.4999908,68.2186401 4.54048193,68.5581588 C3.79022677,68.8236336 3.71055286,68.8296148 3.10641613,69.0220512 C3.30780863,68.4136699 3.31748362,68.3317808 3.59150238,67.5738565 C3.93947013,66.6113935 4.32593385,65.6067953 4.69589787,64.7810784 C5.06586213,63.9553615 5.48102482,63.2759396 5.59071739,63.156275 C6.00890663,62.7000686 6.59871973,62.4867382 7.20845659,62.5039983 Z" id="paint"></path>
                </g>
            </g>
        </g>
    </g>
</svg>