<?xml version="1.0" encoding="UTF-8"?>
<svg width="24px" height="24px" viewBox="0 0 24 24" version="1.1" xmlns="http://www.w3.org/2000/svg" xmlns:xlink="http://www.w3.org/1999/xlink">
    <!-- Generator: Sketch 63.1 (92452) - https://sketch.com -->
    <title>icons/paint</title>
    <desc>Created with Sketch.</desc>
    <g id="icons/paint" stroke="none" stroke-width="1" fill="none" fill-rule="evenodd">
        <path d="M21.0781575,0.000860020759 C20.3380708,-0.016402496 19.5912674,0.226155999 18.9941697,0.733198966 C18.9933838,0.733982841 18.9925989,0.734767801 18.9918151,0.735553844 L7.69118808,10.3807646 C7.66681379,10.4010213 7.64324763,10.4222311 7.6205445,10.4443446 C7.1621773,10.9027116 6.93270892,11.5093206 6.92588204,12.118599 C5.78140177,12.1648441 4.66018009,12.6024052 3.8128525,13.5267612 C3.25943669,14.1304875 2.90646765,14.881835 2.49652604,15.7967773 C2.08658443,16.7117197 1.68419417,17.7576717 1.32384161,18.7543909 C0.603136834,20.7478306 0.0522561412,22.5503084 0.0522562618,22.5503084 C-0.0764866856,22.9733836 0.0366998756,23.4329887 0.347185041,23.7478956 C0.657670206,24.0628024 1.11562892,24.1824764 1.54048221,24.0597285 C1.54048221,24.0597285 3.34647001,23.540346 5.34581945,22.832883 C6.34549399,22.4791521 7.39568219,22.0792351 8.31756172,21.6601989 C9.23944124,21.2411627 10.007841,20.8670937 10.6181899,20.2567459 C11.4693979,19.4055367 11.9208022,18.3079226 12.0075139,17.1955211 C12.6164619,17.1868126 13.2222788,16.9544836 13.6794136,16.4961492 C13.7015271,16.473446 13.7227369,16.4498797 13.7429936,16.4255053 L23.3811397,5.10604018 C23.3835045,5.10369515 23.3858596,5.10134033 23.3882049,5.09897579 C24.2376719,4.08560191 24.1309247,2.73828164 23.5059439,1.63743752 C23.4874961,1.32963419 23.3518247,1.04059502 23.1268232,0.82974536 C23.126824,0.828960401 23.126824,0.828175441 23.1268232,0.827390482 C22.5536722,0.293456787 21.8182442,0.0181225375 21.0781575,0.000860020759 Z M11.5059448,10.2936382 L13.8230561,12.6107495 L11.9674827,14.7889275 L9.33012045,12.1515651 L11.5059448,10.2936382 Z M7.20845659,14.5039983 C7.81819357,14.5212633 8.44784019,14.7680432 8.95099963,15.2292736 C9.88800767,16.0881966 9.91016151,17.5550403 8.91332302,18.5518789 C8.80027994,18.6649208 8.13791134,19.0910088 7.31913165,19.4631826 C6.50035196,19.8353551 5.4999908,20.2186401 4.54048193,20.5581588 C3.79022677,20.8236336 3.71055286,20.8296148 3.10641613,21.0220512 C3.30780863,20.4136699 3.31748362,20.3317808 3.59150238,19.5738565 C3.93947013,18.6113935 4.32593385,17.6067953 4.69589787,16.7810784 C5.06586213,15.9553615 5.48102482,15.2759396 5.59071739,15.156275 C6.00890663,14.7000686 6.59871973,14.4867382 7.20845659,14.5039983 Z" id="paint" fill="#FFFFFF" fill-rule="nonzero"></path>
    </g>
</svg>