<?xml version="1.0" encoding="UTF-8"?>
<svg width="16px" height="25px" viewBox="0 0 16 25" version="1.1" xmlns="http://www.w3.org/2000/svg" xmlns:xlink="http://www.w3.org/1999/xlink">
    <!-- Generator: Sketch 63.1 (92452) - https://sketch.com -->
    <title>phone</title>
    <desc>Created with Sketch.</desc>
    <g id="Page-1" stroke="none" stroke-width="1" fill="none" fill-rule="evenodd">
        <g id="1.0-Home" transform="translate(-784.000000, -2400.000000)" fill="#FFFFFF" fill-rule="nonzero">
            <g id="Examples" transform="translate(382.000000, 1940.000000)">
                <g id="Group-4" transform="translate(210.000000, 316.666667)">
                    <path d="M204.910562,144.000087 L195.092381,144.000087 C193.586926,144.000087 192.365108,145.221905 192.365108,146.72736 L192.365108,165.272815 C192.365108,166.778269 193.586926,168.000087 195.092381,168.000087 L204.910562,168.000087 C206.416017,168.000087 207.637835,166.778269 207.637835,165.272815 L207.637835,146.72736 C207.637835,145.221905 206.416017,144.000087 204.910562,144.000087 Z M200.001471,165.954633 C199.322926,165.954633 198.774199,165.405905 198.774199,164.72736 C198.774199,164.048815 199.322926,163.500087 200.001471,163.500087 C200.680017,163.500087 201.228744,164.048815 201.228744,164.72736 C201.228744,165.405905 200.680017,165.954633 200.001471,165.954633 Z M205.456017,162.545542 L194.546926,162.545542 L194.546926,147.272815 L205.456017,147.272815 L205.456017,162.545542 Z" id="phone"></path>
                </g>
            </g>
        </g>
    </g>
</svg>