<?xml version="1.0" encoding="UTF-8"?>
<svg width="24px" height="24px" viewBox="0 0 24 24" version="1.1" xmlns="http://www.w3.org/2000/svg" xmlns:xlink="http://www.w3.org/1999/xlink">
    <!-- Generator: Sketch 63.1 (92452) - https://sketch.com -->
    <title>icons/phone</title>
    <desc>Created with Sketch.</desc>
    <g id="icons/phone" stroke="none" stroke-width="1" fill="none" fill-rule="evenodd">
        <path d="M17.3214286,0 L7.67857143,0 C6.2,0 5,1.22181818 5,2.72727273 L5,21.2727273 C5,22.7781818 6.2,24 7.67857143,24 L17.3214286,24 C18.8,24 20,22.7781818 20,21.2727273 L20,2.72727273 C20,1.22181818 18.8,0 17.3214286,0 Z M12.5,21.9545455 C11.8335714,21.9545455 11.2946429,21.4058182 11.2946429,20.7272727 C11.2946429,20.0487273 11.8335714,19.5 12.5,19.5 C13.1664286,19.5 13.7053571,20.0487273 13.7053571,20.7272727 C13.7053571,21.4058182 13.1664286,21.9545455 12.5,21.9545455 Z M17.8571429,18.5454545 L7.14285714,18.5454545 L7.14285714,3.27272727 L17.8571429,3.27272727 L17.8571429,18.5454545 Z" id="phone" fill="#FFFFFF" fill-rule="nonzero"></path>
    </g>
</svg>