<?xml version="1.0" encoding="UTF-8"?>
<svg width="56px" height="56px" viewBox="0 0 56 56" version="1.1" xmlns="http://www.w3.org/2000/svg" xmlns:xlink="http://www.w3.org/1999/xlink">
    <!-- Generator: Sketch 63.1 (92452) - https://sketch.com -->
    <title>icons/phone</title>
    <desc>Created with Sketch.</desc>
    <g id="Page-1" stroke="none" stroke-width="1" fill="none" fill-rule="evenodd">
        <g id="1.0-Desktop" transform="translate(-623.000000, -5262.000000)" fill="#FFFFFF">
            <g id="Phases" transform="translate(590.000000, 5108.000000)">
                <g id="Icons" transform="translate(29.000000, 78.000000)">
                    <g id="icons/phone" transform="translate(0.000000, 76.000000)">
                        <g id="icons8-phone" transform="translate(4.000000, 0.000000)">
                            <path d="M50.4622222,38.1111111 L42.6222222,37.2088889 C40.7244444,36.9911111 38.8577778,37.6444444 37.52,38.9822222 L31.7644444,44.7377778 C27.3497778,42.4977778 23.3457778,39.5764444 19.8862222,36.1137778 C16.4235556,32.6542222 13.5022222,28.6502222 11.2622222,24.2355556 L17.0177778,18.48 C18.3555556,17.1422222 19.0088889,15.2755556 18.7911111,13.3777778 L17.8888889,5.53777778 C17.5155556,2.39555556 14.8711111,0.0311111111 11.6977778,0.0311111111 L6.31555556,0.0311111111 C2.8,0.0311111111 -0.124444444,2.95555556 0.0933333333,6.47111111 C0.917777778,19.7524444 6.63911111,31.696 15.4715556,40.5284444 C24.304,49.3608889 36.2475556,55.0822222 49.5288889,55.9066667 C53.0444444,56.1244444 55.9688889,53.2 55.9688889,49.6844444 L55.9688889,44.3022222 C55.9688889,41.1288889 53.6044444,38.4844444 50.4622222,38.1111111 Z" id="Path" fill-rule="nonzero"></path>
                        </g>
                    </g>
                </g>
            </g>
        </g>
    </g>
</svg>