<?xml version="1.0" encoding="UTF-8"?>
<svg width="64px" height="64px" viewBox="0 0 64 64" version="1.1" xmlns="http://www.w3.org/2000/svg" xmlns:xlink="http://www.w3.org/1999/xlink">
    <!-- Generator: Sketch 63.1 (92452) - https://sketch.com -->
    <title>icons / plan</title>
    <desc>Created with Sketch.</desc>
    <g id="icons-/-plan" stroke="none" stroke-width="1" fill="none" fill-rule="evenodd">
        <path d="M27.5555556,5 C28.8403931,5 29.9460935,5.41867681 30.8572665,6.10629224 C31.6609112,6.71276161 32.312101,7.53473005 32.789081,8.46666667 L32.789081,8.46666667 L48.1111111,8.46666667 L48.1111111,30.6305913 C50.6631869,31.7805548 52.8397941,33.5996293 54.3996735,35.8530305 C56.0406156,38.2235347 57,41.0738878 57,44.1333333 C57,48.2244793 55.286564,51.9455812 52.5203224,54.6426668 C49.7633861,57.3306796 45.96096,59 41.7777778,59 C37.1749813,59 33.0387138,56.975518 30.2435309,53.8 L30.2435309,53.8 L7,53.8 L7,8.46666667 L22.3220301,8.46666667 C22.7990102,7.53473005 23.4501999,6.71276161 24.2538446,6.10629224 C25.1650176,5.41867681 26.270718,5 27.5555556,5 L27.5555556,5 Z M41.5,35 C38.8875,35 36.5131369,36.0698267 34.7914818,37.7914818 C33.0698267,39.5131369 32,41.8875 32,44.5 C32,47.1125 33.0698267,49.4868631 34.7914818,51.2085182 C36.5131369,52.9301733 38.8875,54 41.5,54 C44.1125,54 46.4868631,52.9301733 48.2085182,51.2085182 C49.9301733,49.4868631 51,47.1125 51,44.5 C51,41.8875 49.9301733,39.5131369 48.2085182,37.7914818 C46.4868631,36.0698267 44.1125,35 41.5,35 Z M45,36 L45,46.5666465 L39.6459695,51.3399684 L35.4984882,47.6391897 L39.2154174,44.3187788 L39.2154174,36 L45,36 Z M43,14 L39.6666667,14 L39.6666667,20.8571429 L16.3333333,20.8571429 L16.3333333,14 L13,14 L13,48 L27.624405,48 C27.3143668,46.992011 27.1128372,45.9406225 27.0355718,44.8571429 L23.4444444,44.8571429 L23.4444444,39.4285714 L27.7275057,39.4285714 C27.8873178,38.9409274 28.0722435,38.4643454 28.2815275,38 L23.4444444,38 L23.4444444,32.5714286 L32.5011754,32.5714286 C33.23404,31.9798227 34.0243753,31.4525357 34.862764,30.9994281 L23,31 L23,26 L39,26 L39.0004924,29.4789238 C40.0391517,29.2590027 41.1169996,29.1428571 42.2222222,29.1428571 C42.4835967,29.1428571 42.7426964,29.151382 43,29.1665929 L43,14 Z M22,40 L22,45 L16,45 L16,40 L22,40 Z M22,33 L22,38 L16,38 L16,33 L22,33 Z M22,26 L22,31 L16,31 L16,26 L22,26 Z M28,10 C27.7881137,10 27.5970385,10.0755731 27.4613058,10.2113058 C27.3255731,10.3470385 27.25,10.5381137 27.25,10.75 L27.25,13.5 L22,13.5 L22,15 L34,15 L34,13.5 L28.75,13.5 L28.75,10.75 C28.75,10.5381137 28.6744269,10.3470385 28.5386942,10.2113058 C28.4029615,10.0755731 28.2118863,10 28,10 Z" id="Shape" stroke="#FFFFFF" stroke-width="2" fill="#4A4A4A" fill-rule="nonzero"></path>
    </g>
</svg>