<?xml version="1.0" encoding="UTF-8"?>
<svg width="64px" height="28px" viewBox="0 0 64 28" version="1.1" xmlns="http://www.w3.org/2000/svg" xmlns:xlink="http://www.w3.org/1999/xlink">
    <!-- Generator: Sketch 63.1 (92452) - https://sketch.com -->
    <title>icons/race_car</title>
    <desc>Created with Sketch.</desc>
    <g id="Page-1" stroke="none" stroke-width="1" fill="none" fill-rule="evenodd">
        <g id="1.0-Desktop" transform="translate(-1295.000000, -5291.000000)" fill="#FFFFFF">
            <g id="Phases" transform="translate(590.000000, 5108.000000)">
                <g id="Icons" transform="translate(29.000000, 78.000000)">
                    <g id="icons/race_car" transform="translate(676.000000, 87.000000)">
                        <g id="icons8-f1_car" transform="translate(0.000000, 18.000000)">
                            <path d="M2.13333333,0 C0.955125867,0 0,0.955125867 0,2.13333333 C0,2.36874694 0.0398812994,2.60246113 0.116666667,2.82500053 L0.141666667,2.9 C0.143042686,2.90417068 0.144431582,2.9083371 0.145833333,2.9124992 L2.13333333,8.53333333 L2.13333333,17.0666667 C2.13446566,17.6412293 2.36731098,18.1910448 2.77916672,18.5916672 L2.77916672,18.5958336 L2.81666667,18.6291669 C2.85168422,18.6623268 2.88781612,18.6942897 2.92500011,18.7250005 L6.63333333,22.0208341 C7.43364501,25.2791787 10.3748864,27.7333333 13.8666667,27.7333333 C15.8810575,27.7333333 17.7141361,26.9141184 19.0625001,25.6 L32,25.6 L44.9374997,25.6 C46.2858645,26.9141184 48.1189419,27.7333333 50.1333333,27.7333333 C52.1477248,27.7333333 53.9808021,26.9141184 55.3291669,25.6 L57.6,25.6 C58.1698526,25.5999269 58.7159901,25.3718696 59.1166677,24.9666667 L63.3541675,20.7291669 C63.3711089,20.7127773 63.3877775,20.696108 63.4041664,20.6791659 L63.4041664,20.6749995 C63.7855201,20.2785424 63.998988,19.750098 64,19.2 C64,18.3245078 63.4643374,17.5381358 62.6500011,17.2166656 C60.9607765,16.3986475 58.3692053,15.6157419 55.3333333,14.9374997 C53.9845867,13.6209749 52.1498176,12.8 50.1333333,12.8 C49.0147563,12.8 47.9603221,13.0685099 47.0041664,13.5166677 C43.4188885,13.0716885 39.7025323,12.8 36.2666667,12.8 L32,12.8 L32,8.53333333 C32,7.35512587 31.0448741,6.4 29.8666667,6.4 C29.8166336,6.39962936 29.766603,6.40101902 29.7166677,6.4041664 C21.233888,6.42900267 12.8,8.53333333 12.8,8.53333333 L12.8,2.13333333 C12.8,0.955125867 11.8448741,0 10.6666667,0 L2.13333333,0 Z M13.8666667,17.0666667 C15.6592465,17.0666667 17.0666667,18.4740864 17.0666667,20.2666667 C17.0666667,22.0592469 15.6592465,23.4666667 13.8666667,23.4666667 C12.0740868,23.4666667 10.6666667,22.0592469 10.6666667,20.2666667 C10.6666667,18.4740864 12.0740868,17.0666667 13.8666667,17.0666667 Z M50.1333333,17.0666667 C51.9259136,17.0666667 53.3333333,18.4740864 53.3333333,20.2666667 C53.3333333,22.0592469 51.9259136,23.4666667 50.1333333,23.4666667 C48.3407531,23.4666667 46.9333333,22.0592469 46.9333333,20.2666667 C46.9333333,18.4740864 48.3407531,17.0666667 50.1333333,17.0666667 Z" id="Shape" fill-rule="nonzero"></path>
                        </g>
                    </g>
                </g>
            </g>
        </g>
    </g>
</svg>