<?xml version="1.0" encoding="UTF-8"?>
<svg width="64px" height="64px" viewBox="0 0 64 64" version="1.1" xmlns="http://www.w3.org/2000/svg" xmlns:xlink="http://www.w3.org/1999/xlink">
    <!-- Generator: Sketch 63.1 (92452) - https://sketch.com -->
    <title>icons / retro</title>
    <desc>Created with Sketch.</desc>
    <g id="icons-/-retro" stroke="none" stroke-width="1" fill="none" fill-rule="evenodd">
        <path d="M32,17 C36.6201721,17 40.9310294,17.8816487 44.6213651,19.4 L44.6213651,19.4 L58.3881327,19.4 C57.4086559,20.2683633 56.7740538,21.0331198 56.7740538,21.0331198 C56.7740538,21.0331198 54.4692005,23.8106895 53.9874278,26.5508441 C55.8503159,28.7969125 57,31.6574783 57,34.8 C57,38.3902347 55.5450895,41.6402182 53.1926539,43.9926539 C50.8402182,46.3450895 47.5902347,47.8 44,47.8 C40.7738344,47.8 37.8190196,46.6240239 35.5426589,44.6715547 L35.5426589,44.6715547 L32,48.2142136 L28.4573411,44.6715547 C26.1809804,46.6240239 23.2261656,47.8 20,47.8 C16.4097653,47.8 13.1597818,46.3450895 10.8073461,43.9926539 C8.45491046,41.6402182 7,38.3902347 7,34.8 C7,31.6572764 8.14983403,28.7965449 10.0126083,26.5501259 C9.55886305,23.9714976 7.49076454,21.3597213 7.24902889,21.0613761 L7.22594616,21.0331198 C7.22594616,21.0331198 6.59135051,20.2683711 5.61191275,19.4 L5.61191275,19.4 L19.3509759,19.4 C23.0505082,17.8816416 27.3705983,17 32,17 Z M20,28.6 C18.2885417,28.6 16.7385979,29.2943657 15.6164818,30.4164818 C14.4943657,31.5385979 13.8,33.0885417 13.8,34.8 C13.8,36.5114583 14.4943657,38.0614021 15.6164818,39.1835182 C16.7385979,40.3056343 18.2885417,41 20,41 C21.7114583,41 23.2614021,40.3056343 24.3835182,39.1835182 C25.5056343,38.0614021 26.2,36.5114583 26.2,34.8 C26.2,33.0885417 25.5056343,31.5385979 24.3835182,30.4164818 C23.2614021,29.2943657 21.7114583,28.6 20,28.6 Z M44,28.6 C42.2885417,28.6 40.7385979,29.2943657 39.6164818,30.4164818 C38.4943657,31.5385979 37.8,33.0885417 37.8,34.8 C37.8,36.5114583 38.4943657,38.0614021 39.6164818,39.1835182 C40.7385979,40.3056343 42.2885417,41 44,41 C45.7114583,41 47.2614021,40.3056343 48.3835182,39.1835182 C49.5056343,38.0614021 50.2,36.5114583 50.2,34.8 C50.2,33.0885417 49.5056343,31.5385979 48.3835182,30.4164818 C47.2614021,29.2943657 45.7114583,28.6 44,28.6 Z M20,31.4 C20.9363277,31.4 21.786747,31.7811277 22.4028097,32.3971903 C23.0188723,33.013253 23.4,33.8636723 23.4,34.8 C23.4,35.7363277 23.0188723,36.586747 22.4028097,37.2028097 C21.786747,37.8188723 20.9363277,38.2 20,38.2 C19.0636723,38.2 18.213253,37.8188723 17.5971903,37.2028097 C16.9811277,36.586747 16.6,35.7363277 16.6,34.8 C16.6,33.8636723 16.9811277,33.013253 17.5971903,32.3971903 C18.213253,31.7811277 19.0636723,31.4 20,31.4 Z M44,31.4 C44.9363277,31.4 45.786747,31.7811277 46.4028097,32.3971903 C47.0188723,33.013253 47.4,33.8636723 47.4,34.8 C47.4,35.7363277 47.0188723,36.586747 46.4028097,37.2028097 C45.786747,37.8188723 44.9363277,38.2 44,38.2 C43.0636723,38.2 42.213253,37.8188723 41.5971903,37.2028097 C40.9811277,36.586747 40.6,35.7363277 40.6,34.8 C40.6,33.8636723 40.9811277,33.013253 41.5971903,32.3971903 C42.213253,31.7811277 43.0636723,31.4 44,31.4 Z M32,23.8 C30.4606343,23.8 28.946222,23.9283251 27.4814,24.1693745 C28.8066857,25.1041386 29.950019,26.2799495 30.8465084,27.6332929 C31.2958105,28.3115608 31.6831932,29.0343783 32.0005596,29.7937746 C32.3142513,29.0453426 32.6959969,28.3319814 33.1381306,27.6619438 C34.0327946,26.3061127 35.1750706,25.1278494 36.5002125,24.1904292 C35.0443565,23.9399756 33.536531,23.8 32,23.8 Z" id="Shape" stroke="#FFFFFF" stroke-width="2" fill="#4A4A4A" fill-rule="nonzero"></path>
    </g>
</svg>