<?xml version="1.0" encoding="UTF-8"?>
<svg width="56px" height="56px" viewBox="0 0 56 56" version="1.1" xmlns="http://www.w3.org/2000/svg" xmlns:xlink="http://www.w3.org/1999/xlink">
    <!-- Generator: Sketch 63.1 (92452) - https://sketch.com -->
    <title>icons/rocket</title>
    <desc>Created with Sketch.</desc>
    <g id="Page-1" stroke="none" stroke-width="1" fill="none" fill-rule="evenodd">
        <g id="1.0-Desktop" transform="translate(-1420.000000, -5245.000000)" fill="#FFFFFF">
            <g id="Phases" transform="translate(590.000000, 5108.000000)">
                <g id="Icons" transform="translate(29.000000, 78.000000)">
                    <g id="icons/rocket" transform="translate(797.000000, 55.000000)">
                        <g id="icons8-rocket" transform="translate(4.000000, 4.000000)">
                            <path d="M51.4007816,0.021875 C51.0127632,-0.01360632 50.6205,-0.00608132 50.225,0.04921868 C43.8195268,0.94785404 30.0578068,2.92784688 15.9578126,19.6 L8.60781264,19.6 L1.115625,27.3984368 C0.074025,28.4400368 -0.237475,29.9942132 0.328125,31.3578132 C0.890925,32.7214132 2.21033736,33.6 3.68593736,33.6 L10.5710937,33.6 C9.64696432,34.6477152 9.17616588,35.7626668 8.70078132,36.9960948 C8.17426876,38.3621756 7.73588284,39.8495804 7.371875,41.2507816 C6.6438596,44.0531812 6.2125,46.55 6.2125,46.55 L5.51796868,50.4820316 L9.45,49.7875 C9.45,49.7875 11.9468177,49.3561376 14.7492187,48.6281264 C16.1504193,48.264118 17.6378238,47.8257304 19.0039063,47.2992184 C20.2373332,46.8238344 21.3522848,46.353034 22.4,45.4289052 L22.4,52.3140632 C22.4,53.7896632 23.2785868,55.1118736 24.6421868,55.6718736 C25.1041868,55.8650764 25.5853948,55.9507816 26.0585948,55.9507816 C26.9853948,55.9507816 27.8813948,55.6073448 28.5085948,54.9773448 L36.4,47.7859368 L36.4,40.0421868 C53.065264,25.9438984 55.0497836,12.1802369 55.9507816,5.775 C56.1719816,4.1846 55.6519684,2.6215 54.5179684,1.4875 C53.6653684,0.6349 52.5648368,0.12831868 51.4007816,0.021875 Z M40.6,11.2 C42.9184,11.2 44.8,13.0816 44.8,15.4 C44.8,17.7184 42.9184,19.6 40.6,19.6 C38.2816,19.6 36.4,17.7184 36.4,15.4 C36.4,13.0816 38.2816,11.2 40.6,11.2 Z M29.4,22.4 C31.7184,22.4 33.6,24.2816 33.6,26.6 C33.6,28.9184 31.7184,30.8 29.4,30.8 C27.0816,30.8 25.2,28.9184 25.2,26.6 C25.2,24.2816 27.0816,22.4 29.4,22.4 Z M15.79375,36.2468736 L19.753125,40.20625 L18.7796874,41.1796868 C18.8304208,41.1289508 18.0356428,41.6719884 16.9859374,42.0765632 C15.9362325,42.481138 14.6114307,42.8723792 13.3382813,43.2031264 C12.9741338,43.2977356 12.9921338,43.272502 12.64375,43.35625 C12.7274896,43.0078656 12.702277,43.0258668 12.796875,42.6617184 C13.1276172,41.3885696 13.5188626,40.0637664 13.9234374,39.0140632 C14.3280124,37.9643572 14.8710464,37.1695772 14.8203126,37.2203132 L15.79375,36.2468736 Z" id="Shape" fill-rule="nonzero"></path>
                        </g>
                    </g>
                </g>
            </g>
        </g>
    </g>
</svg>