<?xml version="1.0" encoding="UTF-8"?>
<svg width="24px" height="24px" viewBox="0 0 24 24" version="1.1" xmlns="http://www.w3.org/2000/svg" xmlns:xlink="http://www.w3.org/1999/xlink">
    <!-- Generator: Sketch 63.1 (92452) - https://sketch.com -->
    <title>icons/server</title>
    <desc>Created with Sketch.</desc>
    <g id="icons/server" stroke="none" stroke-width="1" fill="none" fill-rule="evenodd">
        <path d="M7.14285714,0 C5.95892857,0 5,0.976363636 5,2.18181818 L5,21.8181818 C5,23.0236364 5.95892857,24 7.14285714,24 L17.8571429,24 C19.0410714,24 20,23.0236364 20,21.8181818 L20,2.18181818 C20,0.976363636 19.0410714,0 17.8571429,0 L7.14285714,0 Z M8.21428571,2.18181818 L16.7857143,2.18181818 C17.3771429,2.18181818 17.8571429,2.67054545 17.8571429,3.27272727 L17.8571429,12 C17.8571429,12.6021818 17.3771429,13.0909091 16.7857143,13.0909091 L8.21428571,13.0909091 C7.62285714,13.0909091 7.14285714,12.6021818 7.14285714,12 L7.14285714,3.27272727 C7.14285714,2.67054545 7.62285714,2.18181818 8.21428571,2.18181818 Z M10.3571429,4.36363636 C9.76571429,4.36363636 9.28571429,4.85236364 9.28571429,5.45454545 C9.28571429,6.05672727 9.76571429,6.54545455 10.3571429,6.54545455 L14.6428571,6.54545455 C15.2342857,6.54545455 15.7142857,6.05672727 15.7142857,5.45454545 C15.7142857,4.85236364 15.2342857,4.36363636 14.6428571,4.36363636 L10.3571429,4.36363636 Z M10.3571429,8.72727273 C9.76571429,8.72727273 9.28571429,9.216 9.28571429,9.81818182 C9.28571429,10.4203636 9.76571429,10.9090909 10.3571429,10.9090909 L14.6428571,10.9090909 C15.2342857,10.9090909 15.7142857,10.4203636 15.7142857,9.81818182 C15.7142857,9.216 15.2342857,8.72727273 14.6428571,8.72727273 L10.3571429,8.72727273 Z M12.5,16.9090909 C13.3871429,16.9090909 14.1071429,17.6421818 14.1071429,18.5454545 C14.1071429,19.4487273 13.3871429,20.1818182 12.5,20.1818182 C11.6128571,20.1818182 10.8928571,19.4487273 10.8928571,18.5454545 C10.8928571,17.6421818 11.6128571,16.9090909 12.5,16.9090909 Z" id="server" fill="#FFFFFF" fill-rule="nonzero"></path>
    </g>
</svg>