<?xml version="1.0" encoding="UTF-8"?>
<svg width="16px" height="25px" viewBox="0 0 16 25" version="1.1" xmlns="http://www.w3.org/2000/svg" xmlns:xlink="http://www.w3.org/1999/xlink">
    <!-- Generator: Sketch 63.1 (92452) - https://sketch.com -->
    <title>server</title>
    <desc>Created with Sketch.</desc>
    <g id="Page-1" stroke="none" stroke-width="1" fill="none" fill-rule="evenodd">
        <g id="1.0-Home" transform="translate(-784.000000, -2304.000000)" fill="#FFFFFF" fill-rule="nonzero">
            <g id="Examples" transform="translate(382.000000, 1940.000000)">
                <g id="Group-4" transform="translate(210.000000, 316.666667)">
                    <path d="M194.546926,48 C193.341471,48 192.365108,48.9763636 192.365108,50.1818182 L192.365108,69.8181818 C192.365108,71.0236364 193.341471,72 194.546926,72 L205.456017,72 C206.661471,72 207.637835,71.0236364 207.637835,69.8181818 L207.637835,50.1818182 C207.637835,48.9763636 206.661471,48 205.456017,48 L194.546926,48 Z M195.637835,50.1818182 L204.365108,50.1818182 C204.96729,50.1818182 205.456017,50.6705455 205.456017,51.2727273 L205.456017,60 C205.456017,60.6021818 204.96729,61.0909091 204.365108,61.0909091 L195.637835,61.0909091 C195.035653,61.0909091 194.546926,60.6021818 194.546926,60 L194.546926,51.2727273 C194.546926,50.6705455 195.035653,50.1818182 195.637835,50.1818182 Z M197.819653,52.3636364 C197.217471,52.3636364 196.728744,52.8523636 196.728744,53.4545455 C196.728744,54.0567273 197.217471,54.5454545 197.819653,54.5454545 L202.18329,54.5454545 C202.785471,54.5454545 203.274199,54.0567273 203.274199,53.4545455 C203.274199,52.8523636 202.785471,52.3636364 202.18329,52.3636364 L197.819653,52.3636364 Z M197.819653,56.7272727 C197.217471,56.7272727 196.728744,57.216 196.728744,57.8181818 C196.728744,58.4203636 197.217471,58.9090909 197.819653,58.9090909 L202.18329,58.9090909 C202.785471,58.9090909 203.274199,58.4203636 203.274199,57.8181818 C203.274199,57.216 202.785471,56.7272727 202.18329,56.7272727 L197.819653,56.7272727 Z M200.001471,64.9090909 C200.904744,64.9090909 201.637835,65.6421818 201.637835,66.5454545 C201.637835,67.4487273 200.904744,68.1818182 200.001471,68.1818182 C199.098199,68.1818182 198.365108,67.4487273 198.365108,66.5454545 C198.365108,65.6421818 199.098199,64.9090909 200.001471,64.9090909 Z" id="server"></path>
                </g>
            </g>
        </g>
    </g>
</svg>