<?xml version="1.0" encoding="UTF-8"?>
<svg width="52px" height="41px" viewBox="0 0 52 41" version="1.1" xmlns="http://www.w3.org/2000/svg" xmlns:xlink="http://www.w3.org/1999/xlink">
    <!-- Generator: Sketch 63.1 (92452) - https://sketch.com -->
    <title>smart</title>
    <desc>Created with Sketch.</desc>
    <g id="Page-1" stroke="none" stroke-width="1" fill="none" fill-rule="evenodd">
        <g id="1.0-Desktop" transform="translate(-1338.000000, -3367.000000)" fill="#B92815" fill-rule="nonzero" stroke="#FFFFFF" stroke-width="2">
            <g id="Why-us" transform="translate(590.000000, 3262.000000)">
                <path d="M772.475628,106.091839 L750.870243,112.73965 C750.312296,112.912971 749.845379,113.256168 749.517305,113.701622 C749.189231,114.147076 749,114.694787 749,115.276339 C749,115.85789 749.189231,116.405601 749.517305,116.851055 C749.845379,117.29651 750.312296,117.639707 750.867667,117.812231 L772.388723,124.434098 C772.89809,124.591298 773.443878,124.591298 773.954052,124.43385 L792.034197,118.870729 L792.034197,131.76024 C791.027845,132.546918 790.378929,133.762598 790.378929,135.139551 C790.378929,137.110471 793.86671,142.329019 793.86671,142.329019 C793.86671,142.329019 794.1892,142.811541 794.689258,143.504332 C795.189599,142.811735 795.512219,142.329019 795.512219,142.329019 C795.512219,142.329019 799,137.110471 799,135.139551 C799,133.762552 798.351041,132.546837 797.344632,131.760162 L797.341498,115.21627 C797.331834,114.563569 797.085741,113.962832 796.680539,113.501996 C796.295049,113.063579 795.765553,112.751781 795.158629,112.642321 L773.953204,106.118566 C773.723022,106.047143 773.487455,105.969421 772.475628,106.091839 Z M787.413126,121.665363 L774.338244,125.687577 C773.957316,125.805701 773.562923,125.863213 773.170984,125.863213 C772.779046,125.863213 772.384655,125.805703 772.005884,125.688244 L758.923438,121.663701 L758.97461,134.518222 C759.500062,134.481659 759.841356,134.482641 759.95279,134.484615 C760.497667,134.494268 766.533922,134.72229 772.570984,139.250087 C772.775487,139.403464 772.975252,139.558221 773.170374,139.71411 C773.366012,139.55877 773.56612,139.403735 773.770984,139.250087 C780.092055,134.509284 786.413126,134.484284 786.413126,134.484284 C786.413126,134.484284 786.775171,134.482852 787.413126,134.54497 L787.413126,121.665363 Z" id="smart"></path>
            </g>
        </g>
    </g>
</svg>