<?xml version="1.0" encoding="UTF-8"?>
<svg width="52px" height="44px" viewBox="0 0 52 44" version="1.1" xmlns="http://www.w3.org/2000/svg" xmlns:xlink="http://www.w3.org/1999/xlink">
    <!-- Generator: Sketch 63.1 (92452) - https://sketch.com -->
    <title>stack</title>
    <desc>Created with Sketch.</desc>
    <g id="Page-1" stroke="none" stroke-width="1" fill="none" fill-rule="evenodd">
        <g id="1.0-Desktop" transform="translate(-1338.000000, -3598.000000)" fill="#F24C1D" fill-rule="nonzero" stroke="#FFFFFF" stroke-width="2">
            <g id="Why-us" transform="translate(590.000000, 3262.000000)">
                <path d="M752.4,366.560622 C771.759639,366.560622 782.916536,366.764218 789.344116,367.102511 C793.045234,367.297307 795.209723,367.541207 796.475353,367.811454 C797.368076,368.002075 797.886412,368.228245 798.200162,368.440229 C798.912797,368.92172 799,369.429416 799,369.960622 L799,369.960622 L799,374.760622 C799,375.699022 798.619334,376.549102 798.003907,377.164529 C797.388479,377.779956 796.5384,378.160622 795.6,378.160622 L795.6,378.160622 L752.4,378.160622 C751.4616,378.160622 750.611521,377.779956 749.996093,377.164529 C749.380666,376.549102 749,375.699022 749,374.760622 L749,374.760622 L749,369.960622 C749,369.022222 749.380666,368.172143 749.996093,367.556715 C750.611521,366.941288 751.4616,366.560622 752.4,366.560622 Z M757.2,370.960622 C756.8136,370.960622 756.463679,371.117556 756.210307,371.370929 C755.956934,371.624302 755.8,371.974222 755.8,372.360622 C755.8,372.747022 755.956934,373.096943 756.210307,373.350315 C756.463679,373.603688 756.8136,373.760622 757.2,373.760622 C757.5864,373.760622 757.936321,373.603688 758.189693,373.350315 C758.443066,373.096943 758.6,372.747022 758.6,372.360622 C758.6,371.974222 758.443066,371.624302 758.189693,371.370929 C757.936321,371.117556 757.5864,370.960622 757.2,370.960622 Z M752.4,352.160622 C771.759639,352.160622 782.916536,352.364218 789.344116,352.702511 C793.045234,352.897307 795.209723,353.141207 796.475353,353.411454 C797.368076,353.602075 797.886412,353.828245 798.200162,354.040229 C798.912797,354.52172 799,355.029416 799,355.560622 L799,355.560622 L799,360.360622 C799,361.299022 798.619334,362.149102 798.003907,362.764529 C797.388479,363.379956 796.5384,363.760622 795.6,363.760622 L795.6,363.760622 L752.4,363.760622 C751.4616,363.760622 750.611521,363.379956 749.996093,362.764529 C749.380666,362.149102 749,361.299022 749,360.360622 L749,360.360622 L749,355.560622 C749,354.622222 749.380666,353.772143 749.996093,353.156715 C750.611521,352.541288 751.4616,352.160622 752.4,352.160622 Z M757.2,356.560622 C756.8136,356.560622 756.463679,356.717556 756.210307,356.970929 C755.956934,357.224302 755.8,357.574222 755.8,357.960622 C755.8,358.347022 755.956934,358.696943 756.210307,358.950315 C756.463679,359.203688 756.8136,359.360622 757.2,359.360622 C757.5864,359.360622 757.936321,359.203688 758.189693,358.950315 C758.443066,358.696943 758.6,358.347022 758.6,357.960622 C758.6,357.574222 758.443066,357.224302 758.189693,356.970929 C757.936321,356.717556 757.5864,356.560622 757.2,356.560622 Z M752.4,337.760622 C771.759639,337.760622 782.916536,337.964218 789.344116,338.302511 C793.045234,338.497307 795.209723,338.741207 796.475353,339.011454 C797.368076,339.202075 797.886412,339.428245 798.200162,339.640229 C798.912797,340.12172 799,340.629416 799,341.160622 L799,341.160622 L799,345.960622 C799,346.899022 798.619334,347.749102 798.003907,348.364529 C797.388479,348.979956 796.5384,349.360622 795.6,349.360622 L795.6,349.360622 L752.4,349.360622 C751.4616,349.360622 750.611521,348.979956 749.996093,348.364529 C749.380666,347.749102 749,346.899022 749,345.960622 L749,345.960622 L749,341.160622 C749,340.222222 749.380666,339.372143 749.996093,338.756715 C750.611521,338.141288 751.4616,337.760622 752.4,337.760622 Z M757.2,342.160622 C756.8136,342.160622 756.463679,342.317556 756.210307,342.570929 C755.956934,342.824302 755.8,343.174222 755.8,343.560622 C755.8,343.947022 755.956934,344.296943 756.210307,344.550315 C756.463679,344.803688 756.8136,344.960622 757.2,344.960622 C757.5864,344.960622 757.936321,344.803688 758.189693,344.550315 C758.443066,344.296943 758.6,343.947022 758.6,343.560622 C758.6,343.174222 758.443066,342.824302 758.189693,342.570929 C757.936321,342.317556 757.5864,342.160622 757.2,342.160622 Z" id="stack"></path>
            </g>
        </g>
    </g>
</svg>