<?xml version="1.0" encoding="UTF-8"?>
<svg width="64px" height="64px" viewBox="0 0 64 64" version="1.1" xmlns="http://www.w3.org/2000/svg" xmlns:xlink="http://www.w3.org/1999/xlink">
    <!-- Generator: Sketch 63.1 (92452) - https://sketch.com -->
    <title>icons / status</title>
    <desc>Created with Sketch.</desc>
    <g id="icons-/-status" stroke="none" stroke-width="1" fill="none" fill-rule="evenodd">
        <path d="M22.3333333,5 L22.3333333,10.3 L41.6666667,10.3 L41.6666667,5 L49,5 L49,10.3 L50.6666667,10.3 C52.3966439,10.3 53.9806365,11.0109939 55.1312829,12.1544488 C56.2842217,13.3001817 57,14.8777273 57,16.6 L57,16.6 L57,53.7 C57,55.4222729 56.2842217,56.9998184 55.131283,58.1455513 C53.9806366,59.2890062 52.3966439,60 50.6666667,60 L50.6666667,60 L13.3333333,60 C11.6033563,60 10.0193636,59.2890061 8.86871705,58.1455512 C7.71577833,56.9998183 7,55.4222728 7,53.7 L7,53.7 L7,16.6 C7,14.8777274 7.71577836,13.3001819 8.86871718,12.1544489 C10.0193637,11.0109939 11.6033564,10.3 13.3333333,10.3 L13.3333333,10.3 L15,10.3 L15,5 L22.3333333,5 Z M50,26 L15,26 L15,53 L50,53 L50,26 Z M39.2821057,28.5954368 L44.4237021,33.6681207 L30.5058661,47.4051238 L20.5763682,37.6027293 L25.7177199,32.5302853 L30.5057613,37.2490293 L39.2821057,28.5954368 Z" id="Shape-Copy-6" stroke="#FFFFFF" stroke-width="2" fill="#4A4A4A" fill-rule="nonzero"></path>
    </g>
</svg>