<?xml version="1.0" encoding="UTF-8"?>
<svg width="56px" height="47px" viewBox="0 0 56 47" version="1.1" xmlns="http://www.w3.org/2000/svg" xmlns:xlink="http://www.w3.org/1999/xlink">
    <!-- Generator: Sketch 63.1 (92452) - https://sketch.com -->
    <title>icons/storm</title>
    <desc>Created with Sketch.</desc>
    <g id="Page-1" stroke="none" stroke-width="1" fill="none" fill-rule="evenodd">
        <g id="1.0-Desktop" transform="translate(-736.000000, -5297.000000)" fill="#FFFFFF">
            <g id="Phases" transform="translate(590.000000, 5108.000000)">
                <g id="Icons" transform="translate(29.000000, 78.000000)">
                    <g id="icons/storm" transform="translate(113.000000, 111.000000)">
                        <g id="icons8-storm" transform="translate(4.000000, 0.000000)">
                            <path d="M28,0 C21.252,0 15.4059792,3.8223647 12.4869792,9.41536447 C4.8523125,10.236698 -0.943395833,17.1926207 0.127604167,25.251954 C1.04357759,32.1515227 7.19211267,37.1317217 14.1230469,37.3151053 C13.8463346,35.8505513 14.1114304,34.32016 14.9433594,33.0722653 L22.6725261,21.1321623 C23.7015263,19.5874957 25.400704,18.6621097 27.220704,18.6621097 C30.223704,18.6621097 32.6621097,21.148568 32.6621097,24.2402347 L32.6302083,28 L33.8424473,28 C36.0054473,28 37.972739,29.1726097 38.9830723,31.057943 C39.9840723,32.9292763 39.8708707,35.194943 38.7415373,36.8912763 L38.4589847,37.3333333 L43.8776053,37.3333333 C49.8696053,37.3333333 55.229636,33.0135307 55.9179693,27.0611973 C56.706636,20.275864 51.6634277,14.546364 45.162761,14.0820307 C43.573761,6.05303113 36.4956667,0 28,0 Z M14.1230469,37.3151053 C14.1241793,37.3210973 14.1218961,37.3273413 14.1230469,37.3333333 L14.5149739,37.3333333 C14.3830822,37.3333333 14.2544047,37.3185797 14.1230469,37.3151053 Z M26.9791667,23.3743487 C26.8214473,23.4296557 26.6743377,23.542204 26.5553377,23.720704 L18.8580728,35.6106777 C18.3470728,36.3783443 18.8956614,37.40625 19.8196614,37.40625 L25.6621097,37.40625 L25.6621097,45.8007807 C25.6621097,46.657114 26.776603,46.993296 27.2526053,46.279296 L34.799478,34.3893223 C35.310478,33.6216557 34.7664473,32.6666667 33.8424473,32.6666667 L27.995443,32.6666667 L27.995443,24.1992193 C27.995443,23.5569693 27.4523223,23.2084277 26.9791667,23.3743487 Z" id="Shape" fill-rule="nonzero"></path>
                        </g>
                    </g>
                </g>
            </g>
        </g>
    </g>
</svg>