<?xml version="1.0" encoding="UTF-8"?>
<svg width="24px" height="24px" viewBox="0 0 24 24" version="1.1" xmlns="http://www.w3.org/2000/svg" xmlns:xlink="http://www.w3.org/1999/xlink">
    <!-- Generator: Sketch 63.1 (92452) - https://sketch.com -->
    <title>icons/think</title>
    <desc>Created with Sketch.</desc>
    <g id="icons/think" stroke="none" stroke-width="1" fill="none" fill-rule="evenodd">
        <path d="M12.6,0 C10.5478404,0 8.97811164,1.30798524 8.06953128,3.00468744 C7.40145804,2.74247544 6.76481376,2.4 6,2.4 C2.70058068,2.4 0,5.10058068 0,8.4 C0,10.9967232 1.700421,13.148094 4.02421872,13.9757808 C4.85190552,16.2995796 7.0032768,18 9.6,18 C10.6228272,18 11.5472472,17.6775444 12.3843744,17.2265628 C13.1626308,17.6738232 14.0287704,18 15,18 C16.9331076,18 18.51537,16.8768048 19.4671872,15.3398436 C22.0542336,14.6736624 24,12.3847296 24,9.6 C24,6.30058068 21.2994192,3.6 18,3.6 C17.8521912,3.6 17.739912,3.64658868 17.5992192,3.65859372 C16.8645552,1.5565374 14.9470296,0 12.6,0 Z M12.6,2.4 C14.1659952,2.4 15.4120992,3.57749184 15.5648436,5.10234372 L15.7054692,6.50625 L17.0695308,6.140625 C17.4050712,6.050676 17.7080004,6 18,6 C20.0021808,6 21.6,7.59781932 21.6,9.6 C21.6,11.3869608 20.3132772,12.8387352 18.61875,13.1343744 L17.9929692,13.2445308 L17.7304692,13.8257808 C17.2600392,14.8713672 16.2276372,15.6 15,15.6 C14.3012796,15.6 13.6765248,15.3556068 13.1507808,14.9390628 L12.4382808,14.3742192 L11.7023436,14.9085936 C11.0994744,15.3449652 10.38636,15.6 9.6,15.6 C7.87850544,15.6 6.46365672,14.4033144 6.09843744,12.8039064 L5.93203128,12.0679692 L5.19609372,11.9015628 C3.59668548,11.5363428 2.4,10.1214948 2.4,8.4 C2.4,6.39781932 3.99781932,4.8 6,4.8 C6.70051956,4.8 7.3443066,5.00666592 7.91015628,5.3625 L9.3,6.234375 L9.7125,4.64765628 C10.0482492,3.35532204 11.1952944,2.4 12.6,2.4 Z M6.6,19.2 C5.60588745,19.2 4.8,20.0058875 4.8,21 C4.8,21.9941125 5.60588745,22.8 6.6,22.8 C7.59411255,22.8 8.4,21.9941125 8.4,21 C8.4,20.0058875 7.59411255,19.2 6.6,19.2 Z M2.4,21.6 C1.7372583,21.6 1.2,22.1372583 1.2,22.8 C1.2,23.4627417 1.7372583,24 2.4,24 C3.0627417,24 3.6,23.4627417 3.6,22.8 C3.6,22.1372583 3.0627417,21.6 2.4,21.6 Z" id="think" fill="#FFFFFF" fill-rule="nonzero"></path>
    </g>
</svg>