<?xml version="1.0" encoding="UTF-8"?>
<svg width="53px" height="53px" viewBox="0 0 53 53" version="1.1" xmlns="http://www.w3.org/2000/svg" xmlns:xlink="http://www.w3.org/1999/xlink">
    <!-- Generator: Sketch 63.1 (92452) - https://sketch.com -->
    <title>trust</title>
    <desc>Created with Sketch.</desc>
    <g id="Page-1" stroke="none" stroke-width="1" fill="none" fill-rule="evenodd">
        <g id="1.0-Desktop" transform="translate(-813.000000, -3355.000000)" fill="#B92815" fill-rule="nonzero" stroke="#FFFFFF" stroke-width="2">
            <g id="Why-us" transform="translate(590.000000, 3262.000000)">
                <path d="M270.60639,118.000075 C269.481584,118.000075 268.356836,118.42916 267.499276,119.28672 L256.785884,130.000112 L247.600067,129.600105 L253.600086,129.600105 C254.869689,129.600105 256.019771,129.085038 256.852401,128.252408 C257.68503,127.419779 258.200097,126.269697 258.200097,125.000094 C258.200097,123.73049 257.68503,122.580408 256.852401,121.747779 C256.019771,120.915149 254.869689,120.400082 253.600086,120.400082 L241.97505,120.400082 C239.163142,120.400082 236.467601,121.515655 234.479951,123.505956 L224.585786,133.40012 L235.60003,144.414363 L240.814258,139.200135 L257.612599,139.200135 C259.149602,139.200135 260.625941,138.588509 261.713466,137.500987 L273.713505,125.500949 C274.571067,124.643384 275,123.518647 275,122.393833 C275,121.269019 274.571068,120.144283 273.713505,119.28672 C272.85594,118.429159 271.731192,118.000075 270.60639,118.000075 Z M264.339181,94 C261.455863,94 259.433681,95.3872053 258.400164,96.3195725 C257.366893,95.3874603 255.344604,94 252.461021,94 C250.179652,94 248.114423,94.9245747 246.619529,96.4194687 C245.124635,97.9143625 244.20006,99.9795912 244.20006,102.26096 C244.20006,107.112844 252.51058,115.043912 256.18184,118.206184 C256.822604,118.758568 257.611673,119.03351 258.400101,119.03351 C259.188529,119.03351 259.977598,118.758568 260.618671,118.205918 C264.289622,115.043912 272.600142,107.112844 272.600142,102.26096 C272.600142,99.9795912 271.675567,97.9143625 270.180673,96.4194687 C268.685779,94.9245747 266.62055,94 264.339181,94 Z" id="trust"></path>
            </g>
        </g>
    </g>
</svg>