<?xml version="1.0" encoding="UTF-8"?>
<svg width="32px" height="32px" viewBox="0 0 32 32" version="1.1" xmlns="http://www.w3.org/2000/svg" xmlns:xlink="http://www.w3.org/1999/xlink">
    <!-- Generator: Sketch 63.1 (92452) - https://sketch.com -->
    <title>Icons / Twitter</title>
    <desc>Created with Sketch.</desc>
    <g id="Icons-/-Twitter" stroke="none" stroke-width="1" fill="none" fill-rule="evenodd" fill-opacity="0.25">
        <path d="M16,0 C24.8227692,0 32,7.17723077 32,16 C32,24.8227692 24.8227692,32 16,32 C7.17723077,32 0,24.8227692 0,16 C0,7.17723077 7.17723077,0 16,0 Z M19.0778462,9 C17.2647895,9 15.7947436,10.4700459 15.7947436,12.2826026 C15.7947436,12.5401106 15.8237445,12.7906185 15.8797462,13.031126 C13.151661,12.8941217 10.7320854,11.5875809 9.1135348,9.6015188 C8.83152599,10.086534 8.66902091,10.6500516 8.66902091,11.2515704 C8.66902091,12.390606 9.24853902,13.3961374 10.1300666,13.9841558 C9.59154974,13.9676552 9.08553392,13.8196506 8.64302009,13.5736429 C8.64252008,13.5871433 8.64252008,13.6011438 8.64252008,13.6156442 C8.64252008,15.2056939 9.77405544,16.5327354 11.2761024,16.8337448 C11.0005938,16.9087471 10.7100847,16.9492484 10.4105753,16.9492484 C10.1990687,16.9492484 9.9935623,16.9282478 9.79355605,16.8902466 C10.2115691,18.1942873 11.423107,19.143317 12.8601519,19.1703178 C11.7366168,20.0508453 10.3210725,20.5753617 8.78302447,20.5753617 C8.51801619,20.5753617 8.25700803,20.5603613 8,20.5298603 C9.45254539,21.4598894 11.1775993,22.0034064 13.0316572,22.0034064 C19.0698459,22.0034064 22.3719491,17.00075 22.3719491,12.6631145 C22.3719491,12.52111 22.368949,12.3796056 22.3624488,12.2386012 C23.0034689,11.7750867 23.5604863,11.1970687 24,10.5390481 C23.4119816,10.8005563 22.7789618,10.9765618 22.1149411,11.0560643 C22.7924623,10.6495515 23.3129785,10.0065315 23.5584862,9.2400075 C22.9239664,9.61601925 22.2219444,9.8895278 21.4739211,10.0370324 C20.8749023,9.39901247 20.0218757,9 19.0778462,9 Z" id="Combined-Shape" fill="#000000" fill-rule="nonzero"></path>
    </g>
</svg>