<?xml version="1.0" encoding="UTF-8"?>
<svg width="24px" height="25px" viewBox="0 0 24 25" version="1.1" xmlns="http://www.w3.org/2000/svg" xmlns:xlink="http://www.w3.org/1999/xlink">
    <!-- Generator: Sketch 63.1 (92452) - https://sketch.com -->
    <title>web</title>
    <desc>Created with Sketch.</desc>
    <g id="Page-1" stroke="none" stroke-width="1" fill="none" fill-rule="evenodd">
        <g id="1.0-Home" transform="translate(-780.000000, -2256.000000)" fill="#FFFFFF" fill-rule="nonzero">
            <g id="Examples" transform="translate(382.000000, 1940.000000)">
                <g id="Group-4" transform="translate(210.000000, 316.666667)">
                    <path d="M190.668138,0 C189.194805,0 188.001471,1.19333333 188.001471,2.66666667 L188.001471,8 L188.001471,21.3333333 C188.001471,22.7907507 189.210721,24 190.668138,24 L209.334805,24 C210.792222,24 212.001471,22.7907507 212.001471,21.3333333 L212.001471,6.66666667 L212.001471,2.66666667 C212.001471,1.19333333 210.808138,0 209.334805,0 L190.668138,0 Z M192.001471,2.66666667 C192.737471,2.66666667 193.334805,3.264 193.334805,4 C193.334805,4.736 192.737471,5.33333333 192.001471,5.33333333 C191.265471,5.33333333 190.668138,4.736 190.668138,4 C190.668138,3.264 191.265471,2.66666667 192.001471,2.66666667 Z M196.001471,2.66666667 C196.737471,2.66666667 197.334805,3.264 197.334805,4 C197.334805,4.736 196.737471,5.33333333 196.001471,5.33333333 C195.265471,5.33333333 194.668138,4.736 194.668138,4 C194.668138,3.264 195.265471,2.66666667 196.001471,2.66666667 Z M201.334805,2.66666667 L208.001471,2.66666667 C208.737471,2.66666667 209.334805,3.264 209.334805,4 C209.334805,4.736 208.737471,5.33333333 208.001471,5.33333333 L201.334805,5.33333333 C200.598805,5.33333333 200.001471,4.736 200.001471,4 C200.001471,3.264 200.598805,2.66666667 201.334805,2.66666667 Z M190.668138,8 L209.334805,8 L209.334805,21.3333333 L190.668138,21.3333333 L190.668138,8 Z M194.668138,10.6666667 C193.932138,10.6666667 193.334805,11.264 193.334805,12 C193.334805,12.736 193.932138,13.3333333 194.668138,13.3333333 L198.668138,13.3333333 C199.404138,13.3333333 200.001471,12.736 200.001471,12 C200.001471,11.264 199.404138,10.6666667 198.668138,10.6666667 L194.668138,10.6666667 Z M204.001471,10.6666667 C203.265471,10.6666667 202.668138,11.264 202.668138,12 L202.668138,17.3333333 C202.668138,18.0693333 203.265471,18.6666667 204.001471,18.6666667 L205.334805,18.6666667 C206.070805,18.6666667 206.668138,18.0693333 206.668138,17.3333333 L206.668138,12 C206.668138,11.264 206.070805,10.6666667 205.334805,10.6666667 L204.001471,10.6666667 Z M194.668138,16 C193.932138,16 193.334805,16.5973333 193.334805,17.3333333 C193.334805,18.0693333 193.932138,18.6666667 194.668138,18.6666667 L198.668138,18.6666667 C199.404138,18.6666667 200.001471,18.0693333 200.001471,17.3333333 C200.001471,16.5973333 199.404138,16 198.668138,16 L194.668138,16 Z" id="web"></path>
                </g>
            </g>
        </g>
    </g>
</svg>