<?xml version="1.0" encoding="UTF-8"?>
<svg width="24px" height="24px" viewBox="0 0 24 24" version="1.1" xmlns="http://www.w3.org/2000/svg" xmlns:xlink="http://www.w3.org/1999/xlink">
    <!-- Generator: Sketch 63.1 (92452) - https://sketch.com -->
    <title>icons/web</title>
    <desc>Created with Sketch.</desc>
    <g id="icons/web" stroke="none" stroke-width="1" fill="none" fill-rule="evenodd">
        <path d="M2.66666667,0 C1.19333333,0 0,1.19333333 0,2.66666667 L0,8 L0,21.3333333 C0,22.7907507 1.2092496,24 2.66666667,24 L21.3333333,24 C22.7907507,24 24,22.7907507 24,21.3333333 L24,6.66666667 L24,2.66666667 C24,1.19333333 22.8066667,0 21.3333333,0 L2.66666667,0 Z M4,2.66666667 C4.736,2.66666667 5.33333333,3.264 5.33333333,4 C5.33333333,4.736 4.736,5.33333333 4,5.33333333 C3.264,5.33333333 2.66666667,4.736 2.66666667,4 C2.66666667,3.264 3.264,2.66666667 4,2.66666667 Z M8,2.66666667 C8.736,2.66666667 9.33333333,3.264 9.33333333,4 C9.33333333,4.736 8.736,5.33333333 8,5.33333333 C7.264,5.33333333 6.66666667,4.736 6.66666667,4 C6.66666667,3.264 7.264,2.66666667 8,2.66666667 Z M13.3333333,2.66666667 L20,2.66666667 C20.736,2.66666667 21.3333333,3.264 21.3333333,4 C21.3333333,4.736 20.736,5.33333333 20,5.33333333 L13.3333333,5.33333333 C12.5973333,5.33333333 12,4.736 12,4 C12,3.264 12.5973333,2.66666667 13.3333333,2.66666667 Z M2.66666667,8 L21.3333333,8 L21.3333333,21.3333333 L2.66666667,21.3333333 L2.66666667,8 Z M6.66666667,10.6666667 C5.93066667,10.6666667 5.33333333,11.264 5.33333333,12 C5.33333333,12.736 5.93066667,13.3333333 6.66666667,13.3333333 L10.6666667,13.3333333 C11.4026667,13.3333333 12,12.736 12,12 C12,11.264 11.4026667,10.6666667 10.6666667,10.6666667 L6.66666667,10.6666667 Z M16,10.6666667 C15.264,10.6666667 14.6666667,11.264 14.6666667,12 L14.6666667,17.3333333 C14.6666667,18.0693333 15.264,18.6666667 16,18.6666667 L17.3333333,18.6666667 C18.0693333,18.6666667 18.6666667,18.0693333 18.6666667,17.3333333 L18.6666667,12 C18.6666667,11.264 18.0693333,10.6666667 17.3333333,10.6666667 L16,10.6666667 Z M6.66666667,16 C5.93066667,16 5.33333333,16.5973333 5.33333333,17.3333333 C5.33333333,18.0693333 5.93066667,18.6666667 6.66666667,18.6666667 L10.6666667,18.6666667 C11.4026667,18.6666667 12,18.0693333 12,17.3333333 C12,16.5973333 11.4026667,16 10.6666667,16 L6.66666667,16 Z" id="web" fill="#FFFFFF" fill-rule="nonzero"></path>
    </g>
</svg>