<?xml version="1.0" encoding="UTF-8"?>
<svg width="56px" height="56px" viewBox="0 0 56 56" version="1.1" xmlns="http://www.w3.org/2000/svg" xmlns:xlink="http://www.w3.org/1999/xlink">
    <!-- Generator: Sketch 63.1 (92452) - https://sketch.com -->
    <title>icons/wireframes</title>
    <desc>Created with Sketch.</desc>
    <g id="Page-1" stroke="none" stroke-width="1" fill="none" fill-rule="evenodd">
        <g id="1.0-Desktop" transform="translate(-849.000000, -5301.000000)" fill="#FFFFFF">
            <g id="Phases" transform="translate(590.000000, 5108.000000)">
                <g id="Icons" transform="translate(29.000000, 78.000000)">
                    <g id="icons/wireframes" transform="translate(226.000000, 111.000000)">
                        <g id="icons8-design" transform="translate(4.000000, 4.000000)">
                            <path d="M11.6302107,-5.17381277e-16 C11.0286447,0.018228 10.4453113,0.255210667 10.026044,0.692710667 L0.692710667,10.026044 C-0.21875,10.919272 -0.21875,12.4140613 0.692710667,13.307294 L15.294272,27.9270833 L6.70833333,36.6770833 L0.401044,55.6171887 L19.3229167,49.2916667 L19.7239607,48.9270833 L28.0729167,40.705728 L42.674478,55.325522 C43.5859387,56.21875 45.080728,56.21875 45.9921887,55.325522 L55.325522,45.9921887 C56.21875,45.080728 56.21875,43.5859387 55.325522,42.674478 L40.8151053,28.182294 L53.2473947,15.932294 L53.2656273,15.932294 C56.893228,12.3046887 56.893228,6.361978 53.2656273,2.73437733 C51.4609387,0.929688667 49.0546887,0.018228 46.6666667,0.018228 C44.2786447,0.018228 41.8723947,0.911460667 40.0677107,2.73437733 L40.049478,2.73437733 L27.8177107,15.1848947 L13.307294,0.692710667 C12.869794,0.236978 12.268228,-0.018228 11.6302107,-5.17381277e-16 Z M11.6666667,5.63281133 L15.3671887,9.33333333 L12.3593773,12.3593773 L15.6406273,15.6406273 L18.6666667,12.6328113 L24.5364607,18.5208333 L18.575522,24.6093773 L5.63281133,11.6666667 L11.6666667,5.63281133 Z M39.4296887,10.0625 L45.9375,16.588544 L16.84375,45.2083333 L7.76562733,48.2343773 L10.7916667,39.174478 L39.4296887,10.0625 Z M37.4791667,31.463544 L43.3671887,37.3333333 L40.3411447,40.3411447 L43.6588553,43.6588553 L46.6666667,40.6328113 L50.3671887,44.3333333 L44.3333333,50.3671887 L31.3906273,37.424478 L37.4791667,31.463544 Z" id="Shape" fill-rule="nonzero"></path>
                        </g>
                    </g>
                </g>
            </g>
        </g>
    </g>
</svg>