<?xml version="1.0" encoding="UTF-8"?>
<svg width="91px" height="46px" viewBox="0 0 91 46" version="1.1" xmlns="http://www.w3.org/2000/svg" xmlns:xlink="http://www.w3.org/1999/xlink">
    <!-- Generator: Sketch 63.1 (92452) - https://sketch.com -->
    <title>logos / 2</title>
    <desc>Created with Sketch.</desc>
    <defs>
        <polygon id="path-1" points="0.669002103 0.044252583 98.8786617 0.044252583 98.8786617 50.5992358 0.669002103 50.5992358"></polygon>
    </defs>
    <g id="Page-1" stroke="none" stroke-width="1" fill="none" fill-rule="evenodd">
        <g id="1.0-Desktop" transform="translate(-1172.000000, -2730.000000)">
            <g id="Clients" transform="translate(590.000000, 2634.000000)">
                <g id="logos-/-2" transform="translate(578.000000, 93.000000)">
                    <polygon id="path146" fill="#4A4A4A" fill-rule="nonzero" transform="translate(26.293590, 26.835984) scale(-1, 1) rotate(-180.000000) translate(-26.293590, -26.835984) " points="26.1437676 33.6354121 24.0312755 33.6354121 26.4434119 26.8359841 24.0312755 20.0365561 26.1437676 20.0365561 28.555904 26.8359841"></polygon>
                    <polygon id="path150" fill="#4A4A4A" fill-rule="nonzero" transform="translate(23.258563, 26.835984) scale(-1, 1) rotate(-180.000000) translate(-23.258563, -26.835984) " points="23.1087405 33.6354121 20.9962484 33.6354121 23.4083848 26.8359841 20.9962484 20.0365561 23.1087405 20.0365561 25.5208769 26.8359841"></polygon>
                    <polygon id="path154" fill="#4A4A4A" fill-rule="nonzero" transform="translate(20.238149, 26.835984) scale(-1, 1) rotate(-180.000000) translate(-20.238149, -26.835984) " points="20.0883264 33.6354121 17.9758343 33.6354121 20.3879707 26.8359841 17.9758343 20.0365561 20.0883264 20.0365561 22.5004628 26.8359841"></polygon>
                    <polygon id="path158" fill="#4A4A4A" fill-rule="nonzero" transform="translate(17.203002, 26.835984) scale(-1, 1) rotate(-180.000000) translate(-17.203002, -26.835984) " points="17.0531799 33.6354121 14.9406878 33.6354121 17.3528242 26.8359841 14.9406878 20.0365561 17.0531799 20.0365561 19.4653163 26.8359841"></polygon>
                    <polygon id="path162" fill="#4A4A4A" fill-rule="nonzero" transform="translate(10.275845, 11.058469) scale(-1, 1) rotate(-180.000000) translate(-10.275845, -11.058469) " points="4.72243761 18.5002599 15.8292521 18.5002599 15.8292521 14.6398428 10.8039679 14.6398428 10.8039679 12.2514282 14.6868583 12.2514282 14.6868583 8.39225965 10.8039679 8.39225965 10.8039679 3.61667902 4.72243761 3.61667902"></polygon>
                    <mask id="mask-2" fill="white">
                        <use xlink:href="#path-1"></use>
                    </mask>
                    <g id="path170" transform="translate(49.773832, 25.321744) scale(-1, 1) rotate(-180.000000) translate(-49.773832, -25.321744) "></g>
                    <path d="M23.0717815,18.7898736 L23.0717815,11.181406 C23.0717815,9.99781114 23.1292133,9.84174641 23.67107,9.84174641 C24.2141753,9.84174641 24.300323,9.99781114 24.300323,11.181406 L24.300323,18.7898736 L30.2108063,18.7898736 L30.2108063,10.4672538 C30.2108063,8.16873254 29.9536116,7.0300843 29.1832762,5.98132933 C28.0983142,4.46438019 26.1269045,3.6166366 23.67107,3.6166366 C21.2451999,3.6166366 19.2750388,4.46438019 18.1613609,5.98132933 C17.4184928,7.0300843 17.1612981,8.16873254 17.1612981,10.4672538 L17.1612981,18.7898736 L23.0717815,18.7898736 Z" id="path174" fill="#4A4A4A" fill-rule="nonzero" mask="url(#mask-2)" transform="translate(23.686052, 11.203255) scale(-1, 1) rotate(-180.000000) translate(-23.686052, -11.203255) "></path>
                    <polygon id="path178" fill="#4A4A4A" fill-rule="nonzero" mask="url(#mask-2)" transform="translate(38.292587, 11.058427) scale(-1, 1) rotate(-180.000000) translate(-38.292587, -11.058427) " points="31.8252647 18.5002174 36.2512603 18.5002174 38.678379 14.4837356 38.678379 18.5002174 44.7599092 18.5002174 44.7599092 3.6166366 40.6198242 3.6166366 37.906795 8.08008778 37.906795 3.6166366 31.8252647 3.6166366"></polygon>
                    <polygon id="path182" fill="#4A4A4A" fill-rule="nonzero" mask="url(#mask-2)" transform="translate(68.354274, 11.058427) scale(-1, 1) rotate(-180.000000) translate(-68.354274, -11.058427) " points="62.6716452 18.5002174 74.0369028 18.5002174 74.0369028 14.6398004 68.7531754 14.6398004 68.7531754 12.9880113 72.4650189 12.9880113 72.4650189 9.12884274 68.7531754 9.12884274 68.7531754 7.47705367 74.0369028 7.47705367 74.0369028 3.6166366 62.6716452 3.6166366"></polygon>
                    <polygon id="path186" fill="#4A4A4A" fill-rule="nonzero" mask="url(#mask-2)" transform="translate(54.229293, 11.082648) scale(-1, 1) rotate(-180.000000) translate(-54.229293, -11.082648) " points="46.4660088 18.5044624 52.0468834 18.5044624 52.0468834 13.4954089 55.8011765 18.5044624 61.7678431 18.5044624 56.9885169 12.6351802 61.9925763 3.66083413 55.9297738 3.66083413 53.2354724 8.6286865 52.0468834 6.92570821 52.0468834 3.66083413 46.4660088 3.66083413"></polygon>
                    <path d="M31.5629511,30.5375522 L30.0135405,20.7491726 L30.0135405,20.6455456 C30.0135405,20.5931078 30.0135405,20.4133213 30.0385109,20.1548781 L28.8249515,20.1548781 C28.9023596,20.4395402 28.9547974,20.6455456 28.9797677,20.7741429 L30.9174674,33.0682978 C30.9174674,33.1207356 30.9436863,33.1981437 30.9436863,33.2493329 C30.9436863,33.3529599 30.9174674,33.4815572 30.9174674,33.6376219 L32.9575455,33.6376219 C32.9575455,33.430368 32.9837644,33.2755518 33.0349536,33.1207356 L36.6256908,22.6344345 L40.2663688,33.1719248 C40.3188065,33.3017707 40.3188065,33.430368 40.3188065,33.533995 L40.3188065,33.6376219 L42.3588846,33.6376219 L42.3588846,33.3529599 L42.3588846,33.1719248 L44.1667384,20.7491726 C44.1929573,20.6193267 44.2441465,20.4133213 44.3228031,20.1548781 L41.894436,20.1548781 C41.9194064,20.2585051 41.9456252,20.362132 41.9456252,20.4395402 C41.9456252,20.5156997 41.9456252,20.5931078 41.9194064,20.6979833 L40.4985931,30.7697765 L37.0639206,20.7491726 C36.9865125,20.5419186 36.9615421,20.3871024 36.9615421,20.2585051 L36.9615421,20.1548781 L35.0500613,20.1548781 C35.0750317,20.2060673 35.0750317,20.2322862 35.0750317,20.2585051 C35.0750317,20.362132 35.0500613,20.4907294 34.9976236,20.6455456 L31.5629511,30.5375522 Z" id="path190" fill="#4A4A4A" mask="url(#mask-2)" transform="translate(36.573877, 26.896250) scale(-1, 1) rotate(-180.000000) translate(-36.573877, -26.896250) "></path>
                    <path d="M46.3105683,33.6382462 L53.3097592,33.6382462 L53.3097592,32.5532842 C53.1037538,32.6044735 52.8964998,32.6569112 52.6642755,32.6569112 L48.6602789,32.6569112 L48.6602789,27.5180119 L52.5606485,27.5180119 C52.8440621,27.5180119 53.1037538,27.5429822 53.3097592,27.5941715 L53.3097592,26.4842391 C53.1287241,26.5354284 52.8964998,26.5616472 52.5868674,26.5616472 L48.6602789,26.5616472 L48.6602789,21.2404643 L52.5606485,21.2404643 C52.7679025,21.2404643 53.0263457,21.2666832 53.3097592,21.3178724 L53.3097592,20.1555023 L46.3105683,20.1555023 C46.3617576,20.3365374 46.3879765,20.5437914 46.3879765,20.7760157 L46.3879765,32.9927625 C46.3879765,33.2774246 46.3617576,33.48343 46.3105683,33.6382462" id="path194" fill="#4A4A4A" mask="url(#mask-2)" transform="translate(49.810164, 26.896874) scale(-1, 1) rotate(-180.000000) translate(-49.810164, -26.896874) "></path>
                    <path d="M55.7119075,33.6382462 L59.8707203,33.6382462 C61.393912,33.6382462 62.7110983,33.3286138 63.7960603,32.7081004 C64.7773953,32.1400248 65.526506,31.3646953 66.0171735,30.3583899 C66.507841,29.350836 66.7662842,28.2396552 66.7662842,27.0011255 C66.7662842,25.140834 66.2756167,23.5914234 65.2680628,22.3778641 C64.0282846,20.8796427 62.4276848,20.1555023 60.4650148,20.1555023 L55.7119075,20.1555023 C55.7630967,20.3365374 55.7893156,20.5700103 55.7893156,20.8009861 L55.7893156,33.0189814 C55.7893156,33.2512057 55.7630967,33.4572111 55.7119075,33.6382462 M58.0366476,21.2929021 L59.8707203,21.2929021 C61.0842796,21.2929021 62.0393957,21.6537237 62.7635361,22.3778641 C63.2529551,22.8685316 63.6162737,23.4366072 63.8734684,24.1083097 C64.1843493,25.037207 64.3641359,25.9935716 64.3641359,27.0260959 C64.3641359,29.1448306 63.6924333,30.6680223 62.3490282,31.6493573 C61.5749471,32.2436518 60.6185825,32.5270653 59.534869,32.5270653 L58.0366476,32.5270653 L58.0366476,21.2929021 L58.0366476,21.2929021 Z" id="path198" fill="#4A4A4A" mask="url(#mask-2)" transform="translate(61.239096, 26.896874) scale(-1, 1) rotate(-180.000000) translate(-61.239096, -26.896874) "></path>
                    <path d="M69.116619,33.6382462 L71.5699565,33.6382462 C71.5187672,33.48343 71.4663295,33.2774246 71.4663295,32.9927625 L71.4663295,20.8009861 C71.4663295,20.5175725 71.5187672,20.3115671 71.5699565,20.1555023 L69.116619,20.1555023 C69.1940271,20.3365374 69.2202459,20.5700103 69.2202459,20.8009861 L69.2202459,33.0189814 C69.2202459,33.2249868 69.1940271,33.4572111 69.116619,33.6382462" id="path202" fill="#4A4A4A" mask="url(#mask-2)" transform="translate(70.343288, 26.896874) scale(-1, 1) rotate(-180.000000) translate(-70.343288, -26.896874) "></path>
                    <path d="M74.54043,33.6382462 L81.5396209,33.6382462 L81.5396209,32.5532842 C81.3336155,32.6044735 81.1263615,32.6569112 80.8941372,32.6569112 L76.8651702,32.6569112 L76.8651702,27.5180119 L80.7905102,27.5180119 C81.0751723,27.5180119 81.3073966,27.5429822 81.5396209,27.5941715 L81.5396209,26.4842391 C81.3585858,26.5354284 81.1013911,26.5616472 80.8167291,26.5616472 L76.8651702,26.5616472 L76.8651702,21.2404643 L80.7905102,21.2404643 C80.9977642,21.2404643 81.2549588,21.2666832 81.5396209,21.3178724 L81.5396209,20.1555023 L74.54043,20.1555023 C74.5928678,20.3365374 74.6178381,20.5437914 74.6178381,20.7760157 L74.6178381,32.9927625 C74.6178381,33.2774246 74.5928678,33.48343 74.54043,33.6382462" id="path206" fill="#4A4A4A" mask="url(#mask-2)" transform="translate(78.040025, 26.896874) scale(-1, 1) rotate(-180.000000) translate(-78.040025, -26.896874) "></path>
                    <path d="M85.000762,31.1584401 L85.000762,20.8019849 C85.000762,20.5435417 85.0269808,20.3362877 85.0781701,20.1552526 L83.8895811,20.1552526 C83.9420189,20.3362877 83.9669892,20.568512 83.9669892,20.8019849 L83.9669892,32.9925128 C83.9669892,33.2497075 83.9420189,33.4569614 83.8895811,33.6379965 L86.0345347,33.6379965 C86.0595051,33.5081506 86.1369132,33.3533344 86.266759,33.1722994 L93.6529904,22.8670333 L93.6529904,32.9925128 C93.6529904,33.2247371 93.6018012,33.4307425 93.5493634,33.6379965 L94.7641713,33.6379965 C94.7117335,33.4831803 94.6855146,33.2759263 94.6605443,32.9925128 L94.6605443,20.7495471 C94.6855146,20.4911039 94.7117335,20.2850985 94.7641713,20.1552526 L92.8002527,20.1552526 C92.7490635,20.2588796 92.6716554,20.4136958 92.4906203,20.6459201 L85.000762,31.1584401 Z" id="path210" fill="#4A4A4A" mask="url(#mask-2)" transform="translate(89.326876, 26.896625) scale(-1, 1) rotate(-180.000000) translate(-89.326876, -26.896625) "></path>
                    <path d="M15.3688011,48.1010765 L15.3688011,46.4218201 C14.1290229,47.2745577 12.9154636,47.6878171 11.7006558,47.6878171 C10.3834695,47.6878171 9.32472639,47.2483389 8.4982076,46.344412 C8.0075401,45.8025552 7.64671845,45.1820419 7.46568337,44.5103393 C7.23345905,43.6838205 7.12983208,42.7798936 7.12983208,41.7985586 C7.12983208,39.7846994 7.56931035,38.286478 8.47323724,37.2789241 C9.24731828,36.4524053 10.2548722,36.039146 11.4946503,36.039146 C12.2175422,36.039146 12.9154636,36.220181 13.5871662,36.6072216 L13.5871662,41.8759667 C13.5871662,42.1094396 13.5609473,42.315445 13.5085096,42.5214504 L15.8594686,42.5214504 C15.8082794,42.315445 15.7820605,42.1094396 15.7820605,41.8759667 L15.7820605,36.6858782 C15.7820605,36.3749972 15.8332497,36.0903352 15.9119064,35.8581109 C14.6970985,35.4710703 13.8193905,35.2126272 13.2513149,35.1090002 C12.7082097,34.9804028 12.0365071,34.9292136 11.262426,34.9292136 C9.84161276,34.9292136 8.70546155,35.1876568 7.80153466,35.6783243 C6.74279155,36.2713703 5.94124312,37.1752972 5.39938639,38.3376672 C4.93368924,39.3452211 4.70146493,40.5075912 4.70146493,41.8509964 C4.70146493,44.2007069 5.42435674,46.0085607 6.89760776,47.2745577 C8.0849482,48.307082 9.63435881,48.8239683 11.5982773,48.8239683 C12.7856178,48.8239683 14.0516148,48.591744 15.3688011,48.1010765" id="path214" fill="#4A4A4A" mask="url(#mask-2)" transform="translate(10.306686, 41.876591) scale(-1, 1) rotate(-180.000000) translate(-10.306686, -41.876591) "></path>
                    <path d="M20.792737,41.3599543 L20.792737,35.7553579 C20.792737,35.5231335 20.8189559,35.3158796 20.8701452,35.1098741 L18.4168077,35.1098741 C18.4942158,35.2909092 18.5191861,35.4969147 18.5191861,35.7553579 L18.5191861,47.9721046 C18.5191861,48.204329 18.4942158,48.4115829 18.4168077,48.6175884 L22.5231827,48.6175884 C23.4782989,48.6175884 24.2798473,48.4115829 25.0027391,48.0232939 C25.5445958,47.7136615 25.9840741,47.3004021 26.2937065,46.7835157 C26.6033389,46.241659 26.784374,45.6473645 26.784374,44.9506915 C26.784374,43.4524702 26.0614822,42.4186974 24.6406689,41.8768407 C24.2536284,41.720776 23.736742,41.5921786 23.1424476,41.4898002 L27.5597036,35.6517309 C27.7407387,35.3932877 27.9217738,35.2135011 28.1015603,35.1098741 L25.1575553,35.1098741 C25.1063661,35.3158796 25.0027391,35.4969147 24.8728933,35.7041686 L20.792737,41.3599543 Z M20.7665182,42.1352839 L21.8265098,42.1352839 C22.4195558,42.1352839 22.962661,42.2901001 23.4008908,42.5997325 C24.1250311,43.1166189 24.4858527,43.8657296 24.4858527,44.8720349 C24.4858527,45.7759618 24.1762203,46.5001021 23.5819258,47.0419589 C23.1174772,47.4289994 22.4969639,47.6362534 21.6966639,47.6362534 L20.7665182,47.6362534 L20.7665182,42.1352839 Z" id="path218" fill="#4A4A4A" mask="url(#mask-2)" transform="translate(23.259184, 41.863731) scale(-1, 1) rotate(-180.000000) translate(-23.259184, -41.863731) "></path>
                    <path d="M39.8021698,48.8245926 C39.7509806,48.6435575 39.7247617,48.4113332 39.7247617,48.15289 L39.7247617,39.7853236 C39.7247617,38.6991132 39.4663186,37.7964348 38.9494322,37.0473241 C38.4337943,36.2982134 37.7620917,35.781327 36.9093541,35.4979135 C36.1090542,35.2382218 35.2300976,35.1096244 34.2749815,35.1096244 C32.906606,35.1096244 31.821644,35.3680676 31.0463144,35.8587351 C30.4258011,36.2719945 29.9363821,36.7888809 29.5743119,37.4605835 C29.2384606,38.1322861 29.0574256,38.8801482 29.0574256,39.6816967 L29.0574256,48.15289 C29.0574256,48.4113332 29.0312067,48.6173386 28.9800175,48.8245926 L31.4083846,48.8245926 C31.3559468,48.6173386 31.3047576,48.4113332 31.3047576,48.1791089 L31.3047576,39.6305074 C31.3047576,38.828959 31.5107631,38.1572564 31.8728332,37.5891808 C32.4920981,36.6852539 33.4996519,36.2208053 34.9204652,36.2208053 C36.1340245,36.2208053 37.0641703,36.5304377 37.7358729,37.1759214 C38.3813566,37.8214051 38.7172079,38.7515509 38.7172079,39.9401399 L38.7172079,48.15289 C38.7172079,48.4363036 38.6660186,48.6435575 38.6148294,48.8245926 L39.8021698,48.8245926 Z" id="path222" fill="#4A4A4A" mask="url(#mask-2)" transform="translate(34.391094, 41.967109) scale(-1, 1) rotate(-180.000000) translate(-34.391094, -41.967109) "></path>
                    <path d="M44.8640356,40.9199766 L44.8640356,35.7548584 C44.8640356,35.5738234 44.9164734,35.3403505 44.9676626,35.1093747 L42.5143251,35.1093747 C42.5917332,35.3153802 42.6167035,35.5213856 42.6167035,35.7548584 L42.6167035,47.9453864 C42.6167035,48.2038295 42.5917332,48.409835 42.5143251,48.6170889 L46.8529245,48.6170889 C47.9116676,48.6170889 48.7893756,48.3848646 49.5397348,47.9716052 C50.6496672,47.324873 51.2177428,46.2923488 51.2177428,44.8715355 C51.2177428,43.3221249 50.5210698,42.2109441 49.1514458,41.5142711 C48.3773647,41.1010117 47.4210001,40.9199766 46.3098192,40.9199766 L44.8640356,40.9199766 Z M44.8640356,41.9525009 L46.0788434,41.9525009 C46.7243271,41.9525009 47.2661839,42.0561278 47.6794433,42.314571 C48.0402649,42.5467953 48.3511459,42.8826466 48.5833702,43.3483438 C48.8155945,43.7865735 48.9192215,44.3034599 48.9192215,44.8453166 C48.9192215,45.6980543 48.6869971,46.3697569 48.1963296,46.8853947 C47.7306325,47.3510919 47.0851488,47.6095351 46.25863,47.6095351 L44.8640356,47.6095351 L44.8640356,41.9525009 Z" id="path226" fill="#4A4A4A" mask="url(#mask-2)" transform="translate(46.866034, 41.863232) scale(-1, 1) rotate(-180.000000) translate(-46.866034, -41.863232) "></path>
                    <path d="M55.2987729,40.9199766 L55.2987729,35.7548584 C55.2987729,35.5738234 55.3249918,35.3403505 55.4011514,35.1093747 L52.9490624,35.1093747 C53.0002516,35.3153802 53.0514409,35.5213856 53.0514409,35.7548584 L53.0514409,47.9453864 C53.0514409,48.2038295 53.0002516,48.409835 52.9490624,48.6170889 L57.2876618,48.6170889 C58.320186,48.6170889 59.2241129,48.3848646 59.9482533,47.9716052 C61.0844045,47.324873 61.6262612,46.2923488 61.6262612,44.8715355 C61.6262612,43.3221249 60.9545586,42.2109441 59.5861831,41.5142711 C58.7858832,41.1010117 57.8295185,40.9199766 56.7195862,40.9199766 L55.2987729,40.9199766 Z M55.2987729,41.9525009 L56.5123322,41.9525009 C57.1578159,41.9525009 57.7009212,42.0561278 58.0879617,42.314571 C58.4750022,42.5467953 58.7858832,42.8826466 58.9918886,43.3483438 C59.2241129,43.7865735 59.3539588,44.3034599 59.3539588,44.8453166 C59.3539588,45.6980543 59.0955156,46.3697569 58.6298184,46.8853947 C58.1653698,47.3510919 57.5198861,47.6095351 56.6933673,47.6095351 L55.2987729,47.6095351 L55.2987729,41.9525009 Z" id="path230" fill="#4A4A4A" mask="url(#mask-2)" transform="translate(57.287662, 41.863232) scale(-1, 1) rotate(-180.000000) translate(-57.287662, -41.863232) "></path>
                    <path d="M63.3829258,48.6173386 L70.3821166,48.6173386 L70.3821166,47.5061578 C70.1748627,47.5835659 69.9688572,47.6097848 69.7366329,47.6097848 L65.7326363,47.6097848 L65.7326363,42.4696369 L69.6330059,42.4696369 C69.917668,42.4696369 70.1748627,42.4958558 70.3821166,42.5482936 L70.3821166,41.4633316 C70.2010815,41.4883019 69.9688572,41.5145208 69.6592248,41.5145208 L65.7326363,41.5145208 L65.7326363,36.1933379 L69.6330059,36.1933379 C69.8390114,36.1933379 70.0974546,36.2195568 70.3821166,36.2969649 L70.3821166,35.1096244 L63.3829258,35.1096244 C63.434115,35.3156299 63.4603339,35.5228838 63.4603339,35.7551082 L63.4603339,47.9456361 C63.4603339,48.2290496 63.434115,48.4363036 63.3829258,48.6173386" id="path234" fill="#4A4A4A" mask="url(#mask-2)" transform="translate(66.882521, 41.863482) scale(-1, 1) rotate(-180.000000) translate(-66.882521, -41.863482) "></path>
                </g>
            </g>
        </g>
    </g>
</svg>