<?xml version="1.0" encoding="UTF-8"?>
<svg width="135px" height="27px" viewBox="0 0 135 27" version="1.1" xmlns="http://www.w3.org/2000/svg" xmlns:xlink="http://www.w3.org/1999/xlink">
    <!-- Generator: Sketch 63.1 (92452) - https://sketch.com -->
    <title>logos / 3</title>
    <desc>Created with Sketch.</desc>
    <g id="Page-1" stroke="none" stroke-width="1" fill="none" fill-rule="evenodd">
        <g id="1.0-Desktop" transform="translate(-1338.000000, -2734.000000)" fill="#4A4A4A" fill-rule="nonzero">
            <g id="Clients" transform="translate(590.000000, 2634.000000)">
                <g id="logos-/-3" transform="translate(748.000000, 100.000000)">
                    <path d="M2.17192429,0 L2.17192429,6.47318612 L15.8422713,6.47318612 C10.1782334,12.0520505 0,22.1025237 0,22.1025237 L4.55678233,26.7444795 C4.55678233,26.7444795 16.4810726,14.7350158 22.9116719,8.34700315 L22.9116719,26.6167192 L29.214511,26.6167192 L29.214511,0 L2.17192429,0 Z" id="path81891"></path>
                    <path d="M20.9526814,22.4006309 C20.9526814,20.0583596 19.0362776,18.1419558 16.6940063,18.1419558 C14.351735,18.1419558 12.4353312,20.0583596 12.4353312,22.4006309 C12.4353312,24.7429022 14.351735,26.659306 16.6940063,26.659306 C19.0362776,26.659306 20.9526814,24.7429022 20.9526814,22.4006309 Z" id="path81893"></path>
                    <path d="M119.711356,11.1577287 C119.498423,11.4984227 118.987382,11.8391167 118.34858,11.8391167 C117.496845,11.8391167 117.198738,11.3706625 117.198738,10.8596215 C117.198738,10.2634069 117.582019,9.92271293 118.34858,9.92271293 C119.029968,9.92271293 119.370662,10.0078864 119.711356,10.2208202 L119.711356,11.1577287 Z M121.670347,13.329653 L121.670347,8.3044164 C121.670347,6.64353312 120.435331,5.66403785 118.646688,5.66403785 C117.454259,5.66403785 116.730284,5.91955836 115.835962,6.43059937 L116.602524,7.79337539 C117.283912,7.41009464 117.752366,7.28233438 118.646688,7.28233438 C119.370662,7.28233438 119.711356,7.70820189 119.711356,8.2192429 L119.711356,8.60252366 C119.413249,8.43217666 118.944795,8.3044164 118.263407,8.3044164 C116.559937,8.3044164 115.239748,9.11356467 115.239748,10.7744479 C115.239748,12.5630915 116.64511,13.4574132 118.050473,13.4574132 C118.731861,13.4574132 119.370662,13.159306 119.711356,12.818612 L119.711356,13.329653 L121.670347,13.329653 Z" id="path81897"></path>
                    <polygon id="path81899" points="132.955836 13.329653 132.955836 5.49369085 130.869085 6.60094637 130.869085 4.68454259 133.29653 3.40694006 134.957413 3.40694006 134.957413 13.3722397 132.955836 13.3722397"></polygon>
                    <path d="M47.9526814,6.55835962 C47.9526814,7.41009464 47.4416404,7.83596215 46.5473186,7.83596215 L44.4605678,7.83596215 L44.4605678,5.2807571 L46.5473186,5.2807571 C47.3990536,5.2807571 47.9526814,5.70662461 47.9526814,6.55835962 L47.9526814,6.55835962 Z M50.0394322,6.51577287 C50.0394322,4.38643533 48.5063091,3.36435331 46.5899054,3.36435331 L42.4589905,3.36435331 L42.4589905,13.329653 L44.4605678,13.329653 L44.4605678,9.79495268 L46.4195584,9.79495268 C48.5063091,9.79495268 50.0394322,8.81545741 50.0394322,6.51577287 Z" id="path81901"></path>
                    <path d="M55.0646688,8.1340694 C54.7665615,7.83596215 54.3832808,7.66561514 53.9148265,7.66561514 C53.148265,7.66561514 52.637224,8.00630915 52.637224,9.28391167 L52.637224,13.329653 L50.6782334,13.329653 L50.6782334,5.87697161 L52.637224,5.87697161 L52.637224,6.38801262 C52.977918,6.04731861 53.488959,5.74921136 54.170347,5.74921136 C54.8091483,5.74921136 55.2776025,6.00473186 55.533123,6.26025237 L55.0646688,8.1340694 Z" id="path81903"></path>
                    <path d="M60.6009464,9.58201893 C60.6009464,10.6041009 60.1324921,11.5835962 59.1955836,11.5835962 C58.2586751,11.5835962 57.8328076,10.7318612 57.8328076,9.58201893 C57.8328076,8.43217666 58.2586751,7.58044164 59.1955836,7.58044164 C60.1324921,7.58044164 60.6009464,8.47476341 60.6009464,9.58201893 Z M62.6025237,9.58201893 C62.6025237,7.28233438 61.1545741,5.66403785 59.1955836,5.66403785 C57.2365931,5.66403785 55.8312303,7.28233438 55.8312303,9.58201893 C55.8312303,11.8817035 57.2365931,13.4574132 59.1955836,13.4574132 C61.1545741,13.5 62.6025237,11.8817035 62.6025237,9.58201893 Z" id="path81905"></path>
                    <path d="M67.1167192,13.5 C65.455836,13.5 64.0078864,12.818612 63.2413249,11.7113565 L64.6892744,10.4337539 C65.3706625,11.2429022 66.2649842,11.5835962 67.2444795,11.5835962 C68.4369085,11.5835962 68.9905363,11.2429022 68.9905363,10.5189274 C68.9905363,9.88012618 68.6498423,9.58201893 66.7760252,9.15615142 C64.944795,8.73028391 63.6671924,8.1340694 63.6671924,6.17507886 C63.6671924,4.38643533 65.2429022,3.23659306 67.2444795,3.23659306 C68.7776025,3.23659306 69.9274448,3.83280757 70.8643533,4.81230284 L69.4164038,6.21766562 C68.7776025,5.57886435 68.0536278,5.1955836 67.159306,5.1955836 C66.0946372,5.1955836 65.7539432,5.66403785 65.7539432,6.08990536 C65.7539432,6.72870662 66.1798107,6.89905363 67.7555205,7.28233438 C69.3312303,7.66561514 71.0772871,8.17665615 71.0772871,10.3485804 C71.0347003,12.2223975 69.8422713,13.5 67.1167192,13.5 L67.1167192,13.5 Z" id="path81907"></path>
                    <path d="M73.4621451,5.23817035 C72.8659306,5.23817035 72.3548896,4.72712934 72.3548896,4.13091483 C72.3548896,3.53470032 72.8659306,3.02365931 73.4621451,3.02365931 C74.0583596,3.02365931 74.5694006,3.53470032 74.5694006,4.13091483 C74.5694006,4.72712934 74.0583596,5.23817035 73.4621451,5.23817035 Z M72.4826498,13.329653 L72.4826498,5.87697161 L74.4416404,5.87697161 L74.4416404,13.3722397 L72.4826498,13.3722397 L72.4826498,13.329653 Z" id="path81909"></path>
                    <path d="M80.5315457,8.73028391 L77.9763407,8.73028391 C78.0615142,7.9637224 78.4873817,7.41009464 79.2113565,7.41009464 C80.1056782,7.41009464 80.488959,8.09148265 80.5315457,8.73028391 Z M82.4479495,9.58201893 C82.4479495,7.45268139 81.2981073,5.66403785 79.29653,5.66403785 C77.4227129,5.66403785 75.9747634,7.28233438 75.9747634,9.58201893 C75.9747634,11.9242902 77.3375394,13.4574132 79.5094637,13.4574132 C80.488959,13.4574132 81.5962145,13.0315457 82.192429,12.2649842 L80.7870662,11.115142 C80.488959,11.455836 80.0630915,11.626183 79.5094637,11.626183 C78.785489,11.626183 78.0615142,11.2429022 77.9763407,10.2208202 L82.4479495,10.2208202 C82.4479495,10.0930599 82.4479495,9.88012618 82.4479495,9.58201893 Z" id="path81911"></path>
                    <path d="M88.4100946,9.70977918 C88.4100946,10.944795 87.9842271,11.626183 87.2602524,11.626183 C86.7066246,11.626183 86.2381703,11.4132492 85.9400631,10.9873817 L85.9400631,8.17665615 C86.2381703,7.79337539 86.5362776,7.53785489 87.1324921,7.53785489 C87.8990536,7.53785489 88.4100946,8.17665615 88.4100946,9.70977918 L88.4100946,9.70977918 Z M90.4116719,9.66719243 C90.4116719,6.85646688 89.0914826,5.66403785 87.5157729,5.66403785 C86.7917981,5.66403785 86.3233438,5.96214511 85.9400631,6.30283912 L85.9400631,3.06624606 L83.9810726,3.06624606 L83.9810726,13.329653 L85.9400631,13.329653 L85.9400631,12.9037855 C86.2807571,13.2444795 86.8769716,13.5 87.5157729,13.5 C89.3470032,13.5 90.4116719,11.9242902 90.4116719,9.66719243 Z" id="path81913"></path>
                    <path d="M95.9479495,8.73028391 L93.3927445,8.73028391 C93.477918,7.9637224 93.9037855,7.41009464 94.6277603,7.41009464 C95.4794953,7.41009464 95.9053628,8.09148265 95.9479495,8.73028391 Z M97.8643533,9.58201893 C97.8643533,7.45268139 96.714511,5.66403785 94.7129338,5.66403785 C92.8391167,5.66403785 91.3911672,7.28233438 91.3911672,9.58201893 C91.3911672,11.9242902 92.7539432,13.4574132 94.9258675,13.4574132 C95.9053628,13.4574132 97.0126183,13.0315457 97.6088328,12.2649842 L96.20347,11.115142 C95.9053628,11.455836 95.4794953,11.626183 94.9258675,11.626183 C94.2018927,11.626183 93.477918,11.2429022 93.3927445,10.2208202 L97.8643533,10.2208202 C97.8643533,10.0930599 97.8643533,9.88012618 97.8643533,9.58201893 Z" id="path81915"></path>
                    <path d="M103.741325,13.329653 L103.741325,9.28391167 C103.741325,7.9637224 103.272871,7.53785489 102.463722,7.53785489 C101.654574,7.53785489 101.18612,7.92113565 101.18612,9.24132492 L101.18612,13.329653 L99.2271293,13.329653 L99.2271293,5.87697161 L101.18612,5.87697161 L101.18612,6.38801262 C101.526814,6.04731861 102.165615,5.74921136 102.932177,5.74921136 C104.84858,5.74921136 105.700315,7.06940063 105.700315,9.15615142 L105.700315,13.3722397 L103.741325,13.3722397 L103.741325,13.329653 Z" id="path81917"></path>
                    <path d="M110.470032,13.5 C108.809148,13.5 107.361199,12.818612 106.594637,11.7113565 L108.042587,10.4337539 C108.723975,11.2429022 109.618297,11.5835962 110.597792,11.5835962 C111.790221,11.5835962 112.343849,11.2429022 112.343849,10.5189274 C112.343849,9.88012618 112.003155,9.58201893 110.129338,9.15615142 C108.298107,8.73028391 107.020505,8.1340694 107.020505,6.17507886 C107.020505,4.38643533 108.596215,3.23659306 110.597792,3.23659306 C112.130915,3.23659306 113.280757,3.83280757 114.217666,4.81230284 L112.769716,6.21766562 C112.130915,5.57886435 111.40694,5.1955836 110.512618,5.1955836 C109.44795,5.1955836 109.107256,5.66403785 109.107256,6.08990536 C109.107256,6.72870662 109.533123,6.89905363 111.108833,7.28233438 C112.684543,7.66561514 114.430599,8.17665615 114.430599,10.3485804 C114.388013,12.2223975 113.195584,13.5 110.470032,13.5 Z" id="path81919"></path>
                    <path d="M49.9968454,26.6167192 L49.9968454,19.8880126 L49.9968454,18.8233438 C49.9116719,19.2066246 49.6135647,19.9305994 49.4006309,20.4842271 L46.7176656,26.9148265 L44.0772871,20.4842271 C43.8643533,19.9731861 43.6088328,19.2066246 43.4810726,18.8233438 L43.4810726,19.8880126 L43.4810726,26.6167192 L42.4164038,26.6167192 L42.4164038,16.6514196 L43.6514196,16.6514196 L45.9936909,22.6135647 C46.2492114,23.2097792 46.5899054,24.1466877 46.7176656,24.5299685 C46.8454259,24.1041009 47.1861199,23.1671924 47.4416404,22.6135647 L49.8264984,16.6514196 L51.0189274,16.6514196 L51.0189274,26.6167192 L49.9968454,26.6167192 Z" id="path81921"></path>
                    <path d="M57.9179811,22.4006309 L53.8722397,22.4006309 C54,20.7397476 54.7665615,19.9305994 55.873817,19.9305994 C57.1940063,19.9305994 57.8328076,20.9526814 57.9179811,22.4006309 Z M58.8974763,22.6561514 C58.8974763,20.5268139 57.8328076,18.9936909 55.873817,18.9936909 C54.0851735,18.9936909 52.7649842,20.4842271 52.7649842,22.8690852 C52.7649842,25.807571 54.4258675,26.7870662 55.7886435,26.7870662 C56.8958991,26.7870662 57.5772871,26.488959 58.4716088,25.9353312 L57.9605678,25.1687697 C57.2791798,25.637224 56.7681388,25.8927445 55.9164038,25.8927445 C54.681388,25.8927445 53.9574132,24.8706625 53.829653,23.2949527 L58.8123028,23.2949527 C58.8974763,23.0820189 58.8974763,22.9116719 58.8974763,22.6561514 L58.8974763,22.6561514 Z" id="path81923"></path>
                    <path d="M65.1577287,24.785489 C64.6466877,25.4242902 63.9652997,25.8501577 63.1987382,25.8501577 C62.0063091,25.8501577 61.3249211,24.8706625 61.3249211,22.9968454 C61.3249211,20.9952681 61.9211356,19.9305994 63.1561514,19.9305994 C64.0504732,19.9305994 64.7744479,20.4416404 65.1577287,21.0378549 L65.1577287,24.785489 Z M66.2223975,26.6167192 L66.2223975,16.6514196 L65.1577287,16.6514196 L65.1577287,20.0157729 C64.6466877,19.4195584 64.0078864,19.0362776 63.0709779,19.0362776 C61.4952681,19.0362776 60.2602524,20.3990536 60.2602524,23.0394322 C60.2602524,25.6798107 61.4526814,26.829653 62.9432177,26.829653 C63.9652997,26.829653 64.6466877,26.318612 65.2003155,25.7649842 L65.2003155,26.659306 L66.2223975,26.659306 L66.2223975,26.6167192 Z" id="path81925"></path>
                    <path d="M69.1608833,17.8012618 C68.7350158,17.8012618 68.3943218,17.4605678 68.3943218,17.0347003 C68.3943218,16.6088328 68.7350158,16.2681388 69.1608833,16.2681388 C69.544164,16.2681388 69.884858,16.6088328 69.884858,17.0347003 C69.884858,17.4605678 69.544164,17.8012618 69.1608833,17.8012618 Z M68.5646688,26.6167192 L68.5646688,19.1640379 L69.6293375,19.1640379 L69.6293375,26.6167192 L68.5646688,26.6167192 Z" id="path81927"></path>
                    <path d="M76.3154574,24.785489 C75.8470032,25.4242902 75.1230284,25.8927445 74.1861199,25.8927445 C73.2917981,25.8927445 72.6529968,25.4242902 72.6529968,24.3170347 C72.6529968,23.3801262 73.2917981,22.8690852 74.3990536,22.8690852 C75.2933754,22.8690852 75.8470032,23.0394322 76.3154574,23.2949527 L76.3154574,24.785489 Z M77.3801262,26.6167192 L77.3801262,21.4211356 C77.3801262,19.6750789 76.3580442,18.9936909 74.7397476,18.9936909 C73.7602524,18.9936909 72.9085174,19.2492114 72.2271293,19.5899054 L72.6104101,20.4416404 C73.2066246,20.1009464 73.8454259,19.8880126 74.6545741,19.8880126 C75.7618297,19.8880126 76.2728707,20.4416404 76.2728707,21.5488959 L76.2728707,22.4432177 C75.8470032,22.1876972 75.1656151,22.0173502 74.3990536,22.0173502 C72.9085174,22.0173502 71.5457413,22.7413249 71.5457413,24.4022082 C71.5457413,26.1908517 72.7807571,26.7870662 73.9305994,26.7870662 C74.9952681,26.7870662 75.7192429,26.2760252 76.2728707,25.7223975 L76.2728707,26.6167192 L77.3801262,26.6167192 Z" id="path81929"></path>
                    <path d="M128.015773,13.2444795 C128.015773,13.2444795 126.865931,13.5 126.099369,13.5 C124.90694,13.5 124.097792,12.5630915 124.097792,11.2429022 L124.097792,7.70820189 L122.862776,7.70820189 L122.862776,5.87697161 L124.097792,5.87697161 L124.097792,3.36435331 L126.056782,3.36435331 L126.056782,5.87697161 L127.845426,5.87697161 L127.845426,7.70820189 L126.056782,7.70820189 L126.056782,10.7318612 C126.056782,11.626183 126.312303,11.6687697 126.780757,11.6687697 C127.121451,11.6687697 127.717666,11.5835962 127.973186,11.5410095 L127.973186,13.2444795 L128.015773,13.2444795 Z" id="path81931"></path>
                    <path d="M130.485804,13.5 C129.804416,13.5 129.208202,12.9037855 129.208202,12.2223975 C129.208202,11.5410095 129.804416,10.944795 130.485804,10.944795 C131.167192,10.944795 131.763407,11.5410095 131.763407,12.2223975 C131.72082,12.9037855 131.167192,13.5 130.485804,13.5 Z" id="path81933"></path>
                </g>
            </g>
        </g>
    </g>
</svg>