<?xml version="1.0" encoding="UTF-8"?>
<svg width="76px" height="50px" viewBox="0 0 76 50" version="1.1" xmlns="http://www.w3.org/2000/svg" xmlns:xlink="http://www.w3.org/1999/xlink">
    <!-- Generator: Sketch 63.1 (92452) - https://sketch.com -->
    <title>logos / 4</title>
    <desc>Created with Sketch.</desc>
    <g id="Page-1" stroke="none" stroke-width="1" fill="none" fill-rule="evenodd">
        <g id="1.0-Desktop" transform="translate(-925.000000, -2839.000000)" fill="#4A4A4A" fill-rule="nonzero">
            <g id="Clients" transform="translate(590.000000, 2634.000000)">
                <g id="logos-/-4" transform="translate(335.000000, 205.000000)">
                    <path d="M53.160967,1.60382687 C55.9051034,0.256065672 57.2650181,0.432931343 57.2956151,1.79902942 C57.3322889,3.57365629 57.0699222,5.933571 56.8807964,7.6411403 C55.8623529,16.9220571 54.160967,24.5058525 54.0329286,34.0349569 C58.5151247,22.4312256 62.2716279,14.3663002 67.1136322,4.43346439 C68.6505192,1.26843241 69.6322889,1.86001023 70.894549,1.29892281 C75.8097942,-0.890309595 75.9928433,0.45126823 75.3523316,3.12845373 C72.9680032,13.044232 66.8635256,44.2647011 65.9306898,49.0720571 C65.6622463,50.4629953 64.1499861,49.8733365 63.759581,49.3294132 C62.0094744,46.9084111 60.0336748,46.8705646 60.2530778,45.2606499 C61.350839,37.2456179 65.3024382,17.1361296 66.3331418,12.3977501 C61.0823955,23.1623557 55.6367665,36.6193919 52.8376194,44.2495625 C52.2460416,45.8698183 51.1666173,45.7509484 50.495935,44.5654473 C49.5506258,42.9000955 47.7151247,42.0498823 47.4101141,40.0819719 C46.452758,33.8252554 48.5078753,21.8994559 48.7943358,14.3546797 C45.9344211,22.5964708 41.1350608,38.5976435 39.0311162,45.8270678 C38.1652313,48.8183258 35.274613,48.3303727 36.0429499,45.4149143 C39.2383657,33.2823983 46.1234403,11.8245092 49.0993465,4.11022345 C49.8009456,2.29284606 51.6363401,2.35382687 53.160967,1.60382687" id="path45125"></path>
                    <path d="M35.7321823,0.115767164 C34.8053166,-0.10981919 32.1159776,1.34156674 30.4633124,1.6281339 C29.9388987,1.71960512 29.4387921,2.27450917 29.2619264,2.67099104 C26.6152313,8.7509484 24.2430565,14.546684 22.1879392,19.8265348 C19.559581,20.275362 16.4861269,20.8663002 13.0466812,21.6389015 C15.5103273,15.3192853 17.9984936,9.08623625 20.4255725,3.09167335 C21.6207751,0.1400742 18.4741866,-0.140416205 17.2544638,2.84775011 C15.6688561,6.73239829 12.6990267,14.0106499 9.41203305,22.4939122 C6.99710768,23.086023 4.43591365,23.7628887 1.75872814,24.5362362 C-0.186687633,25.0978567 -0.265898721,25.6161936 0.575679104,26.7828247 C1.03911194,27.4323983 1.99657463,27.3669399 2.43559382,27.8298397 C3.56992217,29.0294132 4.25904797,30.4642746 6.28964499,30.6814388 C4.47845096,35.5264281 2.66725693,40.5228034 1.02685181,45.3336776 C-0.00374520256,48.353507 2.92951706,48.9712043 4.05776866,45.7756819 C5.87503945,40.6245092 7.78985821,35.4110763 9.75958102,30.2129953 C11.3999861,29.8317586 15.3699222,28.976748 19.0349542,28.1815454 C16.1261055,36.1543599 14.2111802,42.2093706 13.4855938,45.1567053 C13.3514787,45.7237629 13.577065,46.0384751 13.6990267,46.2696051 C14.6807964,47.6983898 15.6138454,47.7569186 16.8762122,49.5235497 C17.21779,50.0053194 18.3642719,50.2651275 18.7544638,49.0789868 C21.4498795,40.9371957 24.224613,33.2979633 26.8102207,26.4495625 C27.8834616,26.2148077 29.8166173,25.7482832 30.9996663,23.9828247 C33.1035043,20.8494559 33.7072356,21.4849569 34.2135256,20.5323983 C34.8477473,19.3365561 34.4268518,18.2138482 32.182822,18.4912469 C32.182822,18.4912469 31.3351674,18.5515881 29.7678966,18.7302661 C32.2559563,12.3240827 34.4330352,6.89050064 36.000306,2.7498823 C36.537193,1.3476435 36.6042505,0.323123241 35.7321823,0.115767164" id="path45127"></path>
                    <path d="M32.0610736,41.6655539 C32.6403913,43.129733 34.4515853,42.6863429 33.7624595,40.9191787 C33.0610736,39.1188588 31.3170437,33.6993493 30.859581,31.9534004 C30.2376194,29.6007352 32.9330352,30.2441254 31.5670437,31.7821851 C30.3962548,33.1047864 29.6155512,33.6347437 27.4507324,36.1496691 C25.359048,38.5773876 25.9262122,41.7278141 28.1642719,42.4236563 C30.6888987,43.2090507 32.9148049,40.4270678 34.2929499,38.386023 C35.628451,36.4095838 34.3355938,35.2503087 32.9879392,36.4187522 C32.1219478,37.1700316 31.1218412,38.3237629 30.1094744,38.9458311 C29.2862335,39.4464708 28.6397516,38.9086243 29.7375128,37.3975369 C31.012033,35.6479633 32.4390053,34.1819719 33.5000928,32.528667 C35.6650181,29.1593706 31.3839947,27.2171531 29.5423102,29.4057458 C28.5543571,30.572377 28.8044638,31.7176861 29.0728006,32.7006286 C29.5058497,34.2751488 31.1157644,39.3013748 32.0610736,41.6655539" id="path45129"></path>
                </g>
            </g>
        </g>
    </g>
</svg>