<?xml version="1.0" encoding="UTF-8"?>
<svg width="135px" height="15px" viewBox="0 0 135 15" version="1.1" xmlns="http://www.w3.org/2000/svg" xmlns:xlink="http://www.w3.org/1999/xlink">
    <!-- Generator: Sketch 63.1 (92452) - https://sketch.com -->
    <title>logos / 5</title>
    <desc>Created with Sketch.</desc>
    <g id="Page-1" stroke="none" stroke-width="1" fill="none" fill-rule="evenodd">
        <g id="1.0-Desktop" transform="translate(-1151.000000, -2857.000000)" fill="#4A4A4A" fill-rule="nonzero">
            <g id="Clients" transform="translate(590.000000, 2634.000000)">
                <g id="logos-/-5" transform="translate(561.000000, 223.000000)">
                    <path d="M60.4733265,12.6949721 L66.0973,12.6949721 L65.2557982,14.552178 L58.3134085,14.5514164 L58.3134085,0.390578676 L60.4752304,0.390578676 L60.4737073,12.6951625 L60.4733265,12.6949721 Z M71.1823925,0.00019038502 C73.04911,0.00019038502 74.6445441,0.840740247 75.064343,1.11489468 L74.3008991,2.80456173 C73.7763884,2.48090719 72.5074722,1.84597315 71.2109502,1.84597315 C69.66312,1.84597315 68.6978604,2.51041687 68.6978604,3.68890014 C68.6978604,6.73125276 75.7668638,5.06252806 75.7668638,10.3733182 C75.7668638,12.7864483 73.8420636,14.5522694 70.4722564,14.5522694 L66.9415662,14.5499847 L67.7811641,12.6946827 L70.4122851,12.6939212 C72.2504524,12.6939212 73.4974667,12.0047274 73.4974667,10.5330512 C73.4974667,6.92620702 66.4579882,8.83196106 66.4579882,3.84672932 C66.4579882,1.50880128 68.3104345,0 71.1823925,0 M80.7559032,4.58990106 L79.8591898,14.5517972 L77.6288293,14.5517972 L79.119544,0.390007521 L81.0186345,0.390007521 L85.2632685,9.27337254 L89.3584503,0.390007521 L91.2613486,0.390007521 L92.7473037,14.5517972 L90.5493086,14.5517972 L89.616422,4.37191021 L85.6430867,12.9887362 L84.7701713,12.9887362 L80.7559032,4.58990106 L80.7559032,4.58990106 Z M98.1512835,11.17094 L96.9128289,14.5512261 L94.6167856,14.5512261 L100.219817,0.269493803 L101.740041,0.269493803 L107.274534,14.5512261 L104.886154,14.5512261 L103.649603,11.17094 L98.1512835,11.17094 L98.1512835,11.17094 Z M100.901395,3.66310678 L98.8147752,9.36228234 L102.987063,9.36228234 L100.901395,3.66310678 L100.901395,3.66310678 Z M126.046116,14.5516068 L123.969015,14.5516068 L123.969015,0.389817136 L125.719605,0.389817136 L132.841909,10.190838 L132.841909,0.389817136 L134.91901,0.389817136 L134.91901,14.5516068 L133.409256,14.5516068 L126.046116,4.42121993 L126.046116,14.5516068 L126.046116,14.5516068 Z M118.223485,10.1903582 L118.223485,0.39028929 L120.300585,0.39028929 L120.300585,14.5511271 L118.790832,14.5511271 L111.427691,4.42169208 L111.427691,14.5511271 L109.351543,14.5511271 L109.351543,0.39028929 L111.101181,0.39028929 L118.223485,10.1903582 L118.223485,10.1903582 Z M49.5565505,6.21179104 L54.5636841,6.20950642 L54.5644457,8.04196223 L49.5554082,8.04196223 L49.5546466,12.7187702 L55.5679575,12.7187702 L55.5671959,14.552178 L47.3949266,14.5514164 L47.3949266,0.389626751 L55.3530128,0.38734213 L55.3530128,2.22265372 L49.5577004,2.22189218 L49.5569389,6.21141027 L49.5565505,6.21179104 Z M2.08566789,12.875777 L4.47880759,12.8750154 C6.35219618,12.8750154 7.66299704,12.0354175 7.66299704,10.5151931 C7.66299704,8.58564093 6.00950315,7.79078347 3.91907563,7.79078347 L3.26415116,7.79078347 L4.01046044,6.12205877 C5.11374163,6.12205877 7.01949568,5.94214493 7.01949568,3.92406372 C7.01949568,2.98356172 6.40169629,2.03163662 4.34744193,2.03163662 L2.08566789,2.03163662 L2.08566789,12.8759673 L2.08566789,12.875777 Z M0,0.328452236 L4.56733662,0.328452236 C7.88384367,0.328452236 9.18512528,1.97337881 9.18512528,3.85723858 C9.18512528,5.31178013 8.25033483,6.28464758 7.32791941,6.78821596 C8.4654699,7.22324573 9.86004017,8.16565157 9.86004017,10.3645986 C9.86004017,12.5873437 8.32077729,14.6111364 4.52830769,14.6111364 L0,14.6111364 L0,0.328452236 Z M40.9903745,2.24125053 L40.9903745,14.5515459 L38.8295045,14.5515459 L38.8295045,2.24125053 L34.8609288,2.24125053 L34.8609288,0.387852362 L44.9589503,0.387852362 L44.9589503,2.24125053 L40.9903745,2.24125053 Z M14.7832064,6.21182912 L19.7912843,6.2095445 L19.7912843,8.04200031 L14.7832064,8.04200031 L14.7816833,12.7188083 L20.7949942,12.7188083 L20.7942326,14.5522161 L12.6219557,14.5514545 L12.6219557,0.389664828 L20.5800495,0.387380207 L20.5800495,2.2226918 L14.7847295,2.22193026 L14.7839679,6.21144835 L14.7832064,6.21182912 Z M26.7666107,7.44066542 L27.041717,7.44066542 C29.1235772,7.44066542 30.6533209,6.69245229 30.6533209,4.54586119 C30.6533209,3.15509862 29.6442803,2.07847134 27.8955939,2.07847134 L26.0983593,2.07847134 L26.0953131,14.5515459 L23.9829913,14.5515459 L23.9829913,0.389756212 L28.4075392,0.389756212 C31.5822094,0.389756212 32.8768275,2.39355854 32.8768275,4.59440937 C32.8768275,6.70863502 31.5688824,7.99087812 29.972504,8.53728313 L33.988676,14.5515459 L31.3404204,14.5515459 L26.7663822,7.44066542 L26.7666107,7.44066542 Z" id="path4925"></path>
                </g>
            </g>
        </g>
    </g>
</svg>