<?xml version="1.0" encoding="UTF-8"?>
<svg width="135px" height="22px" viewBox="0 0 135 22" version="1.1" xmlns="http://www.w3.org/2000/svg" xmlns:xlink="http://www.w3.org/1999/xlink">
    <!-- Generator: Sketch 63.1 (92452) - https://sketch.com -->
    <title>logos / 6</title>
    <desc>Created with Sketch.</desc>
    <g id="Page-1" stroke="none" stroke-width="1" fill="none" fill-rule="evenodd">
        <g id="1.0-Desktop" transform="translate(-1384.000000, -2857.000000)" fill="#4A4A4A" fill-rule="nonzero">
            <g id="Clients" transform="translate(590.000000, 2634.000000)">
                <g id="logos-/-6" transform="translate(794.000000, 223.000000)">
                    <path d="M85.5117537,13.1084328 C84.70125,16.4694963 82.1658022,17.8854851 77.9213619,17.8854851 C75.0406903,17.8854851 72.5067537,17.3070336 71.2032649,16.0000187 C69.7897948,14.61375 69.5770522,12.70125 69.5770522,10.6572761 L69.5770522,0.634365672 L72.8022761,0.634365672 L72.8022761,10.4858396 C72.8022761,12.7111567 72.9851306,14.0386567 73.8547388,15.0162313 C74.8420522,16.1623881 76.5476866,16.4977052 77.9863433,16.4977052 C81.0288806,16.4977052 83.0557276,15.5122388 83.6058022,12.8350746 C83.7329104,12.2183396 83.8318097,11.4627425 83.8318097,10.2962687 L83.8318097,0.634365672 L85.8170149,0.634365672 L85.8170149,9.62110075 C85.8170149,11.2993657 85.7201306,12.2470522 85.5117537,13.1084328" id="Path"></path>
                    <path d="M101.853638,3.83440299 L98.1179664,11.6239366 L105.405112,11.6239366 L101.853638,3.83440299 M108.064478,17.5115485 L105.937556,12.7714366 L97.5663806,12.7714366 L95.2883396,17.5115485 L93.2411754,17.5115485 L101.660037,0.634365672 L103.666063,0.634365672 L111.90375,17.5115485 L108.064478,17.5115485 L108.064478,17.5115485 Z" id="Shape"></path>
                    <path d="M25.02,3.83440299 L21.2873507,11.6239366 L28.5760075,11.6239366 L25.02,3.83440299 M31.2340299,17.5115485 L29.1104664,12.7714366 L20.737444,12.7714366 L18.4563806,17.5115485 L16.4103918,17.5115485 L24.8294216,0.634365672 L26.8339366,0.634365672 L35.0749813,17.5115485 L31.2340299,17.5115485 L31.2340299,17.5115485 Z" id="Shape"></path>
                    <path d="M52.6439552,17.8839739 C47.0705037,17.8839739 41.7736007,15.9666045 41.7736007,9.48559701 C41.7736007,7.37932836 42.7083582,5.22033582 44.1199813,3.67505597 C46.3328731,1.27309701 49.6932649,0.315 52.8662687,0.315 C54.7849813,0.315 57.0076119,0.750223881 58.7369216,1.62940299 L58.7369216,3.63408582 C57.1696455,2.46526119 55.106194,1.65929104 53.0939552,1.65929104 C48.5091604,1.65929104 45.3472388,4.5273694 45.3472388,9.27251866 C45.3472388,13.5675 48.1374067,16.5072761 52.4293657,16.5072761 C53.5216231,16.5072761 55.0333209,16.3130037 56.0730224,15.9143843 L56.0730224,9.75257463 L59.2982463,9.75257463 L59.2982463,16.6327052 C57.4063993,17.4846828 54.7213433,17.8839739 52.6439552,17.8839739" id="Path"></path>
                    <path d="M125.713041,1.80604478 L123.341306,1.80604478 L123.341306,9.88001866 L125.415672,9.88001866 C127.154888,9.88001866 128.194757,9.55561567 129.005261,8.90227612 C129.860765,8.21535448 130.372556,7.16171642 130.372556,5.7375 C130.372388,2.88537313 128.299534,1.80604478 125.713041,1.80604478 M131.19431,17.5117164 L126.722351,11.0308769 L123.341306,11.0308769 L123.341306,17.5117164 L120.114235,17.5117164 L120.114235,0.634533582 L126.218451,0.634533582 C128.695131,0.634533582 131.173489,0.993526119 132.553377,2.51815299 C133.275056,3.31488806 133.667631,4.42276119 133.667631,5.84848881 C133.667631,8.45714552 131.701063,10.0371828 129.949422,10.6587873 L134.90916,17.5117164 L131.19431,17.5117164 L131.19431,17.5117164 Z" id="Shape"></path>
                    <path d="M2.77875,20.9807463 C1.92677239,21.3812127 0.99369403,21.6465112 0.0334141791,21.6465112 C2.24462687,20.0476679 3.17938433,18.4212873 3.49891791,15.7283396 C3.68647388,14.2341045 3.68647388,12.7397015 3.68647388,11.2469776 L3.68647388,0.634701493 L6.91354478,0.634701493 L6.91354478,13.4076493 C6.91371269,16.5264179 5.71348881,19.5420896 2.77875,20.9807463" id="Path"></path>
                </g>
            </g>
        </g>
    </g>
</svg>