<?xml version="1.0" encoding="UTF-8"?>
<svg width="136px" height="26px" viewBox="0 0 136 26" version="1.1" xmlns="http://www.w3.org/2000/svg" xmlns:xlink="http://www.w3.org/1999/xlink">
    <!-- Generator: Sketch 63.1 (92452) - https://sketch.com -->
    <title>logos / 7</title>
    <desc>Created with Sketch.</desc>
    <g id="Page-1" stroke="none" stroke-width="1" fill="none" fill-rule="evenodd">
        <g id="1.0-Desktop" transform="translate(-885.000000, -2993.000000)" fill="#4A4A4A">
            <g id="Clients" transform="translate(590.000000, 2634.000000)">
                <path d="M414.218407,370.31292 C414.885575,370.336814 415.393982,370.959646 415.393982,371.632389 L415.393982,377.018319 C415.393982,377.705133 414.865398,378.286018 414.178584,378.286018 C413.439469,378.286018 412.910885,377.705133 412.910885,377.018319 L412.910885,371.632389 C412.910885,370.961239 413.46708,370.339735 414.133982,370.313186 L414.218407,370.313186 L414.218407,370.31292 Z M408.736106,368.305841 C409.687876,367.672389 410.216195,367.249735 411.325664,366.774779 C412.118407,366.457788 412.646726,366.352124 413.49177,366.352124 C414.126283,366.352124 414.601504,366.352124 415.077257,366.722212 C415.552478,367.091504 415.499912,367.302301 415.499912,368.25354 L415.499912,369.784602 C415.499912,369.784602 414.865398,369.203451 414.178584,368.886726 C413.809558,368.728496 413.280973,368.622566 412.805221,368.622566 C409.792743,368.622566 407.732566,371.209735 407.732566,374.43115 C407.732566,377.335841 409.476018,380.081504 412.382566,380.081504 C413.069381,380.081504 413.756195,379.923009 414.231947,379.763717 C415.130619,379.448053 415.499912,379.131062 415.499912,379.131062 L415.499912,379.606283 L421.68177,379.606283 L421.68177,378.180354 L420.414071,378.180354 L420.414071,369.521239 C420.255575,366.774779 419.621327,366.563982 418.406195,365.718673 C417.82531,365.243451 416.556549,364.979292 416.02823,364.926726 C415.499912,364.873363 414.918761,364.821062 414.390442,364.821062 C412.276637,364.821062 410.322124,365.401947 408.736106,366.510619 L408.736106,368.305841 Z M399.489469,365.718673 L399.489469,366.66885 L400.810265,366.66885 L400.810265,378.127522 L399.489469,378.127522 L399.489469,379.55292 L407.362478,379.55292 L407.362478,378.127522 L406.041947,378.127522 L406.041947,366.66885 L407.362478,366.66885 L407.362478,365.349381 L406.041947,365.349381 L406.041947,359.487434 L399.489469,365.718673 Z M422.632743,360.174248 L422.632743,361.600177 L423.795575,361.600177 L423.795575,378.180354 L422.527876,378.180354 L422.527876,379.606283 L430.13646,379.606283 L430.13646,378.180354 L428.815664,378.180354 L428.815664,360.174248 L422.632743,360.174248 Z M397.429027,368.305841 C397.429027,365.929469 395.420885,364.873363 392.938319,364.873363 C391.405133,364.873363 390.242566,365.349381 389.397522,366.299558 L389.397522,365.349381 L382.951239,365.349381 L382.951239,366.66885 L384.272301,366.66885 L384.272301,378.127522 L382.951239,378.127522 L382.951239,379.55292 L390.718584,379.55292 L390.718584,378.127522 L389.397522,378.127522 L389.397522,368.200708 C389.397522,367.40823 390.084071,366.774779 390.824248,366.774779 C391.616991,366.774779 392.303805,367.40823 392.303805,368.200708 L392.303805,379.55292 L398.750088,379.55292 L398.750088,378.127522 L397.429027,378.127522 L397.429027,368.305841 Z M312.570442,366.035398 C313.256726,366.035398 313.838142,366.66885 313.838142,367.355664 L313.838142,377.388407 C313.838142,378.127522 313.256726,378.708673 312.570442,378.708673 C311.830265,378.708673 311.24885,378.127522 311.24885,377.388407 L311.24885,367.355664 C311.24885,366.66885 311.830265,366.035398 312.570442,366.035398 Z M312.411416,380.133805 C316.163274,380.133805 319.122124,376.595664 319.122124,372.266637 C319.122124,367.950088 316.339027,364.631504 312.605752,364.610531 L312.605752,364.61 L312.501947,364.61 L312.501947,364.611062 C308.729115,364.650619 305.701239,367.962566 305.701239,372.266637 C305.701239,376.595664 308.660088,380.133805 312.411416,380.133805 Z M367.839469,368.305841 C367.839469,365.929469 365.831593,364.873363 363.347965,364.873363 C361.815575,364.873363 360.653274,365.349381 359.861062,366.299558 L359.861062,365.349381 L353.414513,365.349381 L353.414513,366.66885 L354.735575,366.66885 L354.735575,378.127522 L353.414513,378.127522 L353.414513,379.55292 L361.182124,379.55292 L361.182124,378.127522 L359.861062,378.127522 L359.861062,368.200708 C359.861062,367.40823 360.494779,366.774779 361.287522,366.774779 C362.079735,366.774779 362.713982,367.40823 362.713982,368.200708 L362.713982,379.55292 L369.16,379.55292 L369.16,378.127522 L367.839469,378.127522 L367.839469,368.305841 Z M336.188673,365.718673 L336.188673,366.66885 L337.51,366.66885 L337.51,378.127522 L336.188673,378.127522 L336.188673,379.55292 L344.061947,379.55292 L344.061947,378.127522 L342.793717,378.127522 L342.793717,366.66885 L344.061947,366.66885 L344.061947,365.349381 L342.793717,365.349381 L342.793717,359.487434 L336.188673,365.718673 Z M334.127965,368.305841 C334.127965,365.929469 332.120088,364.873363 329.636991,364.873363 C328.157168,364.873363 326.942301,365.349381 326.149558,366.299558 L326.149558,365.349381 L319.702743,365.349381 L319.702743,366.66885 L321.024336,366.66885 L321.024336,378.127522 L319.702743,378.127522 L319.702743,379.55292 L327.470354,379.55292 L327.470354,378.127522 L326.149558,378.127522 L326.149558,368.200708 C326.149558,367.40823 326.783805,366.774779 327.576283,366.774779 C328.368761,366.774779 329.003009,367.40823 329.003009,368.200708 L329.003009,379.55292 L335.449558,379.55292 L335.449558,378.127522 L334.127965,378.127522 L334.127965,368.305841 Z M318.752301,365.349381 L318.752301,363.659027 L313.626814,359.012212 L313.626814,360.596637 C311.566106,359.64646 310.244779,359.382301 308.025841,359.382301 C300.998407,359.487434 295.185841,364.926726 295.133009,371.896549 C295.02708,378.972035 300.945575,384.2 308.025841,384.674956 C311.513009,384.886549 315.47646,383.830708 318.646372,380.714956 L318.646372,378.972035 C316.321504,381.295841 314.472124,382.404513 311.354779,382.404513 C305.965398,382.404513 302.107611,377.652566 302.055044,372.266637 C302.002212,366.827345 305.912566,361.917168 311.354779,361.863805 C314.524956,361.863805 316.743894,362.86708 318.752301,365.349381 Z M345.488938,362.180531 C345.488938,360.965929 346.809469,359.699027 348.447522,359.699027 C350.138407,359.699027 351.459469,360.965929 351.459469,362.180531 C351.459469,363.395664 350.138407,364.715133 348.447522,364.715133 C346.809469,364.715133 345.488938,363.395664 345.488938,362.180531 Z M351.300708,365.349381 L344.854159,365.349381 L344.854159,366.66885 L346.175752,366.66885 L346.175752,378.127522 L344.854159,378.127522 L344.854159,379.55292 L352.62177,379.55292 L352.62177,378.127522 L351.300708,378.127522 L351.300708,365.349381 Z M375.92354,366.193894 C376.610088,366.193894 377.244602,366.827345 377.244602,367.514159 L377.244602,371.685752 L374.602478,371.685752 L374.602478,367.514159 C374.602478,366.827345 375.184159,366.193894 375.92354,366.193894 Z M374.602478,375.382124 L374.602478,372.900088 L382.58115,372.900088 C382.58115,372.846726 382.633717,372.793894 382.633717,372.741593 C382.633717,372.582566 382.633717,372.425133 382.633717,372.319469 C382.633717,367.949558 379.692655,365.049646 375.957257,365.032124 L375.957257,365.031858 L375.905487,365.031858 L375.905487,365.032124 C372.162389,365.041416 369.212832,367.943451 369.212832,372.319469 C369.212832,376.649027 372.171681,380.028142 375.92354,380.028142 C378.988319,380.028142 382.105398,377.863628 382.52885,374.536814 L381.049292,374.536814 C381.049292,374.536814 380.519912,378.550442 376.610088,378.49708 C375.448319,378.49708 374.549646,377.599204 374.602478,375.382124 L374.602478,375.382124 Z" id="logos-/-7"></path>
            </g>
        </g>
    </g>
</svg>