<?xml version="1.0" encoding="UTF-8"?>
<svg width="150px" height="22px" viewBox="0 0 150 22" version="1.1" xmlns="http://www.w3.org/2000/svg" xmlns:xlink="http://www.w3.org/1999/xlink">
    <!-- Generator: Sketch 63.1 (92452) - https://sketch.com -->
    <title>logos / 8</title>
    <desc>Created with Sketch.</desc>
    <g id="Page-1" stroke="none" stroke-width="1" fill="none" fill-rule="evenodd">
        <g id="1.0-Desktop" transform="translate(-1157.000000, -2992.000000)" fill="#4A4A4A" fill-rule="nonzero">
            <g id="Clients" transform="translate(590.000000, 2634.000000)">
                <g id="logos-/-8" transform="translate(567.000000, 358.000000)">
                    <polygon id="Path" points="77.6329787 2.71276596 77.3138298 1.75531915 77.6329787 0.079787234 77.4734043 0 73.0851064 3.67021277 73.0851064 3.75"></polygon>
                    <path d="M10.6117021,20.106383 C9.81479374,20.9236962 8.72130489,21.3841125 7.57978723,21.3829787 C4.06914894,21.3829787 3.19148936,18.2712766 3.19148936,14.6010638 C3.19148936,10.9308511 3.9893617,7.81914894 7.5,7.81914894 C8.60043971,7.79241613 9.65477528,8.26100972 10.3723404,9.09574468 L12.3670213,12.1276596 L12.5265957,12.1276596 L12.5265957,7.57978723 L12.3670213,7.57978723 L10.5319149,8.53723404 C9.68471577,7.81884691 8.61077342,7.42318394 7.5,7.42021277 C4.06914894,7.42021277 0,10.0531915 0,14.6808511 C0,19.3085106 3.9893617,21.9414894 7.57978723,21.9414894 C8.75180499,21.9332298 9.88281856,21.5090997 10.7712766,20.7446809 L12.5265957,21.7819149 L12.6861702,21.7819149 L12.6861702,16.9946809 L12.5265957,16.9946809 L10.6117021,20.106383 Z" id="Path"></path>
                    <path d="M23.6968085,7.34042553 C20.3457447,7.34042553 16.356383,10.212766 16.356383,14.6010638 C16.356383,18.9893617 20.3457447,21.8617021 23.6968085,21.8617021 C27.0478723,21.8617021 31.037234,18.9893617 31.037234,14.6010638 C31.037234,10.212766 27.1276596,7.34042553 23.6968085,7.34042553 Z M23.6968085,21.3829787 C20.3457447,21.3829787 19.4680851,18.4308511 19.4680851,14.6010638 C19.4680851,10.7712766 20.3457447,7.81914894 23.6968085,7.81914894 C27.0478723,7.81914894 27.9255319,10.7712766 27.9255319,14.6010638 C27.9255319,18.4308511 27.1276596,21.3829787 23.6968085,21.3829787 Z" id="Shape"></path>
                    <polygon id="Path" points="43.7234043 7.9787234 45.4787234 7.9787234 45.4787234 16.7553191 45.3989362 16.7553191 39.1755319 7.57978723 33.5904255 7.57978723 33.5904255 7.9787234 35.2659574 7.9787234 35.2659574 21.2234043 33.5904255 21.2234043 33.5904255 21.6223404 37.5797872 21.6223404 37.5797872 21.2234043 35.8244681 21.2234043 35.8244681 7.9787234 35.8244681 7.9787234 45.8776596 21.8617021 46.037234 21.8617021 46.037234 7.9787234 47.712766 7.9787234 47.712766 7.57978723 43.7234043 7.57978723"></polygon>
                    <path d="M57.0478723,7.57978723 L50.7446809,7.57978723 L50.7446809,7.9787234 L52.5797872,7.9787234 L52.5797872,21.2234043 L50.7446809,21.2234043 L50.7446809,21.6223404 L57.0478723,21.6223404 C60.1595745,21.6223404 65.3457447,20.2659574 65.3457447,14.5212766 C65.3457447,8.77659574 60.1595745,7.57978723 57.0478723,7.57978723 Z M56.8882979,21.2234043 L55.3723404,21.2234043 L55.3723404,7.9787234 L56.8882979,7.9787234 C60.5585106,7.9787234 62.2340426,10.6117021 62.2340426,14.6010638 C62.2340426,18.5904255 60.5585106,21.2234043 56.8882979,21.2234043 Z" id="Shape"></path>
                    <path d="M77.8723404,21.2234043 L72.606383,21.2234043 L72.606383,14.2819149 L75.2393617,14.2819149 C75.9908683,15.0832791 76.6102906,15.9989469 77.0744681,16.9946809 L77.2340426,16.9946809 L77.2340426,11.1702128 L77.0744681,11.1702128 C76.6102906,12.1659467 75.9908683,13.0816145 75.2393617,13.8829787 L72.606383,13.8829787 L72.606383,7.9787234 L77.3138298,7.9787234 C78.6702128,8.85638298 79.8670213,11.3297872 79.8670213,11.3297872 L80.0265957,11.3297872 L80.0265957,7.57978723 L67.9787234,7.57978723 L67.9787234,7.9787234 L69.8138298,7.9787234 L69.8138298,21.2234043 L67.9787234,21.2234043 L67.9787234,21.6223404 L80.4255319,21.6223404 L80.4255319,16.9148936 L80.2659574,16.9148936 C79.6891786,18.4632103 78.8822356,19.9157078 77.8723404,21.2234043 Z" id="Path"></path>
                    <polygon id="Path" points="99.4148936 7.9787234 101.170213 7.9787234 101.170213 16.7553191 101.090426 16.7553191 94.8670213 7.57978723 89.2021277 7.57978723 89.2021277 7.9787234 90.9574468 7.9787234 90.9574468 21.2234043 89.2021277 21.2234043 89.2021277 21.6223404 93.1914894 21.6223404 93.1914894 21.2234043 91.5159574 21.2234043 91.5159574 7.9787234 91.5159574 7.9787234 101.569149 21.8617021 101.648936 21.8617021 101.648936 7.9787234 103.404255 7.9787234 103.404255 7.57978723 99.4148936 7.57978723"></polygon>
                    <path d="M112.420213,7.10106383 L112.260638,7.10106383 L106.276596,21.143617 L104.601064,21.143617 L104.601064,21.5425532 L108.351064,21.5425532 L108.351064,21.143617 L106.755319,21.143617 L108.909574,16.1170213 L113.457447,16.1170213 L115.771277,21.143617 L113.93617,21.143617 L113.93617,21.5425532 L120.478723,21.5425532 L120.478723,21.143617 L118.803191,21.143617 L112.420213,7.10106383 Z M109.148936,15.7978723 L111.223404,10.9308511 L113.37766,15.7978723 L109.148936,15.7978723 L109.148936,15.7978723 Z" id="Shape"></path>
                    <path d="M130.37234,13.4042553 L127.579787,12.4468085 C126.223404,11.9680851 125.106383,11.3297872 125.106383,9.97340426 C125.106383,8.61702128 126.303191,7.7393617 128.138298,7.7393617 C129.066036,7.66184662 129.977955,8.01484752 130.611702,8.69680851 L132.606383,11.7287234 L132.765957,11.7287234 L132.765957,7.2606383 L132.606383,7.2606383 L130.771277,8.21808511 C130.042034,7.58462509 129.1041,7.24355823 128.138298,7.2606383 C126.989637,7.19534346 125.863957,7.60089552 125.020867,8.38376515 C124.177777,9.16663477 123.690066,10.2592301 123.670213,11.4095745 C123.670213,13.4042553 125.106383,14.4414894 126.62234,15 L129.414894,16.037234 C130.930851,16.5957447 131.888298,17.2340426 131.888298,18.6702128 C131.888298,20.106383 130.930851,21.3031915 128.537234,21.3031915 C127.374686,21.2465515 126.258879,20.8281239 125.345745,20.106383 L123.271277,16.6755319 L123.031915,16.6755319 L123.031915,21.5425532 L123.271277,21.5425532 L125.026596,20.5851064 C125.993962,21.3191617 127.164142,21.7370828 128.37766,21.7819149 C131.409574,21.7819149 133.404255,19.6276596 133.404255,17.2340426 C133.404255,14.8404255 132.12766,13.962766 130.37234,13.4042553 Z" id="Path"></path>
                    <path d="M136.675532,7.57978723 L136.675532,11.9680851 L136.835106,11.9680851 C137.5172,10.5551333 138.346243,9.21796724 139.308511,7.9787234 L141.781915,7.9787234 L141.781915,21.2234043 L139.547872,21.2234043 L139.547872,21.6223404 L146.808511,21.6223404 L146.808511,21.2234043 L144.574468,21.2234043 L144.574468,7.9787234 L147.047872,7.9787234 C148.01014,9.21796724 148.839183,10.5551333 149.521277,11.9680851 L149.680851,11.9680851 L149.680851,7.65957447 L136.675532,7.65957447 L136.675532,7.57978723 Z" id="Path"></path>
                </g>
            </g>
        </g>
    </g>
</svg>