<?xml version="1.0" encoding="UTF-8"?>
<svg width="135px" height="45px" viewBox="0 0 135 45" version="1.1" xmlns="http://www.w3.org/2000/svg" xmlns:xlink="http://www.w3.org/1999/xlink">
    <!-- Generator: Sketch 63.1 (92452) - https://sketch.com -->
    <title>logos / 9</title>
    <desc>Created with Sketch.</desc>
    <g id="Page-1" stroke="none" stroke-width="1" fill="none" fill-rule="evenodd">
        <g id="1.0-Desktop" transform="translate(-1391.000000, -2971.000000)" fill="#4A4A4A" fill-rule="nonzero">
            <g id="Clients" transform="translate(590.000000, 2634.000000)">
                <path d="M913.797667,374.6965 C913.795642,374.6965 913.380175,375.06691 913.380175,375.06691 C912.786507,375.597634 912.175625,376.165821 911.43818,375.881643 C911.234497,375.807561 911.091226,375.536209 911.056801,375.325606 C911.023253,373.806503 911.707339,372.398911 912.370702,371.028376 L912.540804,370.669947 C914.449049,367.483779 916.667122,363.729525 919.924706,361.123997 C920.473656,360.727937 921.069383,360.395125 921.698085,360.654699 C921.842705,360.790206 922.01112,361.025109 922.01112,361.259505 C922.01112,361.333925 921.945171,361.531364 921.907,361.59279 C920.997225,363.06309 920.130719,364.606696 919.288107,366.088472 C917.641427,369.01564 915.933187,372.041022 913.7976,374.696837 L913.797667,374.6965 Z M896.146907,367.187721 C896.022199,367.274628 893.821508,366.533302 893.396253,364.495658 C893.035462,362.741314 894.243522,361.37051 895.412364,360.679505 C895.914063,360.28412 896.669768,360.148612 897.224083,360.345377 C897.738607,360.691655 897.877996,361.309624 897.877996,361.975519 C897.877996,362.383898 897.823861,362.803415 897.77607,363.186144 C897.77607,363.186144 897.766958,363.260564 897.765473,363.272882 C897.398775,364.643282 896.837676,365.989651 896.146941,367.187788 L896.146907,367.187721 Z M887.740369,375.474783 C887.515929,375.141329 887.441509,374.776691 887.434084,374.382486 C887.391019,371.960899 889.996411,367.624316 891.835468,365.261791 L891.839518,365.261791 C892.610241,366.949308 894.355404,368.034045 895.408956,368.49116 C894.100454,371.405975 889.612805,377.648306 887.740875,375.474783 L887.740369,375.474783 Z M919.502152,375.904762 C919.066604,376.201091 918.454676,375.973276 918.683503,375.294218 C919.253378,373.565188 921.519073,370.041651 921.519073,370.041651 L927.829714,358.848684 L923.506969,358.848684 C923.301598,359.186187 922.862168,359.96123 922.862168,359.96123 C922.662198,359.628114 922.064175,358.887294 921.817933,358.727317 C920.761884,358.059904 919.212405,358.37547 918.143531,358.980445 C913.496243,361.697888 910.105547,367.06703 907.431169,371.253424 C907.431169,371.253424 904.616255,375.907597 903.053613,376.253741 C901.83374,376.35263 901.959562,374.709325 902.012415,374.326461 C902.484076,371.559607 903.579444,368.929239 904.68308,366.545654 C906.927614,364.989628 909.489266,362.951917 911.81723,360.716631 C916.869321,355.887292 921.128278,350.416023 921.750634,349.193585 C921.750634,349.193585 921.076808,349.329599 920.281144,349.354068 C916.394453,354.775725 908.440845,362.655757 906.029719,363.828244 C907.097918,361.259033 913.999528,348.995639 919.872765,343.129827 L920.796984,342.240303 C922.225974,340.844726 923.706805,339.412158 924.860662,339.177458 C924.982501,339.165173 925.13944,339.177458 925.274948,339.461974 C925.326451,340.5486 924.921919,341.351454 924.457851,342.265278 L923.807482,343.599295 C923.807482,343.599295 924.728732,343.426324 925.333673,343.22821 C926.03568,341.907356 926.813154,340.424905 926.526546,338.659222 C926.430863,338.091041 926.019615,337.658861 925.482175,337.559973 C923.730194,337.226519 921.820801,338.52287 920.284485,339.572979 L920.222385,339.609767 C912.324802,345.797219 905.655732,354.7144 899.825021,366.891528 C899.402466,367.212156 897.769759,367.595425 897.492196,367.409933 C898.067977,366.224621 898.792935,364.631064 899.155751,362.902101 C899.218527,362.407996 899.276915,361.901876 899.276915,361.407973 C899.276915,360.344972 899.021762,359.345016 898.069462,358.653606 C896.953,358.097738 895.573151,358.357278 894.642789,358.776964 C890.474958,360.505995 887.360137,364.779464 885.112364,368.298614 C883.903426,370.534575 882.697998,372.929297 882.364275,375.671716 C882.129204,377.820264 882.607784,379.203488 883.829378,379.89537 C885.085701,380.537133 886.666973,379.870058 887.288114,379.549261 C891.510418,377.326327 894.460739,372.868176 896.786139,368.792348 C896.878615,368.780198 898.148303,368.74341 899.108703,368.49602 C899.121528,368.49602 899.126928,368.49602 899.148191,368.50898 C899.093178,368.693426 898.596879,370.17591 898.596879,370.17591 C897.123001,374.498115 896.441446,377.437636 897.833581,379.179154 C899.822962,381.63699 903.116524,379.093091 905.795964,375.733243 C905.220858,379.759323 907.30744,380.389442 908.89796,380.080964 C910.725069,379.587196 912.761025,377.635413 913.7059,376.63539 C913.402484,377.808417 913.485004,379.908162 915.14704,380.117887 C916.286317,380.328489 917.138851,379.708832 918.125306,379.177602 C921.663828,377.250794 925.900038,370.830464 926.999624,368.974195 L925.557674,368.974195 C923.994358,371.336854 922.004977,374.434664 919.502523,375.905167 L919.502152,375.904762 Z M864.987905,351.929861 L869.037813,351.929861 L871.323522,348.217322 L867.272804,348.217322 L864.987905,351.929861 Z M929.681259,342.067333 C926.593236,343.821338 923.392218,344.95724 919.517002,344.562159 C918.443066,345.772784 917.39748,347.019994 916.433705,348.304263 C921.872372,349.687487 927.638147,346.612358 930.853881,343.685729 C934.255579,340.733924 936,337.016862 936,337.016862 C936,337.016862 933.450161,339.931205 929.681124,342.0674 L929.681259,342.067333 Z M895.627152,341.129073 C894.983195,348.514325 889.242395,352.849896 887.822045,353.194824 C886.961276,353.367457 885.49246,352.984897 886.803594,349.8854 C888.734654,345.710616 892.031389,342.166694 895.568561,340.350925 C895.654624,340.65974 895.652431,340.856842 895.627084,341.12887 L895.627152,341.129073 Z M884.440934,359.740368 C884.029686,358.851384 883.053255,358.283163 882.012799,358.344791 C878.633848,358.653775 875.328879,361.432408 873.593435,365.421565 C872.682851,367.471899 872.185911,369.163669 871.860017,371.855867 C872.910666,370.645917 875.053813,368.657684 877.485864,367.570787 C877.485864,367.570787 877.816786,364.989695 879.50427,362.692511 C880.142827,361.741291 881.42075,360.20997 882.85568,360.617405 C884.109303,361.037596 883.668726,364.50801 882.002471,367.866306 C880.769571,370.336696 878.882926,372.807357 876.974006,374.51121 C875.286353,375.943913 872.7893,377.672808 870.604639,376.339129 C869.228637,375.524396 868.526832,373.819666 868.675131,371.62137 C869.332588,365.384845 872.171533,360.074024 876.233861,354.022585 C880.422955,348.403286 885.040678,342.635891 891.261543,339.559884 C892.530422,338.917783 893.705406,338.769585 894.72109,339.164836 C894.72109,339.164836 888.881603,342.375844 886.097874,348.316582 C885.389792,349.823535 884.404956,351.860706 885.396677,353.663988 C885.914913,354.602383 886.835117,354.676634 887.575937,354.627223 C890.987963,353.836655 893.192334,350.650419 894.99359,347.736076 C896.037826,345.525428 896.965961,343.327064 896.965961,340.881379 C896.965961,340.585051 896.95057,340.190037 896.92546,339.893303 C898.555602,339.029159 901.898237,340.56021 901.898237,340.56021 C904.51038,341.42503 910.072573,345.686079 911.948418,346.500813 C912.863592,345.438892 914.367508,343.833522 915.214237,343.030601 L913.988424,342.277158 C912.025841,341.079156 909.951342,339.942849 907.909445,338.819097 C903.272282,336.287686 899.497507,337.17667 897.576437,337.86835 C896.821442,338.139871 896.131382,338.374605 896.131382,338.374605 C894.705767,336.818579 892.367677,336.966405 890.644924,337.386597 C884.449372,339.164903 878.697299,343.499596 872.530434,351.021065 C867.996412,356.912189 865.183657,362.00073 863.685142,367.026833 C862.529664,370.410509 862.178526,375.387471 864.998705,378.339277 C867.396465,380.845578 870.575951,380.302737 872.821362,379.4014 C877.686003,377.005463 882.058159,371.842671 884.237082,365.902609 C884.762744,364.13679 885.346254,361.642099 884.441103,359.739929 L884.440934,359.740368 Z M830.517994,354.010368 C830.509894,354.035006 829.691785,355.911998 829.691785,355.911998 C829.57349,356.010717 829.386513,355.961476 829.172198,355.911998 L828.804994,355.849897 C827.651947,355.491975 826.782133,354.726145 826.51402,353.812388 C826.144117,352.03388 827.663423,350.63837 828.332827,350.13225 C828.975096,349.687251 829.973634,349.452652 830.553465,349.909835 C830.91105,350.329858 831.046558,350.87307 831.046558,351.466266 C831.046727,352.268849 830.798999,353.170321 830.518027,354.010368 L830.517994,354.010368 Z M828.760613,357.57913 C828.760613,357.57913 828.723487,357.690675 828.705127,357.727125 C828.700402,357.727125 826.845483,360.752507 826.845483,360.752507 C825.725983,362.247108 824.328246,364.124843 822.580923,365.025977 C822.063024,365.198948 821.347145,365.310324 820.982371,364.853681 C820.208948,363.927234 820.607574,362.642898 820.931408,361.605547 L821.045991,361.234969 C821.974463,358.715842 823.447666,356.492369 824.881516,354.429547 C824.899404,354.417397 824.939566,354.405112 824.954079,354.405112 C824.957454,354.417465 824.963192,354.417465 824.965689,354.442237 C825.865474,356.17093 827.552654,356.973379 828.814445,357.34443 C828.822072,357.34443 828.830173,357.356715 828.830173,357.381556 C828.830341,357.418344 828.80972,357.468125 828.760647,357.578826 L828.760613,357.57913 Z M851.964656,355.590897 C852.794375,354.442575 855.209415,351.367243 855.798156,350.848635 C857.77829,349.106576 858.569735,349.873114 858.638249,350.416124 C856.790214,353.725819 854.609131,357.517198 852.55846,360.925984 C852.56251,360.913834 851.916697,361.901504 851.916697,361.901504 C851.010972,363.284459 850.099038,364.470041 848.611525,365.297465 C848.399404,365.359566 848.04975,365.384372 847.817041,365.210895 C847.536913,365.025606 847.426381,364.71679 847.457938,364.395487 C847.547039,363.333701 848.628265,360.086241 851.964622,355.590694 L851.964656,355.590897 Z M831.400565,348.082118 C828.840601,346.402565 823.69536,349.613574 819.574441,355.121092 C815.805877,360.061604 814.17857,365.803754 815.949518,368.459232 C818.583936,371.583705 823.474497,367.039017 825.554194,364.606426 L825.822509,364.32208 C827.236784,362.802976 828.329486,360.975057 829.387087,359.221186 C829.387087,359.221186 830.359097,357.615682 830.405538,357.541431 C831.006294,357.43073 831.729901,357.257759 832.54531,357.023026 C832.5337,357.059813 829.425562,362.284031 829.742681,364.877408 C829.8414,365.668516 829.765968,368.558357 832.587498,369.435056 C836.347962,370.065344 839.351069,367.150292 841.999797,364.55678 C841.999797,364.55678 842.451208,364.124944 842.706529,363.878398 C842.641931,364.137094 842.55769,364.482191 842.55769,364.482191 C841.456753,368.310831 842.940756,369.11409 843.869094,369.410553 C846.674558,370.226097 850.026171,366.150269 850.036971,366.150269 C849.950064,367.434132 849.695924,368.496256 851.049347,369.348452 C852.326797,369.80577 853.619638,369.108656 854.602246,368.454068 C858.141848,365.959377 860.993348,362.055001 863.296337,358.679965 L861.827185,358.679965 C861.809837,358.679965 858.201857,363.909245 855.859109,365.045822 C855.855734,365.045822 855.42913,365.264693 855.183427,365.09152 C854.879337,364.83198 854.999319,364.292649 855.186802,363.910595 C855.198615,363.88562 864.232572,348.217356 864.232572,348.217356 L859.967203,348.217356 C859.967203,348.217356 859.501279,348.971204 859.46331,349.020614 C859.434622,348.995976 859.366278,348.866375 859.318858,348.804274 C856.676206,345.148774 850.691593,350.771583 846.185921,357.291813 C844.451287,359.799127 842.242867,362.622209 839.952905,364.660191 C839.952905,364.660191 836.560455,367.769948 835.110944,365.535675 C834.581064,364.596875 834.744078,363.224451 835.042937,362.323181 C836.73059,357.519021 839.638723,353.159285 842.947945,350.528107 C843.882155,349.79991 844.897501,349.589308 845.401461,349.898157 C845.88156,350.182673 845.959017,350.88603 845.655264,351.367783 C844.884541,351.343145 844.267112,351.577372 843.765109,352.096115 C842.776224,353.133601 842.432645,354.134097 842.747063,355.072896 C844.274469,357.246419 847.320574,352.948514 847.17322,350.330297 C847.120569,349.391497 846.619714,348.502512 845.872346,348.069833 C844.758449,347.403263 843.059051,347.575897 841.95933,348.107296 C840.48714,348.662827 838.156678,350.601582 836.796336,352.108603 C835.083843,353.998488 832.146887,356.09776 831.228337,355.862655 C831.529222,355.059531 834.010042,349.983883 831.400295,348.082523 L831.400565,348.082118 Z M852.84014,375.560981 C847.816738,372.324997 840.999166,371.757181 830.004651,374.807538 C818.283828,377.561905 814.375537,379.327521 809.243458,375.783059 C807.271762,374.041878 806.564827,371.238371 807.092751,367.200344 C808.317078,360.617337 811.625558,354.282058 817.50271,347.255234 C820.783109,343.599734 823.825839,340.462638 827.843818,339.203075 C830.9232,338.412777 830.63531,340.83288 830.262706,341.178956 C829.869514,341.178956 829.20902,341.240921 828.69858,341.574004 C828.284294,341.895307 827.147076,342.932793 827.085988,344.32837 C826.997899,346.464767 829.208885,346.020073 830.162535,344.847113 C831.190436,343.525314 832.709472,340.99397 831.514574,338.63482 C831.013719,337.795111 830.14836,337.214808 829.073884,337.017166 C825.394757,336.806901 821.968084,338.560704 818.805676,340.499662 C811.891578,345.303688 806.35922,351.960608 803.229212,359.247309 C801.424379,363.643765 799.792211,369.941446 802.238842,375.06745 C804.131427,378.624062 808.060643,380.513272 812.748702,380.11819 C816.036527,379.772755 820.011779,378.710126 822.686157,378.068531 C825.359995,377.425925 839.046978,372.72099 843.54455,380.909636 C843.54455,380.909636 845.040029,378.006566 848.77734,377.944668 C851.849972,377.661165 856.282744,378.834192 859.510628,381.204952 C858.435206,379.587635 855.3862,377.20405 852.84257,375.561218 L852.84014,375.560981 Z" id="logos-/-9"></path>
            </g>
        </g>
    </g>
</svg>