<?xml version="1.0" encoding="UTF-8"?>
<svg width="45px" height="48px" viewBox="0 0 45 48" version="1.1" xmlns="http://www.w3.org/2000/svg" xmlns:xlink="http://www.w3.org/1999/xlink">
    <!-- Generator: Sketch 63.1 (92452) - https://sketch.com -->
    <title>logos/angular</title>
    <desc>Created with Sketch.</desc>
    <g id="Page-1" stroke="none" stroke-width="1" fill="none" fill-rule="evenodd">
        <g id="1.0-Desktop" transform="translate(-634.000000, -4802.000000)" fill="#FFFFFF">
            <g id="Partners-&amp;-Stack" transform="translate(590.000000, 4534.000000)">
                <g id="logos/angular" transform="translate(35.000000, 260.000000)">
                    <g id="angular" transform="translate(9.000000, 8.000000)">
                        <g id="Group" fill-rule="nonzero">
                            <polygon id="Path" points="22.56 29.616 16.632 29.616 13.824 36.624 13.824 36.624 8.616 36.624 8.592 36.624 22.56 5.304 22.56 5.328 22.56 5.328 22.56 0 22.56 0 0.216 7.968 3.624 37.512 22.56 48 22.56 48"></polygon>
                            <polygon id="Path" points="18.48 25.296 22.56 25.296 22.56 25.296 22.56 15.48"></polygon>
                        </g>
                        <g id="Group" opacity="0.9" transform="translate(22.560000, 0.000000)" fill-rule="nonzero">
                            <polygon id="Path" points="0 29.616 5.928 29.616 8.736 36.624 8.736 36.624 13.944 36.624 13.968 36.624 0 5.304 0 5.328 0 5.328 0 0 0 0 22.344 7.968 18.936 37.512 0 48 0 48"></polygon>
                            <polygon id="Path" points="4.08 25.296 0 25.296 0 25.296 0 15.48"></polygon>
                        </g>
                    </g>
                </g>
            </g>
        </g>
    </g>
</svg>