<?xml version="1.0" encoding="UTF-8"?>
<svg width="65px" height="34px" viewBox="0 0 65 34" version="1.1" xmlns="http://www.w3.org/2000/svg" xmlns:xlink="http://www.w3.org/1999/xlink">
    <!-- Generator: Sketch 63.1 (92452) - https://sketch.com -->
    <title>logos/bvdw</title>
    <desc>Created with Sketch.</desc>
    <g id="Page-1" stroke="none" stroke-width="1" fill="none" fill-rule="evenodd">
        <g id="1.0-Desktop" transform="translate(-1497.000000, -4615.000000)">
            <g id="Partners-&amp;-Stack" transform="translate(590.000000, 4534.000000)">
                <g id="logos/bvdw" transform="translate(907.500000, 66.000000)">
                    <g id="bvdw" transform="translate(0.000000, 15.000000)">
                        <path d="M63.5166978,3.18196103 L63.5166978,33.6033505 L2.24980268e-13,33.6033505 L2.24980268e-13,-1.0770332e-13 L60.2004832,-1.0770332e-13 C63.5756697,-1.0770332e-13 63.5166978,3.18196103 63.5166978,3.18196103" id="path234" fill="#FFFFFF" fill-rule="nonzero"></path>
                        <path d="M55.1568866,30.7262626 L54.7731183,30.7262626 L50.2528944,19.465508 L45.692413,30.7262626 L45.3086447,30.7262626 L39.7390979,16.8426511 L41.7169762,16.8426511 L45.5108169,26.3268037 L49.3252312,16.8426511 L51.2011288,16.8426511 L55.0361191,26.3268037 L58.7888102,16.8426511 L60.7470071,16.8426511 L55.1568866,30.7262626 Z M28.6152122,28.8292432 L31.7631797,28.8292432 C36.2431474,28.8292432 37.2727913,25.4191707 37.2727913,23.7239746 C37.2727913,20.9588808 35.5167642,18.6178114 31.6620924,18.6178114 L28.6152122,18.6178114 L28.6152122,28.8292432 Z M26.6373339,16.8421053 L31.9850296,16.8421053 C37.070618,16.8421053 39.3106025,20.4749235 39.3106025,23.7239746 C39.3106025,27.2548145 36.5455122,30.6049493 32.0056045,30.6049493 L26.6373339,30.6049493 L26.6373339,16.8421053 Z M19.0694259,30.7262626 L18.6659763,30.7262626 L12.7126635,16.8426511 L14.690543,16.8426511 L18.8269975,26.5083999 L22.9437754,16.8426511 L24.9010777,16.8426511 L19.0694259,30.7262626 L19.0694259,30.7262626 Z M5.34629937,28.8292432 L7.82870862,28.8292432 C10.1492043,28.8292432 10.7745015,27.6788354 10.7745015,26.6500885 C10.7745015,25.3985959 9.80658694,24.5102955 7.72762374,24.5102955 L5.34629937,24.5102955 L5.34629937,28.8292432 Z M5.34629937,22.7345905 L6.65772721,22.7345905 C8.61592296,22.7345905 9.56416096,22.0082037 9.56416096,20.5348587 C9.56416096,19.5061118 8.97911519,18.6178114 7.16226054,18.6178114 L5.34629937,18.6178114 L5.34629937,22.7345905 L5.34629937,22.7345905 Z M3.36842105,16.8421053 L7.36442912,16.8421053 C10.3308004,16.8421053 11.6019733,18.6178126 11.6019733,20.3532626 C11.6019733,21.7863513 10.9364187,22.7149091 9.5033287,23.2999513 L9.5033287,23.3402087 C11.5617194,23.7239746 12.8132121,25.0756587 12.8132121,26.9318773 C12.8132121,28.6279669 11.5420381,30.6049493 8.09081598,30.6049493 L3.36842105,30.6049493 L3.36842105,16.8421053 Z" id="path250" fill="#CFCFCF" fill-rule="nonzero"></path>
                    </g>
                </g>
            </g>
        </g>
    </g>
</svg>