<?xml version="1.0" encoding="UTF-8"?>
<svg width="49px" height="48px" viewBox="0 0 49 48" version="1.1" xmlns="http://www.w3.org/2000/svg" xmlns:xlink="http://www.w3.org/1999/xlink">
    <!-- Generator: Sketch 63.1 (92452) - https://sketch.com -->
    <title>logos/bvmw</title>
    <desc>Created with Sketch.</desc>
    <g id="Page-1" stroke="none" stroke-width="1" fill="none" fill-rule="evenodd">
        <g id="1.0-Desktop" transform="translate(-1505.000000, -4802.000000)" fill="#FFFFFF">
            <g id="Partners-&amp;-Stack" transform="translate(590.000000, 4534.000000)">
                <g id="logos/bvmw" transform="translate(907.500000, 260.000000)">
                    <g id="bvmw" transform="translate(8.000000, 8.000000)">
                        <path d="M47.6721883,24.5858762 C47.2885789,37.3844813 36.7916303,47.7419355 23.8884045,47.7419355 C10.7410636,47.7419355 0.10462075,37.1054926 0.10462075,23.9581517 C0.10462075,11.0897995 10.4969486,0.627724499 23.2955536,0.174367916 L23.2955536,10.1830863 C15.902354,10.4272014 10.1133391,16.4952049 10.1133391,23.9581517 C10.1133391,31.5605929 16.2859634,37.7332171 23.8884045,37.7332171 C31.3164778,37.7332171 37.3844813,31.9442023 37.6634699,24.5858762 L47.6721883,24.5858762 L47.6721883,24.5858762 L47.6721883,24.5858762 Z M25.4577158,0.2092415 L35.4664342,0.2092415 L35.4664342,10.2179599 L25.4577158,10.2179599 L25.4577158,0.2092415 L25.4577158,0.2092415 Z M37.6634699,12.4149956 L47.6721883,12.4149956 L47.6721883,22.423714 L37.6634699,22.423714 L37.6634699,12.4149956 L37.6634699,12.4149956 Z M37.6634699,0.2092415 L47.6721883,0.2092415 L47.6721883,10.2179599 L37.6634699,10.2179599 L37.6634699,0.2092415 L37.6634699,0.2092415 Z M25.4577158,12.4149956 L35.4664342,12.4149956 L35.4664342,22.423714 L25.4577158,22.423714 L25.4577158,12.4149956 L25.4577158,12.4149956 Z" id="Shape" fill-rule="nonzero"></path>
                    </g>
                </g>
            </g>
        </g>
    </g>
</svg>