<?xml version="1.0" encoding="UTF-8"?>
<svg width="43px" height="48px" viewBox="0 0 43 48" version="1.1" xmlns="http://www.w3.org/2000/svg" xmlns:xlink="http://www.w3.org/1999/xlink">
    <!-- Generator: Sketch 63.1 (92452) - https://sketch.com -->
    <title>logos/contentful</title>
    <desc>Created with Sketch.</desc>
    <g id="Page-1" stroke="none" stroke-width="1" fill="none" fill-rule="evenodd">
        <g id="1.0-Desktop" transform="translate(-919.000000, -4705.000000)">
            <g id="Partners-&amp;-Stack" transform="translate(590.000000, 4534.000000)">
                <g id="logos/contentful" transform="translate(318.500000, 163.000000)">
                    <g id="contentful" transform="translate(11.000000, 8.000000)">
                        <path d="M14.1770994,33.617104 L14.1770994,33.617104 C11.6860004,31.133121 10.2859159,27.7598432 10.2859159,24.2419253 C10.2859159,20.7240075 11.6860004,17.3507297 14.1770994,14.8667467 L14.1770994,14.8667467 C16.1976919,12.8461542 16.1976919,9.57012656 14.1770994,7.5495341 C12.1565069,5.52894163 8.88047928,5.52894163 6.85988681,7.5495341 C2.48129391,12.0044335 0.019212,17.9954995 0,24.2419253 C0.0621159412,30.4797337 2.51785932,36.455376 6.85988681,40.9343166 C8.16698095,42.2414107 10.0721122,42.7518891 11.857636,42.2734594 C13.6431598,41.7950298 15.0378126,40.4003769 15.5162423,38.6148531 C15.9946719,36.8293293 15.4841935,34.9241981 14.1770994,33.617104 L14.1770994,33.617104 Z" id="Path" fill="#DADADA" fill-rule="nonzero"></path>
                        <path d="M14.1770994,14.8667467 L14.1770994,14.8667467 C16.6610824,12.3756477 20.0343602,10.9755631 23.5522781,10.9755631 C27.0701959,10.9755631 30.4434737,12.3756477 32.9274567,14.8667467 L32.9274567,14.8667467 C34.9480492,16.8873392 38.2240768,16.8873392 40.2446693,14.8667467 C42.2652618,12.8461542 42.2652618,9.57012656 40.2446693,7.5495341 C35.7897699,3.1709412 29.7987039,0.708859287 23.5522781,0.689647287 C17.3144697,0.751763229 11.3388274,3.20750661 6.85988681,7.5495341 C4.83929435,9.57012656 4.83929435,12.8461542 6.85988681,14.8667467 C8.88047928,16.8873392 12.1565069,16.8873392 14.1770994,14.8667467 L14.1770994,14.8667467 Z" id="Path" fill="#E6E6E6" fill-rule="nonzero"></path>
                        <path d="M32.9274567,33.617104 L32.9274567,33.617104 C30.4434737,36.108203 27.0701959,37.5082875 23.5522781,37.5082875 C20.0343602,37.5082875 16.6610824,36.108203 14.1770994,33.617104 L14.1770994,33.617104 C12.1565069,31.5965115 8.88047928,31.5965115 6.85988681,33.617104 C4.83929435,35.6376964 4.83929435,38.9137241 6.85988681,40.9343166 C11.3147862,45.3129095 17.3058522,47.7749914 23.5522781,47.7942034 C29.7900864,47.7320875 35.7657287,45.2763441 40.2446693,40.9343166 C41.5517634,39.6272224 42.0622418,37.7220912 41.5838121,35.9365674 C41.1053825,34.1510436 39.7107296,32.7563908 37.9252058,32.2779611 C36.139682,31.7995315 34.2345508,32.3100098 32.9274567,33.617104 L32.9274567,33.617104 Z" id="Path" fill="#CFCFCF" fill-rule="nonzero"></path>
                        <circle id="Oval" fill="#FFFFFF" fill-rule="nonzero" transform="translate(10.619345, 11.216857) rotate(-45.020000) translate(-10.619345, -11.216857) " cx="10.6193454" cy="11.2168569" r="5.25924656"></circle>
                        <circle id="Oval" fill="#FFFFFF" fill-rule="nonzero" transform="translate(10.595767, 37.257463) rotate(-45.020000) translate(-10.595767, -37.257463) " cx="10.5957669" cy="37.2574627" r="5.25924656"></circle>
                    </g>
                </g>
            </g>
        </g>
    </g>
</svg>