<?xml version="1.0" encoding="UTF-8"?>
<svg width="64px" height="29px" viewBox="0 0 64 29" version="1.1" xmlns="http://www.w3.org/2000/svg" xmlns:xlink="http://www.w3.org/1999/xlink">
    <!-- Generator: Sketch 63.1 (92452) - https://sketch.com -->
    <title>logos/familienunternehmer</title>
    <desc>Created with Sketch.</desc>
    <g id="Page-1" stroke="none" stroke-width="1" fill="none" fill-rule="evenodd">
        <g id="1.0-Desktop" transform="translate(-1497.000000, -4715.000000)">
            <g id="Partners-&amp;-Stack" transform="translate(590.000000, 4534.000000)">
                <g id="logos/familienunternehmer" transform="translate(907.500000, 163.000000)">
                    <g id="familienunternehmer" transform="translate(0.000000, 18.000000)">
                        <path d="M63.2674024,27.6923965 C63.2674024,27.9245266 63.0796501,28.1149757 62.8449597,28.1149757 C62.8449597,28.1149757 7.41962927,28.1156926 7.41962927,28.1131323 C7.19176626,28.1071584 7.03559049,27.8946569 7.03388365,27.6642337 L7.03388365,6.61293447 L-6.68746104e-13,0.000640064637 L62.8492268,0.000640064637 C63.0813569,0.00320032318 63.2674024,0.190952617 63.2674024,0.421375886 L63.2674024,0.427349823 L63.2674024,27.6923965 Z" id="path7268" fill="#FFFFFF" fill-rule="nonzero" transform="translate(31.633701, 14.057808) scale(-1, 1) rotate(-180.000000) translate(-31.633701, -14.057808) "></path>
                        <path d="M10.5784763,8.00985421 L10.5784763,3.54988382 L12.4978168,3.54988382 C12.8391846,3.54988382 13.1378814,3.60706293 13.3879333,3.72056772 C13.6388387,3.83492594 13.8496333,3.99280855 14.0169035,4.19080187 C14.1833203,4.38794178 14.3104798,4.62775267 14.3941149,4.90084691 C14.4768966,5.17479458 14.5195676,5.47861192 14.5195676,5.80461818 C14.5195676,6.17500225 14.467509,6.5010085 14.3659521,6.77666301 C14.2643952,7.04890383 14.1218741,7.2793271 13.942656,7.46195888 C13.7625845,7.64288382 13.5475228,7.7819912 13.3017379,7.87245367 C13.0550997,7.96291614 12.7845657,8.00985421 12.4978168,8.00985421 L10.5784763,8.00985421 L10.5784763,8.00985421 Z M11.5052899,7.24263006 L12.2511785,7.24263006 C12.4995236,7.24263006 12.7120251,7.20593302 12.8835624,7.1350992 C13.0533929,7.06341197 13.1942071,6.95844137 13.3000311,6.82274766 C13.4041483,6.6887608 13.4801026,6.52490425 13.5253339,6.33629854 C13.5705651,6.15025308 13.592754,5.94457898 13.592754,5.70903519 C13.592754,5.45727644 13.5603241,5.23965446 13.4954642,5.06299662 C13.4297509,4.88548536 13.3427021,4.73955062 13.2343178,4.62860609 C13.1242267,4.51680813 12.9979206,4.43573328 12.8588132,4.3887952 C12.7205593,4.34100371 12.5754779,4.31710796 12.4278364,4.31710796 L11.5052899,4.31710796 L11.5052899,7.24263006 L11.5052899,7.24263006 Z" id="path7276" fill="#CFCFCF" fill-rule="nonzero" transform="translate(12.549022, 5.779869) scale(-1, 1) rotate(-180.000000) translate(-12.549022, -5.779869) "></path>
                        <polygon id="path7278" fill="#CFCFCF" fill-rule="nonzero" transform="translate(15.821971, 5.777650) scale(-1, 1) rotate(-180.000000) translate(-15.821971, -5.777650) " points="15.358991 3.54553138 16.2849512 3.54553138 16.2849512 8.00976887 15.358991 8.00976887"></polygon>
                        <polygon id="path7282" fill="#CFCFCF" fill-rule="nonzero" transform="translate(19.094750, 5.779869) scale(-1, 1) rotate(-180.000000) translate(-19.094750, -5.779869) " points="17.4096728 8.00985421 17.4096728 3.54988382 20.7798265 3.54988382 20.7798265 4.31710796 18.3364864 4.31710796 18.3364864 5.49824057 20.5314814 5.49824057 20.5314814 6.20401851 18.3364864 6.20401851 18.3364864 7.24263006 20.7286213 7.24263006 20.7286213 8.00985421 17.4096728 8.00985421"></polygon>
                        <polygon id="path7286" fill="#CFCFCF" fill-rule="nonzero" transform="translate(24.846191, 5.779869) scale(-1, 1) rotate(-180.000000) translate(-24.846191, -5.779869) " points="23.2882739 8.00985421 23.2882739 3.54988382 24.2150875 3.54988382 24.2150875 5.4205794 26.1122391 5.4205794 26.1122391 6.12635734 24.2150875 6.12635734 24.2150875 7.24263006 26.4041086 7.24263006 26.4041086 8.00985421 23.2882739 8.00985421"></polygon>
                        <path d="M28.0011978,8.01019558 C27.9841294,7.96581776 26.3472708,3.63727398 26.313134,3.54595809 L27.2416545,3.54595809 C27.257016,3.59118932 27.596677,4.55299312 27.596677,4.55299312 L29.3410665,4.55299312 C29.3410665,4.55299312 29.6679261,3.59118932 29.6832877,3.54595809 L30.6433847,3.54595809 C30.6083945,3.63727398 28.9903111,7.96581776 28.9740961,8.01019558 L28.0011978,8.01019558 Z M28.4475362,6.96219641 L28.5089824,6.96219641 L29.1046693,5.22804795 L27.8322208,5.22804795 L28.4475362,6.96219641 Z" id="path7298" fill="#CFCFCF" fill-rule="nonzero" transform="translate(28.478259, 5.778077) scale(-1, 1) rotate(-180.000000) translate(-28.478259, -5.778077) "></path>
                        <path d="M34.74433,8.01019558 C34.7289684,7.96240408 33.7407086,4.89180067 33.7407086,4.89180067 L33.678409,4.89180067 C33.678409,4.89180067 32.6338235,7.9632575 32.618462,8.01019558 L31.2743262,8.01019558 L31.2743262,3.54595809 L32.1388402,3.54595809 L32.1388402,6.72750604 L32.2105274,6.72750604 C32.2105274,6.72750604 33.3063181,3.59204274 33.3216797,3.54595809 L34.0402589,3.54595809 C34.0564739,3.59204274 35.1505577,6.75908257 35.1505577,6.75908257 L35.2230983,6.75908257 L35.2230983,3.54595809 L36.0876123,3.54595809 L36.0876123,8.01019558 L34.74433,8.01019558 L34.74433,8.01019558 Z" id="path7302" fill="#CFCFCF" fill-rule="nonzero" transform="translate(33.680969, 5.778077) scale(-1, 1) rotate(-180.000000) translate(-33.680969, -5.778077) "></path>
                        <polygon id="path7304" fill="#CFCFCF" fill-rule="nonzero" transform="translate(37.699380, 5.777650) scale(-1, 1) rotate(-180.000000) translate(-37.699380, -5.777650) " points="37.2364003 3.54553138 38.1623605 3.54553138 38.1623605 8.00976887 37.2364003 8.00976887"></polygon>
                        <polygon id="path7308" fill="#CFCFCF" fill-rule="nonzero" transform="translate(40.879563, 5.778077) scale(-1, 1) rotate(-180.000000) translate(-40.879563, -5.778077) " points="39.3114045 8.01019558 39.3114045 3.54595809 42.4477213 3.54595809 42.4477213 4.31318223 40.2390715 4.31318223 40.2390715 8.01019558"></polygon>
                        <polygon id="path7310" fill="#CFCFCF" fill-rule="nonzero" transform="translate(43.590962, 5.777650) scale(-1, 1) rotate(-180.000000) translate(-43.590962, -5.777650) " points="43.1275552 3.54553138 44.0543688 3.54553138 44.0543688 8.00976887 43.1275552 8.00976887"></polygon>
                        <polygon id="path7314" fill="#CFCFCF" fill-rule="nonzero" transform="translate(46.838309, 5.779869) scale(-1, 1) rotate(-180.000000) translate(-46.838309, -5.779869) " points="45.1532318 8.00985421 45.1532318 3.54988382 48.5233855 3.54988382 48.5233855 4.31710796 46.079192 4.31710796 46.079192 5.49824057 48.2750404 5.49824057 48.2750404 6.20401851 46.079192 6.20401851 46.079192 7.24263006 48.4730337 7.24263006 48.4730337 8.00985421 45.1532318 8.00985421"></polygon>
                        <path d="M52.3898879,8.01019558 L52.3898879,4.96946184 L52.3241746,4.96946184 C52.3241746,4.96946184 50.4526256,7.97776563 50.432997,8.01019558 L49.4959423,8.01019558 L49.4959423,3.54595809 L50.3596029,3.54595809 L50.3596029,6.58071789 L50.427023,6.58071789 C50.427023,6.58071789 52.2908913,3.57838803 52.3105199,3.54595809 L53.2535485,3.54595809 L53.2535485,8.01019558 L52.3898879,8.01019558 Z" id="path7326" fill="#CFCFCF" fill-rule="nonzero" transform="translate(51.374745, 5.778077) scale(-1, 1) rotate(-180.000000) translate(-51.374745, -5.778077) "></path>
                        <path d="M13.4300922,14.7649257 L13.4300922,11.9819247 C13.4300922,11.6362898 13.3592584,11.3768502 13.2184442,11.2121403 C13.0767766,11.0465769 12.8190439,10.9620883 12.4546337,10.9620883 C12.2446925,10.9620883 12.080836,10.9911046 11.9528231,11.0525508 C11.8273704,11.1114368 11.7283737,11.1899514 11.6575399,11.2838275 C11.5858527,11.3802639 11.5389146,11.4920619 11.5184325,11.6141009 C11.4962436,11.734433 11.4860026,11.8573254 11.4860026,11.9819247 L11.4860026,14.7649257 L10.559189,14.7649257 L10.559189,11.9802178 C10.559189,11.37429 10.7247524,10.9219776 11.051612,10.6343752 C11.3801786,10.3459194 11.852973,10.1999847 12.4546337,10.1999847 C13.0486137,10.1999847 13.5197013,10.3467729 13.8542417,10.6386423 C14.1879288,10.9279516 14.3569058,11.3794105 14.3569058,11.9802178 L14.3569058,14.7649257 L13.4300922,14.7649257 L13.4300922,14.7649257 Z" id="path7330" fill="#CFCFCF" fill-rule="nonzero" transform="translate(12.458047, 12.482455) scale(-1, 1) rotate(-180.000000) translate(-12.458047, -12.482455) "></path>
                        <path d="M18.1768969,14.6642222 L18.1768969,11.622635 L18.1111836,11.622635 C18.1111836,11.622635 16.2387812,14.6309388 16.2191526,14.6642222 L15.2829513,14.6642222 L15.2829513,10.1999847 L16.1474653,10.1999847 L16.1474653,13.2347445 L16.214032,13.2347445 C16.214032,13.2347445 18.0787537,10.2315612 18.0992358,10.1999847 L19.0422643,10.1999847 L19.0422643,14.6642222 L18.1768969,14.6642222 Z" id="path7334" fill="#CFCFCF" fill-rule="nonzero" transform="translate(17.162608, 12.432103) scale(-1, 1) rotate(-180.000000) translate(-17.162608, -12.432103) "></path>
                        <polygon id="path7338" fill="#CFCFCF" fill-rule="nonzero" transform="translate(21.454028, 12.434826) scale(-1, 1) rotate(-180.000000) translate(-21.454028, -12.434826) " points="19.6328306 14.6648111 19.6328306 13.8967335 20.9906211 13.8967335 20.9906211 10.2048407 21.9165812 10.2048407 21.9165812 13.8967335 23.2752251 13.8967335 23.2752251 14.6648111"></polygon>
                        <polygon id="path7342" fill="#CFCFCF" fill-rule="nonzero" transform="translate(25.550279, 12.434826) scale(-1, 1) rotate(-180.000000) translate(-25.550279, -12.434826) " points="23.8656293 14.6648111 23.8656293 10.2048407 27.2349295 10.2048407 27.2349295 10.9720648 24.7924429 10.9720648 24.7924429 12.1531974 26.9882913 12.1531974 26.9882913 12.8589754 24.7924429 12.8589754 24.7924429 13.8967335 27.1845778 13.8967335 27.1845778 14.6648111"></polygon>
                        <path d="M28.0045347,14.6642222 L28.0045347,10.1999847 L28.9313483,10.1999847 L28.9313483,11.9691234 L29.9614257,11.9691234 C30.2191583,11.9691234 30.4094709,11.9110908 30.525536,11.7950258 C30.6407476,11.6806676 30.7158485,11.4997426 30.7516921,11.2548112 C30.7764413,11.0764466 30.7952165,10.8886943 30.8088712,10.6813133 C30.8216725,10.4944144 30.8541025,10.3331182 30.901894,10.1999847 L31.813346,10.1999847 C31.7817695,10.2546036 31.7536066,10.3160498 31.7356848,10.3868836 C31.7117891,10.4816132 31.6938673,10.5806098 31.6836262,10.6813133 L31.6614373,10.981717 L31.648636,11.2343292 C31.6392484,11.3503942 31.6230335,11.4647524 31.601698,11.5722833 C31.5786556,11.6832278 31.542812,11.7856382 31.4941671,11.8778075 C31.4455222,11.9682699 31.3823691,12.047638 31.304708,12.1150581 C31.2296071,12.1807714 31.1314638,12.2302697 31.0136919,12.2626997 L30.9880893,12.269527 L30.9880893,12.3318267 L31.0102782,12.3403609 C31.2560631,12.4402109 31.4352812,12.5852923 31.5411052,12.7713377 C31.6503429,12.9599434 31.7058151,13.1878064 31.7058151,13.4463926 C31.7058151,13.616223 31.675092,13.7749591 31.6153527,13.919187 C31.5573202,14.0634149 31.4702714,14.1931346 31.3567666,14.3049326 C31.2432618,14.4158771 31.1067146,14.5046328 30.9496855,14.5686392 C30.790096,14.6309388 30.6091711,14.6642222 30.413738,14.6642222 L28.0045347,14.6642222 Z M28.9313483,13.9584443 L30.0587155,13.9584443 C30.2942593,13.9584443 30.4751842,13.9046788 30.5955164,13.7988548 C30.7175553,13.6938842 30.7790016,13.5232003 30.7790016,13.2936305 C30.7790016,13.0563798 30.7175553,12.879722 30.5963698,12.7713377 C30.4751842,12.6638069 30.2951127,12.6108948 30.0587155,12.6108948 L28.9313483,12.6108948 L28.9313483,13.9584443 Z" id="path7354" fill="#CFCFCF" fill-rule="nonzero" transform="translate(29.908940, 12.432103) scale(-1, 1) rotate(-180.000000) translate(-29.908940, -12.432103) "></path>
                        <path d="M35.4824525,14.6642222 L35.4824525,11.622635 L35.4167392,11.622635 C35.4167392,11.622635 33.5443368,14.6309388 33.5247082,14.6642222 L32.588507,14.6642222 L32.588507,10.1999847 L33.4530209,10.1999847 L33.4530209,13.2347445 L33.5195876,13.2347445 C33.5195876,13.2347445 35.3843093,10.2315612 35.4047914,10.1999847 L36.3469665,10.1999847 L36.3469665,14.6642222 L35.4824525,14.6642222 Z" id="path7358" fill="#CFCFCF" fill-rule="nonzero" transform="translate(34.467737, 12.432103) scale(-1, 1) rotate(-180.000000) translate(-34.467737, -12.432103) "></path>
                        <polygon id="path7362" fill="#CFCFCF" fill-rule="nonzero" transform="translate(38.977368, 12.434826) scale(-1, 1) rotate(-180.000000) translate(-38.977368, -12.434826) " points="37.2922908 14.6648111 37.2922908 10.2048407 40.6624444 10.2048407 40.6624444 10.9720648 38.2191044 10.9720648 38.2191044 12.1531974 40.4149528 12.1531974 40.4149528 12.8589754 38.2191044 12.8589754 38.2191044 13.8967335 40.6120927 13.8967335 40.6120927 14.6648111 37.2922908 14.6648111"></polygon>
                        <polygon id="path7366" fill="#CFCFCF" fill-rule="nonzero" transform="translate(43.285438, 12.432103) scale(-1, 1) rotate(-180.000000) translate(-43.285438, -12.432103) " points="44.2382807 14.6642222 44.2382807 12.9232464 42.3317415 12.9232464 42.3317415 14.6642222 41.4057814 14.6642222 41.4057814 10.1999847 42.3317415 10.1999847 42.3317415 12.1551688 44.2382807 12.1551688 44.2382807 10.1999847 45.1650943 10.1999847 45.1650943 14.6642222"></polygon>
                        <path d="M49.5807722,14.6642222 C49.5654107,14.6164307 48.5771509,11.5449739 48.5771509,11.5449739 L48.5131444,11.5449739 C48.5131444,11.5449739 47.4694124,14.6172841 47.4540508,14.6642222 L46.1099151,14.6642222 L46.1099151,10.1999847 L46.974429,10.1999847 L46.974429,13.3798258 L47.0461163,13.3798258 C47.0461163,13.3798258 48.1410535,10.2452159 48.1572685,10.1999847 L48.8758477,10.1999847 C48.8929161,10.2452159 49.9852931,13.4114024 49.9852931,13.4114024 L50.0595406,13.4114024 L50.0595406,10.1999847 L50.9232011,10.1999847 L50.9232011,14.6642222 L49.5807722,14.6642222 L49.5807722,14.6642222 Z" id="path7378" fill="#CFCFCF" fill-rule="nonzero" transform="translate(48.516558, 12.432103) scale(-1, 1) rotate(-180.000000) translate(-48.516558, -12.432103) "></path>
                        <polygon id="path7382" fill="#CFCFCF" fill-rule="nonzero" transform="translate(53.554208, 12.434826) scale(-1, 1) rotate(-180.000000) translate(-53.554208, -12.434826) " points="51.8687046 14.6648111 51.8687046 10.2048407 55.2397117 10.2048407 55.2397117 10.9720648 52.7946648 10.9720648 52.7946648 12.1531974 54.9913666 12.1531974 54.9913666 12.8589754 52.7946648 12.8589754 52.7946648 13.8967335 55.18936 13.8967335 55.18936 14.6648111 51.8687046 14.6648111"></polygon>
                        <path d="M56.0085574,14.6642222 L56.0085574,10.1999847 L56.9345175,10.1999847 L56.9345175,11.9691234 L57.9663017,11.9691234 C58.2248878,11.9691234 58.414347,11.9110908 58.5295586,11.7950258 C58.6447702,11.6806676 58.721578,11.4988892 58.7557148,11.2548112 C58.7821708,11.0687658 58.800946,10.875893 58.8137473,10.6813133 C58.8239883,10.4969747 58.8572717,10.3365318 58.9076235,10.1999847 L59.8182221,10.1999847 C59.7857921,10.2546036 59.7584827,10.3160498 59.7397075,10.3868836 C59.7141049,10.4875871 59.6970365,10.5840235 59.6885023,10.6813133 L59.6663134,10.981717 L59.6628997,11.0491371 L59.6535121,11.2343292 C59.6458313,11.3410066 59.6296164,11.4545114 59.6057206,11.5722833 C59.5826783,11.6849347 59.5468347,11.7864916 59.4981898,11.8778075 C59.4486914,11.9691234 59.3863918,12.0501982 59.309584,12.1150581 C59.2327763,12.1816248 59.1380467,12.2302697 59.0177146,12.2626997 L58.9929654,12.269527 L58.9929654,12.3318267 L59.0143009,12.3403609 C59.2600857,12.4402109 59.4393038,12.5844388 59.5459813,12.7713377 C59.6543655,12.95909 59.7098378,13.1860996 59.7098378,13.4463926 C59.7098378,13.6145162 59.6799681,13.7741056 59.6193753,13.919187 C59.5621962,14.0625614 59.4751474,14.1922812 59.3616426,14.3049326 C59.2489913,14.4158771 59.1107373,14.5046328 58.9537081,14.5686392 C58.7949721,14.6309388 58.6140471,14.6642222 58.4186141,14.6642222 L56.0085574,14.6642222 L56.0085574,14.6642222 Z M56.9345175,13.9584443 L58.0627381,13.9584443 C58.2991353,13.9584443 58.4792069,13.9046788 58.599539,13.7988548 C58.721578,13.6938842 58.7830242,13.5232003 58.7830242,13.2936305 C58.7830242,13.0563798 58.721578,12.879722 58.6003924,12.7713377 C58.4809137,12.6638069 58.2991353,12.6108948 58.0627381,12.6108948 L56.9345175,12.6108948 L56.9345175,13.9584443 Z" id="path7394" fill="#CFCFCF" fill-rule="nonzero" transform="translate(57.913390, 12.432103) scale(-1, 1) rotate(-180.000000) translate(-57.913390, -12.432103) "></path>
                    </g>
                </g>
            </g>
        </g>
    </g>
</svg>