<?xml version="1.0" encoding="UTF-8"?>
<svg width="34px" height="46px" viewBox="0 0 34 46" version="1.1" xmlns="http://www.w3.org/2000/svg" xmlns:xlink="http://www.w3.org/1999/xlink">
    <!-- Generator: Sketch 63.1 (92452) - https://sketch.com -->
    <title>logos/firebase</title>
    <desc>Created with Sketch.</desc>
    <g id="Page-1" stroke="none" stroke-width="1" fill="none" fill-rule="evenodd">
        <g id="1.0-Desktop" transform="translate(-923.000000, -4900.000000)">
            <g id="Partners-&amp;-Stack" transform="translate(590.000000, 4534.000000)">
                <g id="logos/firebase" transform="translate(318.500000, 357.000000)">
                    <g id="firebase" transform="translate(14.000000, 8.000000)">
                        <path d="M1.69154983,30.8298598 L6.21274292,1.85784659 C6.36864613,0.87045959 7.69382342,0.636604775 8.16153305,1.5200563 L13.0205164,10.6144102 L1.69154983,30.8298598 Z" id="icon_1_-path" fill="#CFCFCF" fill-rule="nonzero"></path>
                        <path d="M33.833595,37.8714881 L29.5202728,11.1860553 C29.3903535,10.3545715 28.3509988,10.0167812 27.7533698,10.6144102 L0.57424349,37.8714881 L15.6189033,46.3162453 C16.5543225,46.8359227 17.7235966,46.8359227 18.6590159,46.3162453 L33.833595,37.8714881 Z" id="icon_1_-path" fill="#FFFFFF" fill-rule="nonzero"></path>
                        <path d="M21.6211769,14.5899421 L18.1393385,7.96405565 C17.7495805,7.21052347 16.6842419,7.21052347 16.2944838,7.96405565 L0.989985384,35.2471174 L21.6211769,14.5899421 Z" id="icon_1_-path" fill="#E6E6E6" fill-rule="nonzero"></path>
                    </g>
                </g>
            </g>
        </g>
    </g>
</svg>