<?xml version="1.0" encoding="UTF-8"?>
<svg width="60px" height="48px" viewBox="0 0 60 48" version="1.1" xmlns="http://www.w3.org/2000/svg" xmlns:xlink="http://www.w3.org/1999/xlink">
    <!-- Generator: Sketch 63.1 (92452) - https://sketch.com -->
    <title>logos/google_cloud</title>
    <desc>Created with Sketch.</desc>
    <g id="Page-1" stroke="none" stroke-width="1" fill="none" fill-rule="evenodd">
        <g id="1.0-Desktop" transform="translate(-910.000000, -4802.000000)">
            <g id="Partners-&amp;-Stack" transform="translate(590.000000, 4534.000000)">
                <g id="logos/google_cloud" transform="translate(318.500000, 260.000000)">
                    <g id="google_cloud" transform="translate(2.000000, 8.000000)">
                        <g id="Group" fill-rule="nonzero">
                            <path d="M37.6715621,13.1446373 L39.4801958,13.1446373 L44.635514,7.98931909 L44.8882955,5.79973298 C35.2932799,-2.67022697 20.6497552,-1.75522919 12.1797953,7.83978638 C9.82643525,10.5028927 8.12105029,13.6751224 7.188251,17.1072541 C7.76145972,16.8722741 8.39875389,16.8331108 8.99688474,17.000445 L19.3075211,15.2986204 C19.3075211,15.2986204 19.8308856,14.4299065 20.1050289,14.4833111 C24.6906987,9.44548287 32.4094348,8.85803293 37.7071651,13.1446373 L37.6715621,13.1446373 Z" id="Path" fill="#CFCFCF"></path>
                            <path d="M51.9804183,17.1072541 C50.7948376,12.7423231 48.3631509,8.8188696 44.9808634,5.82109479 L37.7463284,13.0556297 C40.8010681,15.5514019 42.5420561,19.3146417 42.4672897,23.2594571 L42.4672897,24.5447263 C46.024032,24.5447263 48.9078772,27.4285714 48.9078772,30.9853138 C48.9078772,34.5420561 46.024032,37.4259012 42.4672897,37.4259012 L29.5861148,37.4259012 L28.3008456,38.728972 L28.3008456,46.4548287 L29.5861148,47.7400979 L42.4672897,47.7400979 C51.7169559,47.811304 59.2754784,40.3702715 59.3466845,31.1206053 C59.3894081,25.5024477 56.623053,20.247441 51.9804183,17.1072541 Z" id="Path" fill="#DADADA"></path>
                            <path d="M16.6871384,47.6582109 L29.5683133,47.6582109 L29.5683133,37.3475745 L16.6871384,37.3475745 C15.7685803,37.3475745 14.8642635,37.1481976 14.0275923,36.7672452 L12.2189586,37.329773 L7.02803738,42.4850912 L6.57587895,44.293725 C9.48464619,46.493992 13.0378282,47.6760125 16.6871384,47.6582109 Z" id="Path" fill="#E6E6E6"></path>
                            <path d="M16.6871384,14.2125885 C7.43391188,14.2661326 -0.0178015131,21.8104139 0.0353177589,31.0636404 C0.0676457499,36.2296395 2.47797063,41.0930129 6.57587895,44.2403204 L14.0453939,36.7708055 C10.8055185,35.3075211 9.36359591,31.4908767 10.8268803,28.2510013 C12.2901647,25.0111259 16.1068091,23.5692034 19.3466845,25.0324878 C20.7743658,25.6769025 21.917223,26.82332 22.565198,28.2510013 L30.034713,20.7814864 C26.858923,16.623053 21.917223,14.1913663 16.6871384,14.2125885 Z" id="Path" fill="#FFFFFF"></path>
                        </g>
                    </g>
                </g>
            </g>
        </g>
    </g>
</svg>