<?xml version="1.0" encoding="UTF-8"?>
<svg width="49px" height="48px" viewBox="0 0 49 48" version="1.1" xmlns="http://www.w3.org/2000/svg" xmlns:xlink="http://www.w3.org/1999/xlink">
    <!-- Generator: Sketch 63.1 (92452) - https://sketch.com -->
    <title>logos/intercom</title>
    <desc>Created with Sketch.</desc>
    <g id="Page-1" stroke="none" stroke-width="1" fill="none" fill-rule="evenodd">
        <g id="1.0-Desktop" transform="translate(-1196.000000, -4608.000000)" fill="#FFFFFF">
            <g id="Partners-&amp;-Stack" transform="translate(590.000000, 4534.000000)">
                <g id="logos/intercom" transform="translate(598.500000, 66.000000)">
                    <g id="intercom" transform="translate(8.000000, 8.000000)">
                        <path d="M41.6000209,21.6096801 C41.6000209,20.7260799 40.8836231,20.0096799 40.000026,20.0096799 C39.1164289,20.0096799 38.4000313,20.7260799 38.4000313,21.6096801 L38.4000313,36 C38.4000313,36.8835999 39.1164289,37.5999999 40.000026,37.5999999 C40.8836231,37.5999999 41.6000209,36.8835999 41.6000209,36 L41.6000209,21.6096801 Z M41.0416226,11.59484 C40.7944234,11.38312 34.8672428,6.40952001 24.0000782,6.40952001 C13.1329135,6.40952001 7.2059328,11.38328 6.95873361,11.595 C6.28793578,12.17 6.21029602,13.18016 6.78529416,13.85124 C7.35905229,14.5208 8.36636902,14.6 9.03764683,14.0278 C9.13168652,13.9492 14.4243093,9.60984 24.0000782,9.60968001 C33.6961266,9.60968001 38.9070696,13.98048 38.9586294,14.02452 C39.6281473,14.59952 40.6400239,14.5222 41.214822,13.85108 C41.7900203,13.18016 41.7124204,12.16984 41.0416226,11.59484 L41.0416226,11.59484 Z M6.39997541,36 C6.39997541,36.8835999 7.11637309,37.5999999 7.99997021,37.5999999 C8.88372733,37.5999999 9.59996499,36.8835999 9.59996499,36 L9.59996499,21.6096801 C9.59996499,20.7262401 8.88372733,20.0098401 7.99997021,20.0098401 C7.11637309,20.0098401 6.39997541,20.7262401 6.39997541,21.60984 L6.39997541,36 Z M14.4001094,39.2000001 C14.4001094,40.0836 15.116507,40.8 16.0001042,40.8 C16.8837013,40.8 17.6000989,40.0836 17.6000989,39.2000001 L17.6000989,17.82484 C17.6000989,16.94124 16.8837013,16.22484 16.0001042,16.22484 C15.116507,16.22484 14.4001094,16.94124 14.4001094,17.82484 L14.4001094,39.2000001 Z M22.4000833,40.0095999 C22.4000833,40.8936 23.1164811,41.6096001 24.0000782,41.6096001 C24.8836753,41.6096001 25.6000729,40.8936 25.6000729,40.0095999 L25.6000729,16.80968 C25.6000729,15.92608 24.8836753,15.20968 24.0000782,15.20968 C23.1164811,15.20968 22.4000833,15.92608 22.4000833,16.80968 L22.4000833,40.0095999 Z M30.4000573,39.2000001 C30.4000573,40.0836 31.1164549,40.8 32.000052,40.8 C32.8836491,40.8 33.6000469,40.0836 33.6000469,39.2000001 L33.6000469,17.82484 C33.6000469,16.94124 32.8836491,16.22484 32.000052,16.22484 C31.1164549,16.22484 30.4000573,16.94124 30.4000573,17.82484 L30.4000573,39.2000001 Z M42.0000195,48 L5.99997671,48 C2.68639551,48 0,45.3135999 0,42 L0,6 C0,2.68640799 2.68639551,0 5.99997671,0 L42.0000195,0 C45.3136088,0 48,2.68640799 48,6 L48,42 C48,45.3135999 45.3136088,48 42.0000195,48 L42.0000195,48 Z" id="Shape" fill-rule="nonzero" transform="translate(24.000000, 24.000000) scale(-1, 1) rotate(-180.000000) translate(-24.000000, -24.000000) "></path>
                    </g>
                </g>
            </g>
        </g>
    </g>
</svg>