<?xml version="1.0" encoding="UTF-8"?>
<svg width="49px" height="48px" viewBox="0 0 49 48" version="1.1" xmlns="http://www.w3.org/2000/svg" xmlns:xlink="http://www.w3.org/1999/xlink">
    <!-- Generator: Sketch 63.1 (92452) - https://sketch.com -->
    <title>logos/mangopay</title>
    <desc>Created with Sketch.</desc>
    <g id="Page-1" stroke="none" stroke-width="1" fill="none" fill-rule="evenodd">
        <g id="1.0-Desktop" transform="translate(-1196.000000, -4705.000000)">
            <g id="Partners-&amp;-Stack" transform="translate(590.000000, 4534.000000)">
                <g id="logos/mangopay" transform="translate(598.500000, 163.000000)">
                    <g id="mangopay" transform="translate(8.000000, 8.000000)">
                        <polygon id="Path" fill="#FFFFFF" fill-rule="nonzero" points="7.98286165 31.8637952 0 23.8809336 7.98286165 15.9657233"></polygon>
                        <polygon id="Path" fill="#FFFFFF" fill-rule="nonzero" points="15.9657233 23.8809336 7.98286165 15.9657233 15.9657233 7.98286165"></polygon>
                        <polygon id="Path" fill="#E6E6E6" fill-rule="nonzero" points="23.8809336 15.9657233 15.9657233 7.98286165 23.8809336 0"></polygon>
                        <polygon id="Path" fill="#FFFFFF" fill-rule="nonzero" points="15.9657233 39.8466569 7.98286165 31.8637952 15.9657233 23.8809336"></polygon>
                        <polygon id="Path" fill="#E6E6E6" fill-rule="nonzero" points="23.8809336 31.8637952 15.9657233 23.8809336 23.8809336 15.9657233"></polygon>
                        <polygon id="Path" fill="#E6E6E6" fill-rule="nonzero" points="23.8809336 47.8295185 15.9657233 39.8466569 23.8809336 31.8637952"></polygon>
                        <polygon id="Path" fill="#CFCFCF" fill-rule="nonzero" points="39.8466569 31.8637952 47.8295185 23.8809336 39.8466569 15.9657233"></polygon>
                        <polygon id="Path" fill="#DADADA" fill-rule="nonzero" points="31.8637952 23.8809336 39.8466569 15.9657233 31.8637952 7.98286165"></polygon>
                        <polygon id="Path" fill="#DADADA" fill-rule="nonzero" points="23.8809336 15.9657233 31.8637952 7.98286165 23.8809336 0"></polygon>
                        <polygon id="Path" fill="#DADADA" fill-rule="nonzero" points="31.8637952 39.8466569 39.8466569 31.8637952 31.8637952 23.8809336"></polygon>
                        <polygon id="Path" fill="#DADADA" fill-rule="nonzero" points="23.8809336 31.8637952 31.8637952 23.8809336 23.8809336 15.9657233"></polygon>
                        <polygon id="Path" fill="#DADADA" fill-rule="nonzero" points="23.8809336 47.8295185 31.8637952 39.8466569 23.8809336 31.8637952"></polygon>
                    </g>
                </g>
            </g>
        </g>
    </g>
</svg>