<?xml version="1.0" encoding="UTF-8"?>
<svg width="49px" height="48px" viewBox="0 0 49 48" version="1.1" xmlns="http://www.w3.org/2000/svg" xmlns:xlink="http://www.w3.org/1999/xlink">
    <!-- Generator: Sketch 63.1 (92452) - https://sketch.com -->
    <title>logos/python</title>
    <desc>Created with Sketch.</desc>
    <g id="Page-1" stroke="none" stroke-width="1" fill="none" fill-rule="evenodd">
        <g id="1.0-Desktop" transform="translate(-916.000000, -4608.000000)">
            <g id="Partners-&amp;-Stack" transform="translate(590.000000, 4534.000000)">
                <g id="logos/python" transform="translate(318.500000, 66.000000)">
                    <g id="python" transform="translate(8.000000, 8.000000)">
                        <path d="M23.9181818,0 C11.6861533,0 12.45,5.30454545 12.45,5.30454545 L12.4636364,10.8 L24.1363636,10.8 L24.1363636,12.45 L7.82727273,12.45 C7.82727273,12.45 0,11.5623159 0,23.9045455 C0,36.2467724 6.83181818,35.8090909 6.83181818,35.8090909 L10.9090909,35.8090909 L10.9090909,30.0818182 C10.9090909,30.0818182 10.6893155,23.25 17.6318182,23.25 C24.57432,23.25 29.2090909,23.25 29.2090909,23.25 C29.2090909,23.25 35.7136364,23.3551462 35.7136364,16.9636364 C35.7136364,10.5721283 35.7136364,6.39545455 35.7136364,6.39545455 C35.7136364,6.39545367 36.7012058,0 23.9181818,0 Z M17.4818182,3.69545455 C18.643169,3.69545455 19.5818182,4.63410371 19.5818182,5.79545455 C19.5818182,6.95680538 18.643169,7.89545455 17.4818182,7.89545455 C16.3204673,7.89545455 15.3818182,6.95680538 15.3818182,5.79545455 C15.3818182,4.63410371 16.3204673,3.69545455 17.4818182,3.69545455 Z" id="path8615" fill="#E6E6E6" fill-rule="nonzero"></path>
                        <path d="M24.2655709,47.9328436 C36.4976029,47.9328436 35.7337527,42.6282982 35.7337527,42.6282982 L35.7201164,37.1328436 L24.0473891,37.1328436 L24.0473891,35.4828436 L40.35648,35.4828436 C40.35648,35.4828436 48.1837527,36.3705251 48.1837527,24.0282938 C48.1837527,11.6860682 41.3519345,12.1237497 41.3519345,12.1237497 L37.2746618,12.1237497 L37.2746618,17.8510211 C37.2746618,17.8510211 37.4944407,24.6828393 30.5519345,24.6828393 C23.6094319,24.6828393 18.9746609,24.6828393 18.9746609,24.6828393 C18.9746609,24.6828393 12.4701155,24.5776931 12.4701155,30.9692073 C12.4701155,37.3607127 12.4701155,41.5373891 12.4701155,41.5373891 C12.4701155,41.5373891 11.482546,47.9328436 24.2655709,47.9328436 Z M30.7019345,44.2373891 C29.5405833,44.2373891 28.6019345,43.2987404 28.6019345,42.1373891 C28.6019345,40.9760378 29.5405833,40.0373891 30.7019345,40.0373891 C31.8632858,40.0373891 32.8019345,40.9760378 32.8019345,42.1373891 C32.8019345,43.2987404 31.8632858,44.2373891 30.7019345,44.2373891 Z" id="path8620" fill="#FFFFFF" fill-rule="nonzero"></path>
                    </g>
                </g>
            </g>
        </g>
    </g>
</svg>