<?xml version="1.0" encoding="UTF-8"?>
<svg width="54px" height="48px" viewBox="0 0 54 48" version="1.1" xmlns="http://www.w3.org/2000/svg" xmlns:xlink="http://www.w3.org/1999/xlink">
    <!-- Generator: Sketch 63.1 (92452) - https://sketch.com -->
    <title>logos/react</title>
    <desc>Created with Sketch.</desc>
    <g id="Page-1" stroke="none" stroke-width="1" fill="none" fill-rule="evenodd">
        <g id="1.0-Desktop" transform="translate(-630.000000, -4899.000000)" fill="#FFFFFF">
            <g id="Partners-&amp;-Stack" transform="translate(590.000000, 4534.000000)">
                <g id="logos/react" transform="translate(35.000000, 357.000000)">
                    <g id="react" transform="translate(5.000000, 8.000000)">
                        <path d="M53.9643021,24 C53.9643021,20.4302059 49.4938215,17.0471396 42.6398169,14.9491991 C44.2215103,7.96338673 43.5185355,2.40549199 40.4210526,0.626086957 C39.7070938,0.208695652 38.8723112,0.0109839817 37.9606407,0.0109839817 L37.9606407,2.4604119 C38.4659039,2.4604119 38.8723112,2.55926773 39.2128146,2.74599542 C40.7066362,3.602746 41.3546911,6.86498856 40.8494279,11.0608696 C40.7286041,12.0933638 40.5308924,13.180778 40.2892449,14.2901602 C38.1363844,13.7629291 35.7858124,13.3565217 33.3144165,13.0929062 C31.8315789,11.0608696 30.2938215,9.21556064 28.7450801,7.60091533 C32.3258581,4.27276888 35.6869565,2.44942792 37.9716247,2.44942792 L37.9716247,0 C37.9716247,0 37.9716247,0 37.9716247,0 C34.9510297,0 30.9967963,2.15286041 26.998627,5.88741419 C23.0004577,2.17482838 19.0462243,0.0439359268 16.0256293,0.0439359268 L16.0256293,2.49336384 C18.2993135,2.49336384 21.6713959,4.30572082 25.2521739,7.61189931 C23.7144165,9.22654462 22.176659,11.0608696 20.7157895,13.0929062 C18.2334096,13.3565217 15.8828375,13.7629291 13.7299771,14.3011442 C13.4773455,13.202746 13.2906178,12.1372998 13.1588101,11.1157895 C12.6425629,6.91990847 13.2796339,3.6576659 14.7624714,2.78993135 C15.0919908,2.59221968 15.5203661,2.50434783 16.0256293,2.50434783 L16.0256293,0.0549199085 C16.0256293,0.0549199085 16.0256293,0.0549199085 16.0256293,0.0549199085 C15.1029748,0.0549199085 14.2681922,0.252631579 13.5432494,0.670022883 C10.4567506,2.44942792 9.76475973,7.99633867 11.3574371,14.9601831 C4.52540046,17.0691076 0.0768878719,20.4411899 0.0768878719,24 C0.0768878719,27.5697941 4.54736842,30.9528604 11.401373,33.0508009 C9.81967963,40.0366133 10.5226545,45.594508 13.6201373,47.373913 C14.3340961,47.7913043 15.1688787,47.989016 16.0915332,47.989016 C19.1121281,47.989016 23.0663616,45.8361556 27.0645309,42.1016018 C31.0627002,45.8141876 35.0169336,47.9450801 38.0375286,47.9450801 C38.9601831,47.9450801 39.7949657,47.7473684 40.5199085,47.3299771 C43.6064073,45.5505721 44.2983982,40.0036613 42.7057208,33.0398169 C49.5157895,30.9418764 53.9643021,27.5588101 53.9643021,24 Z M39.6631579,16.6736842 C39.2567506,18.0906178 38.7514874,19.5514874 38.1803204,21.012357 C37.7299771,20.1336384 37.2576659,19.2549199 36.7414188,18.3762014 C36.2361556,17.4974828 35.6979405,16.6407323 35.1597254,15.8059497 C36.7194508,16.0366133 38.2242563,16.3221968 39.6631579,16.6736842 Z M34.6324943,28.3716247 C33.7757437,29.8544622 32.8970252,31.2604119 31.9853547,32.5675057 C30.3487414,32.7102975 28.6901602,32.7871854 27.020595,32.7871854 C25.3620137,32.7871854 23.7034325,32.7102975 22.0778032,32.5784897 C21.1661327,31.2713959 20.2764302,29.8764302 19.4196796,28.4045767 C18.584897,26.9656751 17.8270023,25.5048055 17.1350114,24.0329519 C17.8160183,22.5610984 18.584897,21.0892449 19.4086957,19.6503432 C20.2654462,18.1675057 21.1441648,16.7615561 22.0558352,15.4544622 C23.6924485,15.3116705 25.3510297,15.2347826 27.020595,15.2347826 C28.6791762,15.2347826 30.3377574,15.3116705 31.9633867,15.4434783 C32.8750572,16.7505721 33.7647597,18.1455378 34.6215103,19.6173913 C35.4562929,21.0562929 36.2141876,22.5171625 36.9061785,23.989016 C36.2141876,25.4608696 35.4562929,26.9327231 34.6324943,28.3716247 Z M38.1803204,26.9437071 C38.7734554,28.4155606 39.2787185,29.8874142 39.6961098,31.3153318 C38.2572082,31.6668192 36.7414188,31.9633867 35.1707094,32.1940503 C35.7089245,31.3482838 36.2471396,30.4805492 36.7524027,29.5908467 C37.2576659,28.7121281 37.7299771,27.8224256 38.1803204,26.9437071 Z M27.0425629,38.6636156 C26.0210526,37.6091533 24.9995423,36.4338673 23.989016,35.1487414 C24.9775744,35.1926773 25.9881007,35.2256293 27.009611,35.2256293 C28.0421053,35.2256293 29.0636156,35.2036613 30.0631579,35.1487414 C29.0745995,36.4338673 28.0530892,37.6091533 27.0425629,38.6636156 Z M18.8704805,32.1940503 C17.3107551,31.9633867 15.8059497,31.6778032 14.3670481,31.3263158 C14.7734554,29.9093822 15.2787185,28.4485126 15.8498856,26.987643 C16.3002288,27.8663616 16.77254,28.7450801 17.2887872,29.6237986 C17.8050343,30.5025172 18.3322654,31.3592677 18.8704805,32.1940503 Z M26.987643,9.33638444 C28.0091533,10.3908467 29.0306636,11.5661327 30.0411899,12.8512586 C29.0526316,12.8073227 28.0421053,12.7743707 27.020595,12.7743707 C25.9881007,12.7743707 24.9665904,12.7963387 23.9670481,12.8512586 C24.9556064,11.5661327 25.9771167,10.3908467 26.987643,9.33638444 Z M18.8594966,15.8059497 C18.3212815,16.6517162 17.7830664,17.5194508 17.2778032,18.4091533 C16.77254,19.2878719 16.3002288,20.1665904 15.8498856,21.0453089 C15.2567506,19.5734554 14.7514874,18.1016018 14.3340961,16.6736842 C15.7729977,16.3331808 17.2887872,16.0366133 18.8594966,15.8059497 Z M8.91899314,29.5578947 C5.03066362,27.8993135 2.51533181,25.7244851 2.51533181,24 C2.51533181,22.2755149 5.03066362,20.0897025 8.91899314,18.4421053 C9.86361556,18.0356979 10.8961098,17.6732265 11.9615561,17.3327231 C12.587643,19.4855835 13.4114416,21.7263158 14.4329519,24.021968 C13.4224256,26.3066362 12.609611,28.5363844 11.994508,30.6782609 C10.9070938,30.3377574 9.87459954,29.9643021 8.91899314,29.5578947 Z M14.8283753,45.2540046 C13.3345538,44.397254 12.6864989,41.1350114 13.191762,36.9391304 C13.3125858,35.9066362 13.5102975,34.819222 13.7519451,33.7098398 C15.9048055,34.2370709 18.2553776,34.6434783 20.7267735,34.9070938 C22.209611,36.9391304 23.7473684,38.7844394 25.2961098,40.3990847 C21.7153318,43.7272311 18.3542334,45.5505721 16.0695652,45.5505721 C15.575286,45.5395881 15.1578947,45.4407323 14.8283753,45.2540046 Z M40.8823799,36.8842105 C41.398627,41.0800915 40.7615561,44.3423341 39.2787185,45.2100686 C38.9491991,45.4077803 38.5208238,45.4956522 38.0155606,45.4956522 C35.7418764,45.4956522 32.3697941,43.6832952 28.789016,40.3771167 C30.3267735,38.7624714 31.8645309,36.9281465 33.3254005,34.8961098 C35.8077803,34.6324943 38.1583524,34.226087 40.3112128,33.6878719 C40.5638444,34.797254 40.7615561,35.8627002 40.8823799,36.8842105 Z M45.1112128,29.5578947 C44.1665904,29.9643021 43.1340961,30.3267735 42.0686499,30.6672769 C41.4425629,28.5144165 40.6187643,26.2736842 39.597254,23.978032 C40.6077803,21.6933638 41.420595,19.4636156 42.0356979,17.3217391 C43.1231121,17.6622426 44.1556064,18.0356979 45.1221968,18.4421053 C49.0105263,20.1006865 51.5258581,22.2755149 51.5258581,24 C51.5148741,25.7244851 48.9995423,27.9102975 45.1112128,29.5578947 Z" id="Shape" fill-rule="nonzero"></path>
                        <circle id="Oval" fill-rule="nonzero" cx="27.009611" cy="24" r="5.01967963"></circle>
                    </g>
                </g>
            </g>
        </g>
    </g>
</svg>