<?xml version="1.0" encoding="UTF-8"?>
<svg width="43px" height="48px" viewBox="0 0 43 48" version="1.1" xmlns="http://www.w3.org/2000/svg" xmlns:xlink="http://www.w3.org/1999/xlink">
    <!-- Generator: Sketch 63.1 (92452) - https://sketch.com -->
    <title>logos/shopify</title>
    <desc>Created with Sketch.</desc>
    <g id="Page-1" stroke="none" stroke-width="1" fill="none" fill-rule="evenodd">
        <g id="1.0-Desktop" transform="translate(-1199.000000, -4802.000000)">
            <g id="Partners-&amp;-Stack" transform="translate(590.000000, 4534.000000)">
                <g id="logos/shopify" transform="translate(598.500000, 260.000000)">
                    <g id="shopify" transform="translate(11.000000, 8.000000)">
                        <path d="M19.4632276,5.73970676e-13 C20.2439875,5.73970676e-13 21.192053,0.446148484 21.9170443,1.39421401 L21.9170443,1.39421401 L22.1680028,1.39421401 C24.8170094,1.39421401 26.2948763,3.65284071 27.159289,6.13454165 C28.0237016,5.85569885 28.553503,5.68839317 28.5813872,5.68839317 C28.8044615,5.63262461 29.3342628,5.54897177 29.6131056,5.82781457 C29.8630314,6.03229929 31.5939988,7.75485166 32.2265269,8.38582151 L32.4573022,8.61624259 C32.4573022,8.61624259 36.1101429,8.8950854 36.2774486,8.8950854 C36.4447543,8.8950854 36.6678285,9.00662252 36.6957128,9.25758104 C36.7235971,9.50853956 41.8821889,44.3638899 41.8544173,44.4196584 L41.8544173,44.4196584 L27.1314047,47.5984664 L1.15099131e-12,42.5235274 C1.15099131e-12,42.5235274 3.48553503,15.5594284 3.62495643,14.6113628 C3.79226211,13.3565702 3.82014639,13.328686 5.15859184,12.9104217 C5.35378181,12.8267689 7.0547229,12.3248519 9.452771,11.5719763 C10.3729522,7.66817707 13.328686,5.73970676e-13 19.4632276,5.73970676e-13 Z M18.8145437,16.2844593 L18.5430464,16.2844197 C12.1017776,16.2844197 8.92296968,20.5785988 8.92296968,25.0121994 C8.92296968,30.3102126 14.1652144,30.449634 14.1652144,33.6563262 C14.1652144,34.4370861 13.6075288,35.4966887 12.241199,35.4966887 C10.1777623,35.4966887 7.72394563,33.3774834 7.72394563,33.3774834 L7.72394563,33.3774834 L6.46915301,37.5043569 C6.46915301,37.5043569 8.81143255,40.4043221 13.4959916,40.4043221 C17.3719066,40.4043221 20.2439875,37.4764726 20.2439875,32.931335 C20.2439875,27.159289 13.830603,26.2112234 13.830603,23.7574068 C13.830603,23.3112583 13.9700244,21.4987801 16.8421053,21.4987801 C18.7661206,21.4987801 20.3834089,22.3631928 20.3834089,22.3631928 L20.3834089,22.3631928 L22.1680028,16.9815267 C22.1680028,16.9815267 20.9410945,16.2565354 18.5430464,16.2844197 Z M19.3238062,1.61728825 C14.9180899,1.61728825 12.4085047,7.41721854 11.4046706,10.9864064 C12.6036947,10.5960265 13.8584873,10.2335308 15.1690484,9.81526664 C16.0334611,5.13070756 18.1247822,2.8163123 20.1045661,1.89613106 C19.8814918,1.72882537 19.602649,1.61728825 19.3238062,1.61728825 Z M21.1084001,3.34611363 C19.6584176,3.98745207 17.9017079,5.71627745 16.9815267,9.22969676 C18.6266992,8.69989543 20.2161032,8.22586267 21.7218543,7.75182991 L21.7218543,7.75182991 L21.7218543,7.4729871 C21.7218543,5.63262461 21.4708958,4.29417916 21.1084001,3.34611363 Z M22.8093412,3.03938655 C23.1718369,4.01533635 23.3670268,5.24224468 23.3670268,6.74799582 L23.3670268,6.74799582 L23.3670268,7.24991286 C24.175671,6.97107006 24.9843151,6.72011154 25.6535378,6.52492158 C25.0679679,4.74032764 24.2035552,3.20669223 22.8093412,3.03938655 Z" id="Combined-Shape" fill="#FFFFFF" fill-rule="nonzero"></path>
                        <path d="M36.2774486,8.83931684 C36.1101429,8.83931684 32.4573022,8.56047403 32.4573022,8.56047403 C32.4573022,8.56047403 29.9198327,6.02300453 29.6131056,5.77204601 C29.5015685,5.66050889 29.3621471,5.60474033 29.25061,5.60474033 L27.2150575,47.5984664 L41.9379575,44.4196584 C41.9379575,44.4196584 36.7793656,9.50853956 36.7514814,9.25758104 C36.6399442,9.00662252 36.4447543,8.8950854 36.2774486,8.83931684 L36.2774486,8.83931684 Z" id="Path" fill="#CFCFCF" fill-rule="nonzero"></path>
                    </g>
                </g>
            </g>
        </g>
    </g>
</svg>