<?xml version="1.0" encoding="UTF-8"?>
<svg width="65px" height="27px" viewBox="0 0 65 27" version="1.1" xmlns="http://www.w3.org/2000/svg" xmlns:xlink="http://www.w3.org/1999/xlink">
    <!-- Generator: Sketch 63.1 (92452) - https://sketch.com -->
    <title>logos/stripe</title>
    <desc>Created with Sketch.</desc>
    <g id="Page-1" stroke="none" stroke-width="1" fill="none" fill-rule="evenodd">
        <g id="1.0-Desktop" transform="translate(-1188.000000, -4910.000000)" fill="#FFFFFF">
            <g id="Partners-&amp;-Stack" transform="translate(590.000000, 4534.000000)">
                <g id="stripe" transform="translate(598.500000, 357.000000)">
                    <g transform="translate(0.000000, 19.000000)">
                        <path d="M63.9609134,13.8600868 C63.9609134,9.32158263 61.7625755,5.74041922 57.5609135,5.74041922 C53.3415229,5.74041922 50.7886144,9.32158263 50.7886144,13.8246297 C50.7886144,19.1609178 53.8024647,21.8556546 58.1282265,21.8556546 C60.2379218,21.8556546 61.8334896,21.3769842 63.0390298,20.7033 L63.0390298,17.1575937 C61.8334896,17.7603637 60.4506642,18.1326629 58.6955395,18.1326629 C56.9758719,18.1326629 55.4512182,17.5298928 55.2562044,15.4379261 L63.9254564,15.4379261 C63.9254564,15.2074552 63.9609134,14.2855715 63.9609134,13.8600868 L63.9609134,13.8600868 Z M55.2030188,12.1758762 C55.2030188,10.1725522 56.4262874,9.33931117 57.5431849,9.33931117 C58.6246254,9.33931117 59.77698,10.1725522 59.77698,12.1758762 L55.2030188,12.1758762 Z" id="path5516"></path>
                        <path d="M43.9454011,5.74041922 C42.208005,5.74041922 41.0911075,6.55593168 40.4706089,7.1232447 L40.240138,6.02407573 L36.339861,6.02407573 L36.339861,26.6955438 L40.7719939,25.7559316 L40.7897224,20.7387571 C41.4279496,21.1996989 42.3675618,21.8556546 43.9276726,21.8556546 C47.1010797,21.8556546 49.9908304,19.302746 49.9908304,13.6828014 C49.9731019,8.54152724 47.0478942,5.74041922 43.9454011,5.74041922 L43.9454011,5.74041922 Z M42.8816892,17.9553776 C41.8357058,17.9553776 41.2152072,17.5830784 40.7897224,17.1221366 L40.7719939,10.5448513 C41.2329357,10.0307239 41.8711629,9.67615327 42.8816892,9.67615327 C44.4949856,9.67615327 45.6118831,11.4844635 45.6118831,13.8069012 C45.6118831,16.1825244 44.5127141,17.9553776 42.8816892,17.9553776 L42.8816892,17.9553776 Z" id="path5518"></path>
                        <polygon id="polygon5520" points="34.6911075 3.73709513 34.6911075 0.138203184 30.241246 1.07781537 30.241246 4.69443585"></polygon>
                        <rect id="rect5522" x="30.241246" y="6.04180479" width="4.44986147" height="15.5124653"></rect>
                        <path d="M25.472271,7.35371561 L25.1886145,6.04180426 L21.3592516,6.04180426 L21.3592516,21.5542695 L25.7913846,21.5542695 L25.7913846,11.0412502 C26.8373679,9.67615327 28.6102211,9.92435271 29.1598056,10.1193666 L29.1598056,6.04180426 C28.5924926,5.82906188 26.5182544,5.43903418 25.472271,7.35371561 Z" id="path5524"></path>
                        <path d="M16.6080051,2.19471287 L12.2822434,3.11659652 L12.2645148,17.3171505 C12.2645148,19.9409732 14.2323819,21.8733831 16.8562046,21.8733831 C18.3099442,21.8733831 19.3736561,21.6074551 19.9586976,21.2883416 L19.9586976,17.6894496 C19.3913846,17.9199205 16.5902766,18.735433 16.5902766,16.1116103 L16.5902766,9.81798152 L19.9586976,9.81798152 L19.9586976,6.04180426 L16.5902766,6.04180426 L16.6080051,2.19471287 Z" id="path5526"></path>
                        <path d="M4.62351766,10.5448513 C4.62351766,9.85343859 5.19083067,9.58751061 6.13044286,9.58751061 C7.47781127,9.58751061 9.17975032,9.99526684 10.5271187,10.7221366 L10.5271187,6.55593168 C9.0556506,5.97089013 7.60191099,5.74041922 6.13044286,5.74041922 C2.53155091,5.74041922 0.138199124,7.61964359 0.138199124,10.7575937 C0.138199124,15.6506685 6.87504119,14.8706131 6.87504119,16.9803084 C6.87504119,17.7958208 6.16589992,18.0617488 5.17310214,18.0617488 C3.70163401,18.0617488 1.82240964,17.4589787 0.333212973,16.6434662 L0.333212973,20.8628568 C1.98196643,21.5719981 3.64844841,21.8733831 5.17310214,21.8733831 C8.86063675,21.8733831 11.3958168,20.0473443 11.3958168,16.8739372 C11.3780883,11.5908347 4.62351766,12.5304469 4.62351766,10.5448513 Z" id="path5528"></path>
                    </g>
                </g>
            </g>
        </g>
    </g>
</svg>