<?xml version="1.0" encoding="UTF-8"?>
<svg width="53px" height="48px" viewBox="0 0 53 48" version="1.1" xmlns="http://www.w3.org/2000/svg" xmlns:xlink="http://www.w3.org/1999/xlink">
    <!-- Generator: Sketch 63.1 (92452) - https://sketch.com -->
    <title>logos/shift</title>
    <desc>Created with Sketch.</desc>
    <g id="Page-1" stroke="none" stroke-width="1" fill="none" fill-rule="evenodd">
        <g id="1.0-Desktop" transform="translate(-630.000000, -4608.000000)" fill="#FFFFFF">
            <g id="Partners-&amp;-Stack" transform="translate(590.000000, 4534.000000)">
                <g id="logos/shift" transform="translate(35.000000, 66.000000)">
                    <g id="swift" transform="translate(5.000000, 8.000000)">
                        <path d="M39.8466667,44.0626667 C33.624,47.6573333 25.068,48.0266667 16.46,44.3373333 C9.49026667,41.372 3.7072,36.1813333 2.36847579e-15,30.2506667 C1.77946667,31.7333333 3.85546667,32.92 6.07973333,33.9573333 C14.9693333,38.124 23.8570667,37.8386667 30.1117333,33.968 C30.1077333,33.964 30.1050667,33.9613333 30.1024,33.9573333 C21.2050667,27.136 13.6424,18.2386667 8.00773333,10.9733333 C6.82093333,9.78693333 5.9312,8.304 5.04146667,6.96946667 C11.8626667,13.1974667 22.6881333,21.0561333 26.5428,23.2814667 C18.3881333,14.6801333 11.1214667,4.00413333 11.4174667,4.30013333 C24.3188,17.3494667 36.3308,24.7641333 36.3308,24.7641333 C36.7281333,24.9881333 37.0348,25.1748 37.2814667,25.3414667 C37.5414667,24.6801333 37.7694667,23.9934667 37.9614667,23.2814667 C40.0374667,15.7188 37.6654667,7.11746667 32.4748,0.000133333333 C44.4854667,7.26613333 51.6041333,20.9081333 48.6374667,32.3268 C48.5601333,32.6348 48.4761333,32.9388 48.3854667,33.2374667 C48.4201333,33.2788 48.4548,33.3214667 48.4894667,33.3654667 C54.4201333,40.7801333 52.7894667,48.6388 52.0481333,47.1561333 C48.8308,40.8601333 42.8748,42.7854667 39.8468,44.0628 L39.8466667,44.0626667 Z" id="Path" fill-rule="nonzero"></path>
                    </g>
                </g>
            </g>
        </g>
    </g>
</svg>