<?xml version="1.0" encoding="UTF-8"?>
<svg width="2339px" height="4365px" viewBox="0 0 2339 4365" version="1.1" xmlns="http://www.w3.org/2000/svg" xmlns:xlink="http://www.w3.org/1999/xlink" style="background: #FFFFFF;">
    <!-- Generator: Sketch 63.1 (92452) - https://sketch.com -->
    <title>background</title>
    <desc>Created with Sketch.</desc>
    <defs>
        <path d="M927.592432,0.930116448 C888.18894,161.651725 877.960638,319.658399 896.957852,474.950138 C916.131199,631.96385 965.146527,786.199782 1043.99125,937.69564 C1440.79398,856.91377 1762.74014,644.495284 2009.75425,300.477889 L2012.94823,296.020558 L2012.94823,296.020558 L2016.1202,291.566368 C1805.00741,1110.63775 931.970615,1566.982 142.217275,1287.82147 L118.311125,1279.13636 C110.020288,1092.01956 138.918698,905.443224 216.543075,744.8096 C144.957548,760.508457 72.6297452,773.190721 0.251618726,783.095204 C83.9525878,413.373916 598.902891,110.394767 927.592432,0.930116448 Z" id="path-1"></path>
        <linearGradient x1="74.6033896%" y1="8.46905302%" x2="47.2349777%" y2="182.805831%" id="linearGradient-3">
            <stop stop-color="#E5E5E0" offset="0%"></stop>
            <stop stop-color="#161715" offset="100%"></stop>
        </linearGradient>
        <path d="M783.729426,1.2822367 C802.902773,158.295948 851.9181,312.53188 930.762828,464.027739 C670.526161,636.991691 354.530784,758.258765 5.08269826,805.468459 C-3.97557587,601.194777 28.7726013,423.102615 103.314649,271.141698 C184.751049,253.230672 265.38227,231.423212 344.503778,205.304537" id="path-4"></path>
        <linearGradient x1="34.1302702%" y1="154.703798%" x2="64.0237485%" y2="-47.746161%" id="linearGradient-6">
            <stop stop-color="#E5E5E0" offset="0%"></stop>
            <stop stop-color="#161715" offset="100%"></stop>
        </linearGradient>
        <path d="M927.592432,0.930116448 C888.18894,161.639156 877.973219,319.64583 896.945271,474.950138 C626.857731,644.507853 315.051806,739.983049 0.251618726,783.095204" id="path-7"></path>
        <linearGradient x1="37.8252612%" y1="172.514751%" x2="58.4737485%" y2="-35.2633163%" id="linearGradient-9">
            <stop stop-color="#E5E5E0" offset="0%"></stop>
            <stop stop-color="#161715" offset="100%"></stop>
        </linearGradient>
        <path d="M619.214971,2045.60614 C495.753495,1523.62374 759.288768,1105.83011 1409.83698,792.233352 C1286.30959,798.425164 1161.13091,820.299817 1044.96956,863.82155 C1081.18687,716.11335 1090.58117,570.893425 1073.12933,428.165243 C1055.51097,283.859074 1010.4602,142.110492 937.995517,2.88022075 L937.970077,2.88022075 C570.092644,77.7791892 272.255001,275.734632 44.4548333,596.719979 C35.9197133,629.82191 28.629997,663.467936 22.6250006,697.595675 C-70.175494,1225.67863 163.694426,1757.61298 619.195313,2045.60614 L619.214971,2045.60614 Z" id="path-10"></path>
        <linearGradient x1="60.7514973%" y1="49.5823967%" x2="52.7058893%" y2="106.733171%" id="linearGradient-12">
            <stop stop-color="#F16215" offset="0%"></stop>
            <stop stop-color="#A61515" offset="100%"></stop>
        </linearGradient>
        <path d="M675.980116,2.86982406 C-6.46522909,456.408451 -271.599753,1296.64187 357.221542,2045.65235 C21.8090182,1553.18617 163.942298,834.445102 811.123178,428.161778 C793.501353,283.859074 748.447113,142.094319 675.980116,2.86982406" id="path-13"></path>
        <linearGradient x1="53.2545067%" y1="-0.0804703131%" x2="53.7640276%" y2="132.48914%" id="linearGradient-15">
            <stop stop-color="#FF9B16" offset="0%"></stop>
            <stop stop-color="#ED2721" offset="100%"></stop>
        </linearGradient>
        <path d="M629.757128,0.745432075 C-17.4202825,407.009118 -159.546624,1125.76289 175.86243,1618.23253 C-28.5988497,1295.22445 86.1737103,656.379698 601.597361,436.401739 C637.81467,288.693538 647.208968,143.473614 629.757128,0.745432075" id="path-16"></path>
        <linearGradient x1="55.9923606%" y1="20.6054451%" x2="44.9679859%" y2="128.704829%" id="linearGradient-18">
            <stop stop-color="#F9791A" offset="0%"></stop>
            <stop stop-color="#D30B07" offset="100%"></stop>
        </linearGradient>
        <path d="M524.605924,74.6413613 C168.300222,226.704623 3.45596059,578.944755 3.17693752,888.635823 C3.05585877,1026.42904 35.5103606,1155.79977 98.170237,1255.37242 C98.402666,1255.73515 98.6385642,1256.10943 98.8709933,1256.47216 C-24.6297994,734.482825 238.896222,316.669562 889.473342,3.05316368 C765.945953,9.244975 640.767277,31.1196278 524.605924,74.6413613" id="path-19"></path>
        <linearGradient x1="53.2883444%" y1="17.8295795%" x2="39.8303576%" y2="110.978734%" id="linearGradient-21">
            <stop stop-color="#F16215" offset="0%"></stop>
            <stop stop-color="#A61515" offset="100%"></stop>
        </linearGradient>
        <path d="M938.029051,2.86982406 C570.119241,77.7618613 272.261939,275.714993 44.4583024,596.716513 C35.9162442,629.818445 28.6265279,663.46447 22.6250006,697.595675 C-70.175494,1225.7052 163.714084,1757.67189 619.268164,2045.65235 C-9.55428669,1296.64187 255.583706,456.408451 938.029051,2.86982406" id="path-22"></path>
        <linearGradient x1="53.841474%" y1="0.688606467%" x2="55.5472172%" y2="125.550484%" id="linearGradient-24">
            <stop stop-color="#FFC636" offset="0%"></stop>
            <stop stop-color="#E21511" offset="100%"></stop>
        </linearGradient>
    </defs>
    <g id="Page-1" stroke="none" stroke-width="1" fill="none" fill-rule="evenodd">
        <g id="1.0-Desktop" transform="translate(-105.000000, -1012.000000)">
            <g id="Backgrounds" transform="translate(99.000000, 1012.222222)">
                <g id="Tails">
                    <g id="Logos-/-Right" transform="translate(283.000000, 1700.000000)">
                        <g id="Group" transform="translate(-0.000000, 8.609677)">
                            <g id="Group-23" transform="translate(0.000000, 1286.011866)">
                                <mask id="mask-2" fill="white">
                                    <use xlink:href="#path-1"></use>
                                </mask>
                                <g id="Clip-22"></g>
                                <polygon id="Fill-21" fill="url(#linearGradient-3)" mask="url(#mask-2)" points="-817.760858 1369.28224 2061.7261 1369.28224 2061.7261 -1507.40453 -817.760858 -1507.40453"></polygon>
                            </g>
                            <g id="Group-26" transform="translate(113.228427, 1759.679767)">
                                <mask id="mask-5" fill="white">
                                    <use xlink:href="#path-4"></use>
                                </mask>
                                <g id="Clip-25"></g>
                                <path d="M930.762828,464.027739 C851.9181,312.53188 802.902773,158.295948 783.729426,1.2822367 C646.408506,87.481407 498.305724,154.537775 344.503778,205.304537 C265.38227,231.423212 184.751049,253.230672 103.314649,271.141698 C28.7726013,423.102615 -3.97557587,601.194777 5.08269826,805.468459 C354.530784,758.258765 670.526161,636.991691 930.762828,464.027739" id="Fill-24" fill="url(#linearGradient-6)" mask="url(#mask-5)"></path>
                            </g>
                            <g id="Group-30" transform="translate(528.399324, 0.000000)">
                                <path d="M862.39802,1.09369958 C996.724677,569.030344 710.005139,1023.61847 2.22682572,1364.83295 C136.616387,1358.09589 272.805022,1334.30251 399.193108,1286.94198 C359.789616,1447.66359 349.561315,1605.67026 368.558528,1760.962 C387.719294,1917.97572 436.734622,2072.19908 515.57935,2223.69494 L515.604512,2223.69494 C915.841838,2142.19663 1239.88901,1926.81182 1487.73346,1577.56566 C1497.00561,1541.54251 1504.94418,1504.94117 1511.47368,1467.79935 C1612.4357,893.226203 1357.99884,314.44239 862.423182,1.09369958 L862.39802,1.09369958" id="Fill-27" fill="#E5E5E0"></path>
                                <path d="M515.57935,2223.70751 C1258.06847,1730.23045 1546.52417,816.0014 862.385439,1.04342302 C1227.30808,536.878481 1072.66321,1318.90531 368.545947,1760.962 C387.731875,1917.97572 436.734622,2072.22422 515.57935,2223.70751" id="Fill-29" fill="#D7D6D1"></path>
                            </g>
                            <path d="M896.957852,1760.962 C1601.06253,1318.91788 1755.69482,536.878481 1390.78476,1.04342302 C1613.2283,352.48918 1488.3625,1047.6004 927.592432,1286.94198 C888.18894,1447.66359 877.960638,1605.67026 896.957852,1760.962" id="Fill-31" fill="#CBCAC5"></path>
                            <g id="Group-38" transform="translate(0.000000, 1286.011866)">
                                <mask id="mask-8" fill="white">
                                    <use xlink:href="#path-7"></use>
                                </mask>
                                <g id="Clip-37"></g>
                                <path d="M896.945271,474.950138 C877.973219,319.64583 888.18894,161.639156 927.592432,0.930116448 C598.89031,110.394767 83.9525878,413.373916 0.251618726,783.095204 C315.051806,739.983049 626.857731,644.507853 896.945271,474.950138" id="Fill-36" fill="url(#linearGradient-9)" mask="url(#mask-8)"></path>
                            </g>
                        </g>
                    </g>
                    <g id="Logos-/-Left">
                        <g id="Group-6" stroke-width="1" transform="translate(3.954018, 394.888208)">
                            <mask id="mask-11" fill="white">
                                <use xlink:href="#path-10"></use>
                            </mask>
                            <g id="Clip-5"></g>
                            <path d="M619.214971,2045.60614 C495.753495,1523.62374 759.288768,1105.83011 1409.83698,792.233352 C1286.30959,798.425164 1161.13091,820.299817 1044.96956,863.82155 C1081.18687,716.11335 1090.58117,570.893425 1073.12933,428.165243 C1055.51097,283.859074 1010.4602,142.110492 937.995517,2.88022075 L937.970077,2.88022075 C570.092644,77.7791892 272.255001,275.734632 44.4548333,596.719979 C35.9197133,629.82191 28.629997,663.467936 22.6250006,697.595675 C-70.175494,1225.67863 163.694426,1757.61298 619.195313,2045.60614 L619.214971,2045.60614 Z" id="Fill-4" fill="url(#linearGradient-12)" mask="url(#mask-11)"></path>
                        </g>
                        <path d="M54.26352,982.99858 C281.309738,666.817662 577.213942,471.595396 941.940284,397.347954 C1014.40381,536.578225 1059.45574,678.337204 1077.08335,822.643374 C1094.53519,965.371556 1085.14089,1110.59148 1048.92358,1258.29968 C1351.03861,1157.69199 1824.34519,879.231446 1901.27112,539.433852 C1834.74668,548.537894 1768.26733,560.198368 1702.48065,574.62552 C1773.82366,426.992406 1800.38764,255.517354 1792.76605,83.5478809 C1061.15675,-189.448618 244.380109,230.81711 48.4088509,991.198109 C50.3492291,988.456846 52.3000145,985.722515 54.26352,982.99858" id="Fill-1" fill="#E6E6E6"></path>
                        <path d="M1077.08681,822.639908 C1094.53172,965.375021 1085.14436,1110.59379 1048.92358,1258.29621 C1351.04208,1157.69545 1824.34865,879.231446 1901.27459,539.430386 C1611.92928,579.055668 1325.33727,666.807266 1077.08681,822.639908" id="Fill-2" fill="#CFCFCF"></path>
                        <path d="M941.940284,397.347954 C1014.40381,536.578225 1059.45574,678.337204 1077.08335,822.643374 C1203.30159,743.415913 1339.42294,681.788908 1480.78377,635.133147 C1553.51095,611.123706 1627.62692,591.090424 1702.48065,574.62552 C1770.98479,434.956277 1801.08609,271.281059 1792.76605,83.5478809 C1471.5768,126.928681 1181.12369,238.381285 941.940284,397.347954" id="Fill-3" fill="#DADADA"></path>
                        <g id="Group-9" stroke-width="1" transform="translate(265.963636, 394.478130)">
                            <mask id="mask-14" fill="white">
                                <use xlink:href="#path-13"></use>
                            </mask>
                            <g id="Clip-8"></g>
                            <path d="M675.980116,2.86982406 C-6.46522909,456.408451 -271.599753,1296.64187 357.221542,2045.65235 C21.8090182,1553.18617 163.942298,834.445102 811.123178,428.161778 C793.501353,283.859074 748.447113,142.094319 675.980116,2.86982406" id="Fill-7" fill="url(#linearGradient-15)" mask="url(#mask-14)"></path>
                        </g>
                        <g id="Group-12" stroke-width="1" transform="translate(447.326217, 821.897942)">
                            <mask id="mask-17" fill="white">
                                <use xlink:href="#path-16"></use>
                            </mask>
                            <g id="Clip-11"></g>
                            <path d="M629.757128,0.745432075 C-17.4202825,407.009118 -159.546624,1125.76289 175.86243,1618.23253 C-28.5988497,1295.22445 86.1737103,656.379698 601.597361,436.401739 C637.81467,288.693538 647.208968,143.473614 629.757128,0.745432075" id="Fill-10" fill="url(#linearGradient-18)" mask="url(#mask-17)"></path>
                        </g>
                        <g id="Group-15" stroke-width="1" transform="translate(524.317654, 1183.658319)">
                            <mask id="mask-20" fill="white">
                                <use xlink:href="#path-19"></use>
                            </mask>
                            <g id="Clip-14"></g>
                            <path d="M524.605924,74.6413613 C168.300222,226.704623 3.45596059,578.944755 3.17693752,888.635823 C3.05585877,1026.42904 35.5103606,1155.79977 98.170237,1255.37242 C98.402666,1255.73515 98.6385642,1256.10943 98.8709933,1256.47216 C-24.6297994,734.482825 238.896222,316.669562 889.473342,3.05316368 C765.945953,9.244975 640.767277,31.1196278 524.605924,74.6413613" id="Fill-13" fill="url(#linearGradient-21)" mask="url(#mask-20)"></path>
                        </g>
                        <g id="Group-18" stroke-width="1" transform="translate(3.954018, 394.478130)">
                            <mask id="mask-23" fill="white">
                                <use xlink:href="#path-22"></use>
                            </mask>
                            <g id="Clip-17"></g>
                            <path d="M938.029051,2.86982406 C570.119241,77.7618613 272.261939,275.714993 44.4583024,596.716513 C35.9162442,629.818445 28.6265279,663.46447 22.6250006,697.595675 C-70.175494,1225.7052 163.714084,1757.67189 619.268164,2045.65235 C-9.55428669,1296.64187 255.583706,456.408451 938.029051,2.86982406" id="Fill-16" fill="url(#linearGradient-24)" mask="url(#mask-23)"></path>
                        </g>
                    </g>
                </g>
            </g>
        </g>
    </g>
</svg>