<?xml version="1.0" encoding="UTF-8"?>
<svg width="1506px" height="835px" viewBox="0 0 1506 835" version="1.1" xmlns="http://www.w3.org/2000/svg" xmlns:xlink="http://www.w3.org/1999/xlink">
    <!-- Generator: Sketch 63.1 (92452) - https://sketch.com -->
    <title>200108_Illustration_Final (1)</title>
    <desc>Created with Sketch.</desc>
    <defs>
        <polygon id="path-1" points="0 0.721 1223.13 0.721 1223.13 421.94 0 421.94"></polygon>
        <linearGradient x1="95.5300187%" y1="30.2514553%" x2="32.5839871%" y2="57.5539816%" id="linearGradient-3">
            <stop stop-color="#E77B34" offset="0%"></stop>
            <stop stop-color="#E15C34" offset="100%"></stop>
        </linearGradient>
        <linearGradient x1="0%" y1="50.0011769%" x2="99.9995043%" y2="50.0011769%" id="linearGradient-4">
            <stop stop-color="#E77B34" offset="0%"></stop>
            <stop stop-color="#E15C34" offset="100%"></stop>
        </linearGradient>
        <path d="M38.16,4.229 C38.16,4.229 22.95,60.291 29.034,100.708 C35.118,141.125 33.814,141.994 33.814,141.994 C33.814,141.994 11.651,186.322 7.304,205.879 C2.959,225.435 0.351,236.734 0.351,236.734 L17.3,241.949 C17.3,241.949 69.451,153.728 75.535,143.298 C81.619,132.868 82.054,0.753 82.054,0.753 L38.16,4.229" id="path-5"></path>
        <linearGradient x1="0%" y1="50%" x2="99.9996328%" y2="50%" id="linearGradient-7">
            <stop stop-color="#E77B34" offset="0%"></stop>
            <stop stop-color="#E15C34" offset="100%"></stop>
        </linearGradient>
        <path d="M68.78,34.75 C68.78,53.47 53.6,68.646 34.88,68.646 C16.16,68.646 0.99,53.47 0.99,34.75 C0.99,16.03 16.16,0.854 34.88,0.854 C53.6,0.854 68.78,16.03 68.78,34.75" id="path-8"></path>
        <linearGradient x1="0%" y1="50%" x2="100.00354%" y2="50%" id="linearGradient-10">
            <stop stop-color="#E77B34" offset="0%"></stop>
            <stop stop-color="#E15C34" offset="100%"></stop>
        </linearGradient>
        <path d="M74.12,0.589 L9.59,0.589 C4.61,0.589 0.57,4.628 0.57,9.61 L0.57,28.072 C0.57,33.054 4.61,37.095 9.59,37.095 L16.47,37.095 L11.72,49.842 L31.47,37.095 L74.12,37.095 C79.1,37.095 83.14,33.054 83.14,28.072 L83.14,9.61 C83.14,4.628 79.1,0.589 74.12,0.589" id="path-11"></path>
        <linearGradient x1="-0.000121109362%" y1="49.9989848%" x2="100.00218%" y2="49.9989848%" id="linearGradient-13">
            <stop stop-color="#E77B34" offset="0%"></stop>
            <stop stop-color="#E15C34" offset="100%"></stop>
        </linearGradient>
        <linearGradient x1="0.000958754386%" y1="50.000311%" x2="100%" y2="50.000311%" id="linearGradient-14">
            <stop stop-color="#E77B34" offset="0%"></stop>
            <stop stop-color="#E15C34" offset="100%"></stop>
        </linearGradient>
        <linearGradient x1="0%" y1="50%" x2="100%" y2="50%" id="linearGradient-15">
            <stop stop-color="#E77B34" offset="0%"></stop>
            <stop stop-color="#E15C34" offset="100%"></stop>
        </linearGradient>
        <path d="M47.018,23.092 C47.018,35.812 36.705,46.125 23.984,46.125 C11.263,46.125 0.951,35.812 0.951,23.092 C0.951,10.371 11.263,0.058 23.984,0.058 C36.705,0.058 47.018,10.371 47.018,23.092" id="path-16"></path>
        <linearGradient x1="0%" y1="50.0010854%" x2="99.9986975%" y2="50.0010854%" id="linearGradient-18">
            <stop stop-color="#E77B34" offset="0%"></stop>
            <stop stop-color="#E15C34" offset="100%"></stop>
        </linearGradient>
        <linearGradient x1="0%" y1="49.9984857%" x2="100.00177%" y2="49.9984857%" id="linearGradient-19">
            <stop stop-color="#E77B34" offset="0%"></stop>
            <stop stop-color="#E15C34" offset="100%"></stop>
        </linearGradient>
        <path d="M46.658,0.187 C46.658,0.187 14.715,135.779 9.501,165.549 C4.286,195.317 0.591,236.603 0.591,236.603 L20.799,241.167 L45.871,159.506 C48.416,151.391 51.818,143.575 56.025,136.184 C68.552,114.176 95.728,66.41 100.547,57.77 C106.848,46.47 113.295,18.729 113.295,18.729 L46.658,0.187" id="path-20"></path>
        <linearGradient x1="0%" y1="50%" x2="99.9991127%" y2="50%" id="linearGradient-22">
            <stop stop-color="#E77B34" offset="0%"></stop>
            <stop stop-color="#E15C34" offset="100%"></stop>
        </linearGradient>
    </defs>
    <g id="Page-1" stroke="none" stroke-width="1" fill="none" fill-rule="evenodd">
        <g id="200108_Illustration_Final-(1)">
            <path d="M980.074,230.396 L1307.75,230.396 C1307.75,230.396 1307.75,218.228 1284.29,217.359 C1260.82,216.489 1258.53,191.053 1229.96,175.927 C1225.01,173.306 1220.69,171.922 1217.14,171.238 C1211.17,170.091 1207,164.713 1207.21,158.639 C1207.88,139.306 1195.71,106.982 1162.6,98.861 C1116.53,87.561 1084.37,105.235 1066.99,137.394 C1049.61,169.553 1051.35,173.031 1041.78,173.9 C1032.22,174.769 1016.58,179.115 1013.1,191.283 C1012.05,194.98 1011.67,198.556 1011.66,201.744 C1011.64,208.295 1007.23,213.993 1000.91,215.695 C999.673,216.028 991.88,216.924 985.143,219.097 C975.462,222.22 967.579,230.396 967.579,230.396 L980.074,230.396" id="Fill-1" fill="#EEEDEA"></path>
            <path d="M85.346,379.062 L299.168,379.062 C306.226,379.062 312.41,374.24 314.023,367.369 C315.824,359.698 315.81,349.9 307.382,343.29 C299.254,336.915 289.973,336.717 282.902,338.014 C276.235,339.237 269.569,335.915 266.528,329.857 C258.093,313.059 238.462,284.189 202.531,282.229 C151.648,279.454 134.995,313.993 134.687,325.712 C134.682,325.885 134.678,326.057 134.674,326.226 C134.545,332.268 130.812,337.505 125.305,339.994 C122.352,341.329 119.488,343.642 117.726,347.607 C117.021,349.193 116.48,350.584 116.07,351.803 C114.299,357.069 109.888,360.994 104.422,361.996 C96.201,363.503 85.814,365.993 81.337,369.502 C69.926,378.445 85.346,379.062 85.346,379.062" id="Fill-2" fill="#EEEDEA"></path>
            <g id="Group-6" transform="translate(0.000000, 413.000000)">
                <mask id="mask-2" fill="white">
                    <use xlink:href="#path-1"></use>
                </mask>
                <g id="Clip-4"></g>
                <path d="M1139.69,340.425 L0,340.425 C0,340.425 32.46,300.754 61.312,289.933 C82.427,282.016 109.334,262.509 157.587,262.509 C175.27,262.509 195.822,265.129 220.003,271.9 C226.238,273.646 232.134,274.46 237.758,274.459 C313.459,274.444 337.793,126.639 418.366,113.21 C424.507,112.186 430.571,111.726 436.554,111.726 C463.663,111.726 489.02,121.192 511.421,130.658 C533.823,140.125 553.27,149.591 568.567,149.591 C582.18,149.591 592.505,142.092 598.697,120.423 C618.96,49.501 686.647,0.721 786.978,0.721 C793.792,0.721 800.77,0.946 807.881,1.405 C889.107,6.645 957.007,82.318 988.073,123.319 C984.597,123.376 981.073,123.519 977.485,123.751 C902.212,128.607 843.935,223.306 843.935,223.306 C843.935,223.306 843.921,225.771 837.25,230.691 C777.14,231.267 727.776,276.649 720.911,335.049 L1138.34,335.049 C1139.23,338.492 1139.69,340.425 1139.69,340.425" id="Fill-3" fill="#FDE8C1" mask="url(#mask-2)"></path>
                <path d="M196.968,335.768 C196.315,336.67 195.618,337.653 195.978,338.495 C229.934,417.752 433.231,338.677 710.051,401.752 C1019.76,472.321 1223.13,335.768 1223.13,335.768 L196.968,335.768" id="Fill-5" fill="#E15C35" mask="url(#mask-2)"></path>
            </g>
            <path d="M1505.18,748.049 L1138.34,748.049 C1131.72,722.498 1101.23,613.804 1056.74,594.735 C1006.24,573.095 1006.24,562.276 1006.24,562.276 C1006.24,562.276 999.768,551.754 988.073,536.319 C989.24,536.299 990.404,536.29 991.557,536.29 C1059.1,536.29 1104.68,569.135 1118.32,616.88 C1122.49,631.472 1129.44,636.519 1138.61,636.518 C1148.9,636.517 1162,630.144 1177.08,623.771 C1192.16,617.398 1209.23,611.025 1227.48,611.025 C1231.51,611.025 1235.6,611.335 1239.73,612.024 C1293.98,621.066 1310.35,720.59 1361.33,720.588 C1365.11,720.588 1369.08,720.039 1373.28,718.865 C1389.56,714.306 1403.4,712.542 1415.3,712.542 C1447.78,712.542 1465.9,725.675 1480.12,731.006 C1488.7,734.222 1497.75,741.227 1505.18,748.049" id="Fill-7" fill="#F8CA7E"></path>
            <path d="M1138.34,748.049 L720.911,748.049 C727.776,689.649 777.14,644.267 837.25,643.691 C843.921,638.771 843.935,636.306 843.935,636.306 C843.935,636.306 902.212,541.607 977.485,536.751 C981.073,536.519 984.597,536.376 988.073,536.319 C999.768,551.754 1006.24,562.276 1006.24,562.276 C1006.24,562.276 1006.24,573.095 1056.74,594.735 C1101.23,613.804 1131.72,722.498 1138.34,748.049" id="Fill-8" fill="#F7C06B"></path>
            <polygon id="Fill-9" fill="url(#linearGradient-3)" points="290.045 406.698 671.324 406.698 671.324 160.172 290.045 160.172"></polygon>
            <polygon id="Fill-11" fill="#2B2D2C" points="290.045 172.222 671.324 172.222 671.324 151.69 290.045 151.69"></polygon>
            <path d="M306.318,161.956 L305.449,161.956 C305.445,163.876 303.892,165.43 301.972,165.433 C300.053,165.43 298.499,163.876 298.495,161.956 C298.496,160.993 298.883,160.13 299.514,159.498 C300.146,158.867 301.009,158.48 301.972,158.479 C302.935,158.48 303.798,158.867 304.43,159.498 C305.061,160.13 305.448,160.993 305.449,161.956 L307.187,161.956 C307.187,159.076 304.853,156.742 301.972,156.741 C299.091,156.742 296.758,159.076 296.757,161.956 C296.758,164.836 299.091,167.171 301.972,167.172 C304.853,167.171 307.187,164.837 307.187,161.956 L306.318,161.956" id="Fill-12" fill="#FFFFFE"></path>
            <path d="M322.832,161.956 L321.963,161.956 C321.96,163.876 320.406,165.43 318.486,165.433 C316.567,165.43 315.013,163.876 315.009,161.956 C315.01,160.993 315.397,160.13 316.028,159.498 C316.66,158.867 317.524,158.48 318.486,158.479 C319.449,158.48 320.313,158.867 320.945,159.498 C321.575,160.13 321.963,160.993 321.963,161.956 L323.701,161.956 C323.701,159.076 321.367,156.742 318.486,156.741 C315.606,156.742 313.272,159.076 313.271,161.956 C313.272,164.837 315.606,167.171 318.486,167.172 C321.367,167.171 323.701,164.836 323.701,161.956 L322.832,161.956" id="Fill-13" fill="#FFFFFE"></path>
            <path d="M339.346,161.956 L338.477,161.956 C338.474,163.876 336.92,165.43 335.001,165.433 C333.081,165.43 331.528,163.876 331.524,161.956 C331.525,160.993 331.912,160.13 332.542,159.498 C333.174,158.867 334.038,158.48 335.001,158.479 C336.921,158.483 338.474,160.037 338.477,161.956 L340.216,161.956 C340.215,159.076 337.882,156.742 335.001,156.741 C332.12,156.742 329.786,159.076 329.786,161.956 C329.786,164.836 332.12,167.171 335.001,167.172 C337.882,167.171 340.215,164.836 340.216,161.956 L339.346,161.956" id="Fill-14" fill="#FFFFFE"></path>
            <polygon id="Fill-15" fill="#FFFFFE" points="307.287 197.403 420.274 197.403 420.274 191.372 307.287 191.372"></polygon>
            <polygon id="Fill-16" fill="#FFFFFE" points="307.287 209.994 420.274 209.994 420.274 203.964 307.287 203.964"></polygon>
            <polygon id="Fill-17" fill="#FFFFFE" points="307.287 222.586 420.274 222.586 420.274 216.554 307.287 216.554"></polygon>
            <polygon id="Fill-18" fill="#FFFFFE" points="307.287 235.177 420.274 235.177 420.274 229.146 307.287 229.146"></polygon>
            <path d="M907.774,132.497 C886.711,132.497 869.634,115.422 869.634,94.357 C869.634,73.293 886.711,56.217 907.774,56.217 C928.839,56.217 945.915,73.293 945.915,94.357 C945.915,115.422 928.839,132.497 907.774,132.497 Z M998.046,118.786 C1000.15,110.998 1001.28,102.81 1001.28,94.357 C1001.28,85.904 1000.15,77.716 998.046,69.927 L983.975,72.013 C982.36,66.495 980.164,61.225 977.454,56.277 L988.88,47.801 C980.627,33.455 968.677,21.505 954.332,13.252 L945.854,24.677 C940.906,21.968 935.636,19.771 930.119,18.156 L932.204,4.086 C924.416,1.983 916.227,0.855 907.774,0.855 C899.322,0.855 891.133,1.983 883.345,4.086 L885.429,18.156 C879.912,19.771 874.643,21.968 869.694,24.677 L861.217,13.252 C846.872,21.505 834.922,33.455 826.67,47.801 L838.094,56.277 C835.384,61.225 833.189,66.495 831.574,72.013 L817.504,69.927 C815.401,77.716 814.272,85.904 814.272,94.357 C814.272,102.81 815.401,110.998 817.504,118.786 L831.574,116.702 C833.189,122.219 835.384,127.488 838.094,132.437 L826.67,140.914 C834.922,155.26 846.872,167.209 861.217,175.462 L869.694,164.037 C874.643,166.747 879.912,168.942 885.429,170.557 L883.345,184.628 C891.133,186.73 899.322,187.859 907.774,187.859 C916.227,187.859 924.416,186.73 932.204,184.628 L930.119,170.557 C935.636,168.942 940.906,166.747 945.854,164.037 L954.332,175.462 C968.677,167.209 980.627,155.26 988.88,140.914 L977.454,132.437 C980.164,127.488 982.36,122.219 983.975,116.702 L998.046,118.786 L998.046,118.786 Z" id="Fill-19" fill="#BBBDBB"></path>
            <path d="M935.796,94.357 C935.796,109.833 923.251,122.379 907.774,122.379 C892.298,122.379 879.753,109.833 879.753,94.357 C879.753,78.882 892.298,66.336 907.774,66.336 C923.251,66.336 935.796,78.882 935.796,94.357" id="Fill-20" fill="#BBBDBB"></path>
            <path d="M539.717,502.935 C519.537,502.935 503.177,486.576 503.177,466.395 C503.177,446.215 519.537,429.855 539.717,429.855 C559.898,429.855 576.257,446.215 576.257,466.395 C576.257,486.576 559.898,502.935 539.717,502.935 Z M626.201,489.8 C628.215,482.338 629.296,474.493 629.296,466.395 C629.296,458.297 628.215,450.452 626.201,442.991 L612.721,444.988 C611.173,439.702 609.069,434.654 606.473,429.913 L617.419,421.792 C609.512,408.048 598.065,396.599 584.32,388.693 L576.199,399.639 C571.459,397.043 566.411,394.939 561.125,393.391 L563.122,379.912 C555.66,377.897 547.816,376.816 539.717,376.816 C531.619,376.816 523.775,377.897 516.313,379.912 L518.31,393.391 C513.024,394.939 507.976,397.043 503.235,399.639 L495.114,388.693 C481.37,396.599 469.922,408.048 462.016,421.792 L472.962,429.913 C470.365,434.654 468.261,439.702 466.714,444.988 L453.234,442.991 C451.22,450.452 450.139,458.297 450.139,466.395 C450.139,474.493 451.22,482.338 453.234,489.8 L466.714,487.803 C468.261,493.089 470.365,498.136 472.962,502.877 L462.016,510.999 C469.922,524.742 481.37,536.19 495.114,544.096 L503.235,533.151 C507.976,535.747 513.024,537.851 518.31,539.398 L516.313,552.879 C523.775,554.892 531.619,555.973 539.717,555.973 C547.816,555.973 555.66,554.892 563.122,552.879 L561.125,539.398 C566.411,537.851 571.459,535.747 576.199,533.151 L584.32,544.096 C598.065,536.19 609.513,524.742 617.419,510.999 L606.473,502.877 C609.069,498.136 611.173,493.089 612.721,487.803 L626.201,489.8 L626.201,489.8 Z" id="Fill-21" fill="#BBBDBB"></path>
            <path d="M576.595,466.395 C576.595,486.762 560.085,503.273 539.717,503.273 C519.35,503.273 502.84,486.762 502.84,466.395 C502.84,446.028 519.35,429.517 539.717,429.517 C560.085,429.517 576.595,446.028 576.595,466.395" id="Fill-22" fill="#BBBDBB"></path>
            <path d="M576.595,466.395 L575.726,466.395 C575.726,476.342 571.697,485.338 565.179,491.857 C558.66,498.375 549.664,502.404 539.717,502.404 C529.771,502.404 520.774,498.375 514.255,491.857 C507.738,485.338 503.709,476.342 503.709,466.395 C503.709,456.449 507.738,447.452 514.255,440.933 C520.774,434.416 529.771,430.387 539.717,430.387 C549.664,430.387 558.66,434.416 565.179,440.933 C571.697,447.452 575.726,456.449 575.726,466.395 L577.464,466.395 C577.464,445.548 560.565,428.649 539.717,428.648 C518.87,428.649 501.971,445.548 501.97,466.395 C501.971,487.243 518.87,504.142 539.717,504.142 C560.565,504.142 577.464,487.243 577.464,466.395 L576.595,466.395" id="Fill-23" fill="#FFFFFE"></path>
            <path d="M559.033,466.395 C559.033,477.062 550.385,485.711 539.717,485.711 C529.05,485.711 520.402,477.062 520.402,466.395 C520.402,455.727 529.05,447.08 539.717,447.08 C550.385,447.08 559.033,455.727 559.033,466.395" id="Fill-24" fill="#BBBDBB"></path>
            <path d="M559.033,466.395 L558.164,466.395 C558.163,471.491 556.1,476.098 552.761,479.438 C549.42,482.778 544.814,484.841 539.717,484.842 C534.621,484.841 530.015,482.778 526.674,479.438 C523.334,476.098 521.272,471.491 521.271,466.395 C521.272,461.299 523.334,456.692 526.674,453.352 C530.015,450.012 534.621,447.949 539.717,447.949 C544.814,447.949 549.42,450.012 552.761,453.352 C556.1,456.692 558.163,461.299 558.164,466.395 L559.902,466.395 C559.901,455.247 550.865,446.211 539.717,446.211 C528.57,446.211 519.533,455.247 519.533,466.395 C519.533,477.543 528.57,486.579 539.717,486.58 C550.865,486.579 559.901,477.543 559.902,466.395 L559.033,466.395" id="Fill-25" fill="#FFFFFE"></path>
            <path d="M511.611,234.806 C514.689,241.627 511.654,249.651 504.834,252.729 C498.013,255.806 489.988,252.772 486.911,245.951 C483.833,239.131 486.867,231.106 493.689,228.028 C500.509,224.951 508.534,227.985 511.611,234.806" id="Fill-26" fill="#2B2D2C"></path>
            <path d="M482.451,247.964 C478.262,238.679 482.392,227.758 491.676,223.568 C500.96,219.38 511.882,223.51 516.071,232.794 C520.26,242.078 516.13,253 506.846,257.189 C497.562,261.378 486.64,257.248 482.451,247.964 Z M537.545,243.305 C537.755,240.586 537.675,237.826 537.29,235.073 L543.906,233.194 C543.284,229.344 542.152,225.51 540.472,221.784 C538.791,218.058 536.665,214.675 534.19,211.66 L528.402,215.377 C526.593,213.265 524.578,211.381 522.399,209.738 L525.749,203.73 C519.259,199.049 511.615,196.158 503.652,195.374 L502.188,202.094 C499.467,201.885 496.709,201.965 493.955,202.35 L492.076,195.734 C488.225,196.356 484.392,197.487 480.667,199.168 C476.941,200.849 473.556,202.974 470.542,205.45 L474.259,211.237 C472.148,213.047 470.262,215.062 468.62,217.241 L462.612,213.89 C457.93,220.381 455.04,228.024 454.256,235.988 L460.977,237.452 C460.767,240.172 460.847,242.931 461.232,245.684 L454.616,247.563 C455.238,251.415 456.369,255.248 458.05,258.973 C459.731,262.699 461.857,266.084 464.333,269.097 L470.119,265.381 C471.929,267.492 473.944,269.378 476.123,271.019 L472.773,277.028 C479.263,281.71 486.906,284.599 494.87,285.384 L496.335,278.663 C498.874,278.859 501.447,278.791 504.019,278.47 C504.201,278.446 504.384,278.433 504.567,278.408 L506.446,285.023 C510.297,284.401 514.13,283.27 517.856,281.59 C518.357,281.363 518.836,281.109 519.324,280.867 C522.469,279.31 525.371,277.45 527.98,275.307 L524.263,269.52 C526.374,267.711 528.259,265.695 529.901,263.516 L535.91,266.867 C540.591,260.377 543.482,252.733 544.266,244.769 L537.545,243.305 L537.545,243.305 Z" id="Fill-27" fill="#2B2D2C"></path>
            <polygon id="Fill-28" fill="#EEEDEA" points="587.86 172.595 789.581 172.595 789.581 50.564 587.86 50.564"></polygon>
            <polygon id="Fill-29" fill="url(#linearGradient-4)" points="587.86 76.14 789.581 76.14 789.581 50.65 587.86 50.65"></polygon>
            <polygon id="Fill-31" fill="#FFFFFE" points="597.782 65.542 629.072 65.542 629.072 63.804 597.782 63.804"></polygon>
            <path d="M744.6,64.166 L743.731,64.166 C743.728,65.726 742.466,66.988 740.907,66.991 C739.347,66.988 738.085,65.725 738.082,64.166 C738.085,62.606 739.347,61.344 740.907,61.342 C742.467,61.344 743.728,62.606 743.731,64.166 L745.469,64.166 C745.469,61.646 743.427,59.604 740.907,59.603 C738.387,59.604 736.344,61.645 736.343,64.166 C736.344,66.686 738.386,68.729 740.907,68.729 C743.428,68.729 745.469,66.686 745.469,64.166 L744.6,64.166" id="Fill-32" fill="#FFFFFE"></path>
            <path d="M760.68,64.166 L759.811,64.166 C759.808,65.725 758.546,66.988 756.986,66.991 C755.427,66.988 754.165,65.726 754.162,64.166 C754.165,62.606 755.426,61.344 756.986,61.342 C758.546,61.344 759.808,62.606 759.811,64.166 L761.55,64.166 C761.549,61.645 759.506,59.604 756.986,59.603 C754.466,59.604 752.424,61.646 752.423,64.166 C752.424,66.686 754.465,68.729 756.986,68.729 C759.507,68.729 761.549,66.686 761.55,64.166 L760.68,64.166" id="Fill-33" fill="#FFFFFE"></path>
            <path d="M776.76,64.166 L775.891,64.166 C775.888,65.725 774.626,66.988 773.066,66.991 C771.507,66.988 770.244,65.725 770.241,64.166 C770.244,62.606 771.506,61.344 773.066,61.342 C774.626,61.344 775.888,62.606 775.891,64.166 L777.63,64.166 C777.629,61.645 775.586,59.604 773.066,59.603 C770.546,59.604 768.503,61.645 768.503,64.166 C768.503,66.686 770.546,68.729 773.066,68.729 C775.587,68.729 777.629,66.686 777.63,64.166 L776.76,64.166" id="Fill-34" fill="#FFFFFE"></path>
            <path d="M759.304,103.062 L758.435,103.062 C758.435,105.585 757.415,107.861 755.762,109.515 C754.108,111.168 751.831,112.188 749.308,112.188 C746.785,112.188 744.509,111.168 742.855,109.515 C741.202,107.861 740.183,105.585 740.182,103.062 C740.183,100.539 741.202,98.263 742.855,96.609 C744.509,94.956 746.785,93.936 749.308,93.935 C751.831,93.936 754.107,94.956 755.762,96.609 C757.415,98.263 758.435,100.539 758.435,103.062 L760.174,103.062 C760.173,97.061 755.309,92.198 749.308,92.197 C743.307,92.198 738.445,97.062 738.444,103.062 C738.445,109.062 743.307,113.926 749.308,113.927 C755.309,113.926 760.173,109.062 760.174,103.062 L759.304,103.062" id="Fill-35" fill="#FFFFFE"></path>
            <polyline id="Fill-36" fill="#FFFFFE" points="634.982 109.301 683.293 139.857 637.185 139.857 637.185 141.595 689.293 141.595 635.911 107.832 634.982 109.301"></polyline>
            <polygon id="Fill-37" fill="#FFFFFE" points="685.859 140.726 687.597 140.726 687.597 113.202 685.859 113.202"></polygon>
            <polygon id="Fill-38" fill="#FFFFFE" points="748.295 129.572 750.033 129.572 750.033 113.636 748.295 113.636"></polygon>
            <path d="M637.474,103.062 C637.474,108.582 632.999,113.057 627.479,113.057 C621.959,113.057 617.484,108.582 617.484,103.062 C617.484,97.542 621.959,93.066 627.479,93.066 C632.999,93.066 637.474,97.542 637.474,103.062" id="Fill-39" fill="#F7C254"></path>
            <path d="M696.434,103.062 C696.434,108.582 691.959,113.057 686.438,113.057 C680.918,113.057 676.443,108.582 676.443,103.062 C676.443,97.542 680.918,93.066 686.438,93.066 C691.959,93.066 696.434,97.542 696.434,103.062" id="Fill-40" fill="#E15C35"></path>
            <path d="M637.474,139.857 C637.474,145.378 632.999,149.852 627.479,149.852 C621.959,149.852 617.484,145.378 617.484,139.857 C617.484,134.337 621.959,129.861 627.479,129.861 C632.999,129.861 637.474,134.337 637.474,139.857" id="Fill-41" fill="#E77B34"></path>
            <polygon id="Fill-42" fill="#FFFFFE" points="671.372 584.097 910.686 584.097 910.686 125.409 671.372 125.409"></polygon>
            <polygon id="Fill-43" fill="#EEEDEA" points="684.7 544.17 897.358 544.17 897.358 162.89 684.7 162.89"></polygon>
            <polygon id="Fill-44" fill="#E15C35" points="765.823 145.651 820.292 145.651 820.292 144.782 765.823 144.782"></polygon>
            <path d="M797.693,565.03 L797.258,565.03 C797.258,567.951 796.075,570.592 794.161,572.507 C792.246,574.421 789.605,575.604 786.683,575.604 C783.762,575.604 781.121,574.421 779.206,572.507 C777.291,570.592 776.108,567.951 776.108,565.03 C776.108,562.108 777.291,559.467 779.206,557.552 C781.121,555.638 783.762,554.455 786.683,554.455 C789.605,554.455 792.246,555.638 794.161,557.552 C796.075,559.467 797.258,562.108 797.258,565.03 L798.128,565.03 C798.127,558.709 793.003,553.586 786.683,553.586 C780.363,553.586 775.239,558.709 775.239,565.03 C775.239,571.35 780.363,576.473 786.683,576.473 C793.003,576.473 798.127,571.35 798.128,565.03 L797.693,565.03" id="Fill-45" fill="#E15C35"></path>
            <polygon id="Fill-46" fill="#FFFFFE" points="769.299 190.739 874.854 190.739 874.854 184.709 769.299 184.709"></polygon>
            <polygon id="Fill-47" fill="#FFFFFE" points="769.299 203.331 874.854 203.331 874.854 197.3 769.299 197.3"></polygon>
            <polygon id="Fill-48" fill="#FFFFFE" points="769.299 215.922 874.854 215.922 874.854 209.891 769.299 209.891"></polygon>
            <polygon id="Fill-49" fill="#FFFFFE" points="769.299 228.513 874.854 228.513 874.854 222.482 769.299 222.482"></polygon>
            <polygon id="Fill-50" fill="#FFFFFE" points="769.299 263.968 874.854 263.968 874.854 257.936 769.299 257.936"></polygon>
            <polygon id="Fill-51" fill="#FFFFFE" points="769.299 276.558 874.854 276.558 874.854 270.528 769.299 270.528"></polygon>
            <polygon id="Fill-52" fill="#FFFFFE" points="769.299 289.15 874.854 289.15 874.854 283.119 769.299 283.119"></polygon>
            <polygon id="Fill-53" fill="#FFFFFE" points="769.299 301.741 874.854 301.741 874.854 295.711 769.299 295.711"></polygon>
            <polygon id="Fill-54" fill="#FFFFFE" points="769.299 337.196 874.854 337.196 874.854 331.165 769.299 331.165"></polygon>
            <polygon id="Fill-55" fill="#FFFFFE" points="769.299 349.787 874.854 349.787 874.854 343.756 769.299 343.756"></polygon>
            <polygon id="Fill-56" fill="#FFFFFE" points="769.299 362.379 874.854 362.379 874.854 356.347 769.299 356.347"></polygon>
            <polygon id="Fill-57" fill="#FFFFFE" points="769.299 374.97 874.854 374.97 874.854 368.938 769.299 368.938"></polygon>
            <polygon id="Fill-58" fill="#FFFFFE" points="769.299 410.424 874.854 410.424 874.854 404.393 769.299 404.393"></polygon>
            <polygon id="Fill-59" fill="#FFFFFE" points="769.299 423.015 874.854 423.015 874.854 416.984 769.299 416.984"></polygon>
            <polygon id="Fill-60" fill="#FFFFFE" points="769.299 435.606 874.854 435.606 874.854 429.576 769.299 429.576"></polygon>
            <polygon id="Fill-61" fill="#FFFFFE" points="769.299 448.198 874.854 448.198 874.854 442.167 769.299 442.167"></polygon>
            <polyline id="Fill-62" fill="#FFFFFE" points="758.457 237.082 758.457 236.213 697.447 236.213 697.447 176.073 757.587 176.073 757.587 237.082 758.457 237.082 758.457 236.213 758.457 237.082 759.326 237.082 759.326 174.335 695.709 174.335 695.709 237.951 759.326 237.951 759.326 237.082 758.457 237.082"></polyline>
            <polyline id="Fill-63" fill="#FFFFFE" points="758.457 310.309 758.457 309.44 697.447 309.44 697.447 249.301 757.587 249.301 757.587 310.309 758.457 310.309 758.457 309.44 758.457 310.309 759.326 310.309 759.326 247.562 695.709 247.562 695.709 311.179 759.326 311.179 759.326 310.309 758.457 310.309"></polyline>
            <polyline id="Fill-64" fill="#FFFFFE" points="758.457 383.538 758.457 382.669 697.447 382.669 697.447 322.529 757.587 322.529 757.587 383.538 758.457 383.538 758.457 382.669 758.457 383.538 759.326 383.538 759.326 320.791 695.709 320.791 695.709 384.407 759.326 384.407 759.326 383.538 758.457 383.538"></polyline>
            <polyline id="Fill-65" fill="#FFFFFE" points="758.457 456.766 758.457 455.897 697.447 455.897 697.447 395.758 757.587 395.758 757.587 456.766 758.457 456.766 758.457 455.897 758.457 456.766 759.326 456.766 759.326 394.019 695.709 394.019 695.709 457.636 759.326 457.636 759.326 456.766 758.457 456.766"></polyline>
            <polyline id="Fill-66" fill="#FFFFFE" points="758.457 529.994 758.457 529.125 697.447 529.125 697.447 468.985 757.587 468.985 757.587 529.994 758.457 529.994 758.457 529.125 758.457 529.994 759.326 529.994 759.326 467.247 695.709 467.247 695.709 530.863 759.326 530.863 759.326 529.994 758.457 529.994"></polyline>
            <polygon id="Fill-67" fill="#FFFFFE" points="769.299 483.652 874.854 483.652 874.854 477.621 769.299 477.621"></polygon>
            <polygon id="Fill-68" fill="#FFFFFE" points="769.299 496.243 874.854 496.243 874.854 490.213 769.299 490.213"></polygon>
            <polygon id="Fill-69" fill="#FFFFFE" points="769.299 508.835 874.854 508.835 874.854 502.803 769.299 502.803"></polygon>
            <polygon id="Fill-70" fill="#FFFFFE" points="769.299 521.426 874.854 521.426 874.854 515.395 769.299 515.395"></polygon>
            <polyline id="Fill-71" fill="#E15C35" points="613.862 462.325 704.918 462.325 734.824 752.861 736.558 752.683 706.491 460.581 613.862 460.581 613.862 462.325"></polyline>
            <polyline id="Fill-72" fill="#525191" points="612.964 461.261 540.546 753.63 542.263 754.055 614.68 461.686"></polyline>
            <polyline id="Fill-73" fill="#E15C35" points="704.412 460.516 631.994 752.885 633.711 753.31 706.128 460.941"></polyline>
            <polygon id="Fill-74" fill="#E15C35" points="602.273 504.187 710.051 504.187 710.051 502.449 602.273 502.449"></polygon>
            <polygon id="Fill-75" fill="#E15C35" points="594.241 545.3 714.371 545.3 714.371 543.561 594.241 543.561"></polygon>
            <polygon id="Fill-76" fill="#E15C35" points="584.476 586.411 718.751 586.411 718.751 584.673 584.476 584.673"></polygon>
            <polygon id="Fill-77" fill="#E15C35" points="574.671 627.523 722.237 627.523 722.237 625.785 574.671 625.785"></polygon>
            <polygon id="Fill-78" fill="#E15C35" points="564.068 668.636 726.468 668.636 726.468 666.897 564.068 666.897"></polygon>
            <polygon id="Fill-79" fill="#E15C35" points="553.18 709.748 731.657 709.748 731.657 708.009 553.18 708.009"></polygon>
            <path d="M728.456,221.018 L747.699,187.493 C747.699,187.493 749.495,189.717 747.785,194.848 C746.074,199.979 744.706,202.802 744.706,202.802 C744.706,202.802 749.495,203.914 747.528,209.644 C745.561,215.374 738.719,225.124 738.719,225.124 L728.456,221.018" id="Fill-80" fill="#4C3C31"></path>
            <path d="M536.505,461.742 C536.505,461.742 534.911,495.637 538.606,522.165 C542.299,548.691 534.586,735.152 534.586,735.152 L551.1,736.258 C551.1,736.258 576.849,650.156 580.978,632.914 C585.107,615.672 594.45,541.617 594.45,541.617 L583.803,466.9 L536.505,461.742" id="Fill-81" fill="#2B2D2C"></path>
            <path d="M619.729,373.521 C619.511,374.173 631.463,398.727 636.026,408.288 C640.589,417.849 656.234,451.964 656.234,451.964 L645.804,453.92 C645.804,453.92 635.374,447.401 626.465,435.667 C617.556,423.933 606.039,401.769 606.039,401.769 L619.729,373.521" id="Fill-82" fill="#2B2D2C"></path>
            <path d="M584.632,257.685 C584.632,257.685 587.904,278.188 587.616,283.965 C587.327,289.74 586.364,298.018 586.364,298.018 C586.364,298.018 592.621,301.869 599.071,300.81 C605.52,299.752 611.681,294.842 611.681,294.842 C611.681,294.842 612.836,288.874 611.681,282.425 C610.526,275.974 609.082,272.894 609.082,272.894 C609.082,272.894 613.318,271.547 614.569,269.622 C615.82,267.696 615.628,259.225 615.628,259.225 C615.628,259.225 618.612,257.492 619.093,256.818 C619.574,256.144 616.205,251.428 615.05,248.252 C613.895,245.075 613.799,242.572 612.548,241.224 C611.296,239.877 602.729,235.545 602.729,235.545 L592.429,243.342 L584.632,257.685" id="Fill-83" fill="#4C3C31"></path>
            <path d="M619.974,220.29 L603.407,230.278 C600.625,228.502 597.326,227.459 593.777,227.459 C583.888,227.459 575.872,235.453 575.872,245.315 C575.872,251.586 579.119,257.091 584.021,260.277 C585.886,260.55 589.179,260.514 592.91,258.07 C598.493,254.412 603.884,243.727 603.884,243.727 L606.846,242.51 C611.108,240.758 615,238.171 618.129,234.789 C619.936,232.836 621.456,230.678 622.077,228.517 C623.531,223.464 622.097,221.248 621.177,220.402 C620.848,220.099 620.358,220.058 619.974,220.29" id="Fill-84" fill="#FFFFFE"></path>
            <path d="M586.364,298.018 C586.364,298.018 560.842,331.945 550.701,367.147 C540.561,402.348 538.388,428.714 537.519,438.42 C536.65,448.125 536.505,461.742 536.505,461.742 L622.698,471.013 C622.698,471.013 632.984,392.208 633.853,378.881 C634.722,365.553 635.012,354.978 635.012,354.978 C635.012,354.978 685.859,326.586 701.939,306.739 C718.018,286.893 740.182,224.312 740.182,224.312 L727.579,220.111 L687.307,279.07 C687.307,279.07 646.553,284.867 634.867,287.545 C614.007,292.325 602.49,298.771 597.71,299.93 C592.929,301.09 586.364,298.018 586.364,298.018" id="Fill-85" fill="#EA8A3C"></path>
            <path d="M559.683,464.639 C559.249,466.378 561.856,495.93 571.417,518.529 C580.978,541.128 613.137,593.278 613.137,593.278 C613.137,593.278 604.011,631.521 602.707,648.036 C601.404,664.551 599.665,685.411 599.665,685.411 L613.137,690.626 C613.137,690.626 649.643,617.615 653.12,605.011 C656.596,592.409 619.656,468.985 619.656,468.985 L559.683,464.639" id="Fill-86" fill="#434544"></path>
            <path d="M599.835,684.376 L589.622,692.742 C589.557,695.965 591.617,698.848 594.688,699.832 L600.704,701.76 C604.037,703.86 609.178,709.039 613.85,710.016 L620.845,710.549 C624.349,710.697 627.811,709.735 630.736,707.801 C631.758,707.124 631.532,705.564 630.361,705.205 L618.413,701.542 L612.112,689.7 L599.835,684.376" id="Fill-87" fill="#2B2D2C"></path>
            <path d="M534.891,733.814 C533.13,737.944 531.272,741.678 530.332,744.027 C529.463,746.2 529.68,752.067 531.419,753.805 C531.853,754.24 532.613,754.594 533.51,754.879 C536.48,755.823 539.677,755.777 542.676,754.929 C543.799,754.612 545.23,754.368 546.846,754.458 C550.758,754.675 567.489,757.5 572.922,757.5 C575.994,757.5 577.816,755.901 578.818,754.511 C579.494,753.576 579.04,752.254 577.938,751.909 C572.747,750.287 558.782,745.68 556.842,742.507 C555.591,740.459 554.161,738.471 553.083,737.042 C552.057,735.682 550.493,734.841 548.793,734.728 L534.891,733.814" id="Fill-88" fill="#2B2D2C"></path>
            <path d="M656.234,451.964 C656.234,451.964 662.246,461.018 662.97,463.916 C663.695,466.812 662.101,467.537 660.218,464.929 C658.335,462.322 652.83,452.616 652.83,452.616 L656.234,451.964" id="Fill-89" fill="#4C3C31"></path>
            <polyline id="Fill-90" fill="#4C3C31" points="645.804 453.92 648.195 460.584 658.914 460.584 656.162 451.964 645.804 453.92"></polyline>
            <polyline id="Fill-91" fill="#FFFFFE" points="569.802 482.087 594.409 484.15 594.492 483.154 569.886 481.09"></polyline>
            <polyline id="Fill-92" fill="#FFFFFE" points="539.598 474.237 555.311 478.106 555.55 477.135 539.837 473.266"></polyline>
            <path d="M610.026,468.267 C610.028,468.272 610.579,470.011 611.546,473.105 C614.931,483.93 623.395,511.271 631.011,538.08 C634.819,551.484 638.415,564.755 641.058,575.758 C643.701,586.753 645.387,595.516 645.382,599.768 C645.382,600.288 645.357,600.737 645.308,601.107 C644.825,604.814 642.373,612.259 638.974,621.246 C633.874,634.738 626.642,651.781 620.685,665.445 C617.707,672.278 615.047,678.267 613.132,682.547 C612.175,684.688 611.404,686.401 610.872,687.579 C610.34,688.757 610.049,689.397 610.048,689.399 L610.958,689.813 C610.959,689.813 619.284,671.512 627.861,651.302 C632.15,641.197 636.502,630.615 639.909,621.599 C643.317,612.575 645.78,605.154 646.3,601.238 C646.356,600.809 646.382,600.32 646.382,599.768 C646.38,597.207 645.822,593.271 644.853,588.293 C638.066,553.492 610.982,467.976 610.98,467.965 L610.026,468.267" id="Fill-93" fill="#FFFFFE"></path>
            <polyline id="Fill-94" fill="#FFFFFE" points="599.927 680.549 615.265 686.457 615.625 685.523 600.287 679.616"></polyline>
            <path d="M546.846,733.953 C546.846,733.953 553.85,709.77 561.089,684.546 C564.709,671.933 568.387,659.061 571.278,648.819 C574.169,638.572 576.269,630.979 576.745,628.861 C577.225,626.723 578.065,620.598 579.071,612.546 C582.084,588.414 586.529,547.195 586.529,547.194 L585.535,547.087 C585.534,547.09 585.411,548.231 585.192,550.251 C584.423,557.321 582.475,575.109 580.514,592.039 C579.534,600.504 578.551,608.755 577.71,615.344 C576.871,621.926 576.169,626.87 575.77,628.642 C575.31,630.691 573.204,638.313 570.315,648.547 C565.98,663.906 559.873,685.188 554.849,702.631 C552.337,711.352 550.096,719.113 548.483,724.694 C547.677,727.484 547.027,729.73 546.579,731.277 C546.131,732.825 545.886,733.673 545.885,733.675 L546.846,733.953" id="Fill-95" fill="#FFFFFE"></path>
            <polyline id="Fill-96" fill="#FFFFFE" points="609.627 464.702 623.146 356.801 635.067 355.475 634.957 354.481 622.251 355.894 608.634 464.577 609.627 464.702"></polyline>
            <path d="M724.313,225.78 L723.937,225.523 L724.052,225.966 C724.098,225.952 724.208,225.925 724.313,225.78 L723.937,225.523 L724.052,225.966 L723.978,225.68 L723.978,225.977 L724.052,225.966 L723.978,225.68 L723.978,225.977 L723.99,225.978 C724.093,225.986 724.455,226.072 724.921,226.214 C726.58,226.711 729.809,227.877 732.607,228.914 C734.007,229.433 735.302,229.92 736.247,230.278 C737.191,230.636 737.784,230.863 737.786,230.863 L738.143,229.929 C738.142,229.929 734.931,228.699 731.574,227.467 C729.895,226.852 728.18,226.236 726.808,225.772 C726.121,225.54 725.521,225.347 725.049,225.209 C724.812,225.14 724.608,225.085 724.436,225.045 C724.26,225.007 724.132,224.98 723.978,224.977 L723.801,224.998 C723.729,225.019 723.602,225.057 723.487,225.216 L724.313,225.78" id="Fill-97" fill="#FFFFFE"></path>
            <path d="M506.446,285.023 L504.567,278.408 C504.384,278.433 504.201,278.446 504.019,278.469 C494.003,290.142 458.048,331.885 452.644,335.867 C446.354,340.502 398.021,369.468 398.021,369.468 L396.863,383.207 C396.863,383.207 399.511,402.738 399.676,403.234 C399.842,403.731 412.753,406.711 413.25,407.207 C413.746,407.704 444.699,382.876 444.699,382.876 C444.699,382.876 483.431,348.612 483.928,347.95 C484.424,347.288 507.763,288.362 507.763,288.362 C507.763,288.362 514.355,284.119 519.324,280.867 C518.836,281.109 518.357,281.363 517.856,281.59 C514.13,283.27 510.297,284.401 506.446,285.023" id="Fill-98" fill="#2B2D2C"></path>
            <path d="M279.432,691.668 L279.432,691.668 C279.205,691.053 278.173,691.169 277.527,691.278 C276.033,691.53 274.145,691.928 273.43,692.907 C272.398,694.319 272.474,698.068 273.343,699.1 C274.213,700.133 275.462,700.73 275.462,700.73 C275.462,700.73 275.842,707.575 280.623,713.659 C282.474,716.015 283.611,715.886 283.937,715.615 C284.262,715.343 282.198,707.249 282.198,704.207 C282.198,701.165 282.429,697.792 282.429,697.792 L279.432,691.668" id="Fill-99" fill="#2B2D2C"></path>
            <path d="M340.505,749.44 L360.958,754.705 C361.604,754.872 361.857,755.65 361.429,756.161 C360.27,757.547 357.695,759.721 352.912,759.817 C345.868,759.958 340.233,757.14 337.979,757 C336.739,756.923 335.287,757.612 334.231,758.248 C332.861,759.073 331.267,759.462 329.672,759.371 C328.634,759.311 327.533,759.13 326.71,758.69 C324.596,757.563 325.019,753.9 326.146,751.083 C327.273,748.265 329.351,746.398 329.351,746.398 L340.505,749.44" id="Fill-100" fill="#2B2D2C"></path>
            <path d="M331.814,740.313 L329.351,746.398 C329.351,746.398 330.944,749.73 334.131,750.599 C337.318,751.469 340.505,749.44 340.505,749.44 L343.402,742.922 L331.814,740.313" id="Fill-101" fill="#ED9B76"></path>
            <path d="M409.895,401.189 L431.624,377.287 L449.587,400.176 C449.587,400.176 432.059,414.806 431.769,420.311 C431.479,425.816 438.578,435.378 435.825,439.289 C433.073,443.2 424.526,446.242 424.526,446.242 L412.213,503.608 L348.763,508.388 C348.763,508.388 375.997,418.284 378.894,411.475 C381.791,404.667 384.689,403.218 384.689,403.218 L409.895,401.189" id="Fill-102" fill="#FFFFFE"></path>
            <path d="M393.598,359.035 C393.598,359.035 401.166,364.999 405.984,367.002 C407.338,367.565 405.477,369.827 405.477,369.827 C405.477,369.827 408.156,372 410.329,374.317 C412.115,376.222 411.85,383.951 407.577,387.934 C404.202,391.081 402.507,391.919 402.507,391.919 C402.507,391.919 404.028,395.758 405.839,397.713 C407.65,399.669 409.895,401.189 409.895,401.189 C409.895,401.189 406.129,410.172 395.771,410.895 C385.413,411.62 382.805,405.246 382.805,405.246 L384.471,396.12 L378.822,379.968 L383.964,366.857 C383.964,366.857 392.221,360.483 392.294,360.266 C392.366,360.049 393.598,359.035 393.598,359.035" id="Fill-103" fill="#ED9B76"></path>
            <path d="M367.16,507.229 L351.95,508.098 C351.95,508.098 337.173,539.823 336.304,573.721 C335.435,607.619 338.043,620.657 338.043,620.657 C338.043,620.657 304.579,657.597 295.453,671.069 C286.327,684.542 285.168,685.99 285.168,685.99 L289.514,695.261 L366.291,641.517 L371.796,507.085 L367.16,507.229" id="Fill-104" fill="#2B2D2C"></path>
            <g id="Group-107" transform="translate(329.000000, 503.000000)">
                <mask id="mask-6" fill="white">
                    <use xlink:href="#path-5"></use>
                </mask>
                <g id="Clip-106"></g>
                <path d="M38.16,4.229 C38.16,4.229 22.95,60.291 29.034,100.708 C35.118,141.125 33.814,141.994 33.814,141.994 C33.814,141.994 11.651,186.322 7.304,205.879 C2.959,225.435 0.351,236.734 0.351,236.734 L17.3,241.949 C17.3,241.949 69.451,153.728 75.535,143.298 C81.619,132.868 82.054,0.753 82.054,0.753 L38.16,4.229" id="Fill-105" fill="url(#linearGradient-7)" mask="url(#mask-6)"></path>
            </g>
            <path d="M366.216,372.256 C366.216,379.101 360.682,384.65 353.855,384.65 C347.028,384.65 341.493,379.101 341.493,372.256 C341.493,365.41 347.028,359.861 353.855,359.861 C360.682,359.861 366.216,365.41 366.216,372.256" id="Fill-108" fill="#F7C254"></path>
            <path d="M390.048,388.297 C389.469,381.344 380.777,377.867 384.834,373.521 C388.89,369.175 390.918,368.305 393.235,363.381 C395.553,358.455 395.698,356.137 395.264,354.399 C395.238,354.297 395.209,354.187 395.178,354.075 C394.404,352.565 393.242,351.441 391.751,350.935 C389.026,350.01 385.912,351.386 383.573,354.189 C382.985,354.14 382.392,354.109 381.791,354.109 C369.711,354.109 359.917,364.097 359.917,376.418 C359.917,388.739 369.711,398.727 381.791,398.727 C383.556,398.727 385.269,398.509 386.913,398.106 C388.583,395.675 390.367,392.121 390.048,388.297" id="Fill-109" fill="#F7C254"></path>
            <path d="M285.168,685.99 L279.432,691.668 C279.432,691.668 278.91,694.665 280.344,696.358 C281.777,698.053 282.429,697.792 282.429,697.792 L288.683,693.361 L285.168,685.99" id="Fill-110" fill="#ED9B76"></path>
            <path d="M505.381,289.708 C505.381,289.708 505.502,286.761 507.057,285.143 C508.612,283.526 516.212,277.705 517.554,277.25 C518.896,276.794 518.674,278.987 515.637,280.842 C512.6,282.697 507.267,288.901 507.042,289.149 C506.817,289.397 505.381,289.708 505.381,289.708" id="Fill-111" fill="#ED9B76"></path>
            <path d="M528.429,274.036 C528.393,273.637 527.849,273.203 527.089,274.76 C526.328,276.318 524.737,277.218 524.737,277.218 C523.098,278.157 521.14,279.424 518.804,280.7 C514.642,282.974 512.313,283.742 508.836,284.068 C507.214,284.22 505.685,287.219 505.685,287.219 L480.733,335.567 C480.733,335.567 474.359,341.072 463.929,348.025 C453.499,354.978 431.624,377.287 431.624,377.287 L449.587,400.176 C449.587,400.176 491.778,357.297 496.233,350.017 C500.688,342.737 510.574,291.674 512.639,288.848 C514.32,286.548 515.627,287.979 527.097,277.711 C527.684,277.185 528.096,276.501 528.217,275.722 C528.326,275.02 528.444,274.203 528.429,274.036" id="Fill-112" fill="#ED9B76"></path>
            <line x1="373.171" y1="518.411" x2="391.99" y2="516.464" id="Fill-113" fill="#DADBD8"></line>
            <polyline id="Fill-114" fill="#DADBD8" points="373.196 518.66 392.016 516.712 391.964 516.215 373.145 518.162"></polyline>
            <line x1="352.031" y1="517.437" x2="360.281" y2="517.437" id="Fill-115" fill="#DADBD8"></line>
            <polygon id="Fill-116" fill="#DADBD8" points="352.031 517.687 360.281 517.687 360.281 517.187 352.031 517.187"></polygon>
            <path d="M405.37,504.176 C405.37,504.18 405.334,505.444 405.27,507.694 C404.822,523.444 402.986,587.316 402.31,601.16 C402.162,604.194 402.118,607.409 402.118,610.68 C402.118,615.544 402.215,620.531 402.215,625.224 C402.22,633.879 401.871,641.551 400.013,645.514 C399.124,647.421 395.087,654.544 389.55,664.117 C381.242,678.483 369.54,698.403 359.915,714.73 C355.103,722.894 350.81,730.16 347.72,735.384 C346.175,737.997 344.931,740.099 344.073,741.548 C343.215,742.997 342.743,743.793 342.743,743.793 L343.173,744.048 C343.173,744.048 356.591,721.406 370.461,697.797 C377.396,685.993 384.443,673.947 389.983,664.367 C395.525,654.784 399.551,647.686 400.466,645.726 C402.394,641.576 402.711,633.9 402.715,625.224 C402.715,620.525 402.618,615.537 402.618,610.68 C402.618,607.414 402.662,604.206 402.809,601.185 C403.583,585.346 405.87,504.192 405.87,504.19 L405.37,504.176" id="Fill-117" fill="#DADBD8"></path>
            <polyline id="Fill-118" fill="#DADBD8" points="330.069 736.495 347.867 742.403 348.024 741.928 330.226 736.02"></polyline>
            <polyline id="Fill-119" fill="#DADBD8" points="288.831 693.563 362.844 639.601 362.549 639.197 288.536 693.159"></polyline>
            <path d="M446.546,396.399 C446.545,396.399 442.601,400.359 438.26,404.841 C436.09,407.082 433.82,409.454 431.892,411.528 C429.963,413.605 428.383,415.375 427.566,416.449 C425.923,418.617 423.971,422.707 422.209,427.021 C420.452,431.332 418.906,435.841 418.146,438.794 C417.764,440.282 416.766,445.001 415.475,451.281 C411.604,470.11 405.129,502.838 405.129,502.838 L406.11,503.032 C406.111,503.03 406.29,502.123 406.608,500.521 C407.72,494.913 410.52,480.813 413.206,467.478 C414.549,460.81 415.863,454.334 416.924,449.206 C417.984,444.082 418.793,440.292 419.115,439.043 C419.855,436.163 421.393,431.671 423.135,427.399 C424.873,423.129 426.838,419.054 428.362,417.054 C429.128,416.045 430.707,414.273 432.625,412.209 C435.505,409.11 439.163,405.332 442.101,402.331 C443.57,400.83 444.858,399.523 445.779,398.592 C446.701,397.66 447.253,397.106 447.254,397.105 L446.546,396.399" id="Fill-120" fill="#E77B34"></path>
            <path d="M381.221,409.871 C381.243,409.903 382.268,411.364 384.305,412.83 C386.339,414.296 389.399,415.765 393.442,415.764001 C394.543,415.764001 395.717,415.655 396.96,415.409 C402.154,414.379 406.053,411.305 408.651,408.509 C411.25,405.71 412.56,403.175 412.575,403.148 L411.686,402.689 L411.631,402.792 C411.344,403.318 409.93,405.786 407.433,408.337 C404.936,410.891 401.366,413.518 396.766,414.428 C395.585,414.662 394.477,414.764 393.442,414.764 C389.646,414.764 386.801,413.393 384.889,412.019 C383.934,411.332 383.216,410.644 382.74,410.132 C382.502,409.876 382.324,409.663 382.207,409.517 L382.078,409.35 L382.048,409.308 L382.04,409.298 L381.221,409.871" id="Fill-121" fill="#E77B34"></path>
            <g id="Group-124" transform="translate(1095.000000, 306.000000)">
                <mask id="mask-9" fill="white">
                    <use xlink:href="#path-8"></use>
                </mask>
                <g id="Clip-123"></g>
                <path d="M68.78,34.75 C68.78,53.47 53.6,68.646 34.88,68.646 C16.16,68.646 0.99,53.47 0.99,34.75 C0.99,16.03 16.16,0.854 34.88,0.854 C53.6,0.854 68.78,16.03 68.78,34.75" id="Fill-122" fill="url(#linearGradient-10)" mask="url(#mask-9)"></path>
            </g>
            <polygon id="Fill-125" fill="#FFFFFE" points="1116.12 336.26 1143.65 336.26 1143.65 334.521 1116.12 334.521"></polygon>
            <polygon id="Fill-126" fill="#FFFFFE" points="1116.12 346.979 1143.65 346.979 1143.65 345.241 1116.12 345.241"></polygon>
            <g id="Group-129" transform="translate(1082.000000, 481.000000)">
                <mask id="mask-12" fill="white">
                    <use xlink:href="#path-11"></use>
                </mask>
                <g id="Clip-128"></g>
                <path d="M74.12,0.589 L9.59,0.589 C4.61,0.589 0.57,4.628 0.57,9.61 L0.57,28.072 C0.57,33.054 4.61,37.095 9.59,37.095 L16.47,37.095 L11.72,49.842 L31.47,37.095 L74.12,37.095 C79.1,37.095 83.14,33.054 83.14,28.072 L83.14,9.61 C83.14,4.628 79.1,0.589 74.12,0.589" id="Fill-127" fill="url(#linearGradient-13)" mask="url(#mask-12)"></path>
            </g>
            <polyline id="Fill-130" fill="#FFFFFE" points="1114.37 491.477 1104.36 499.094 1114.52 506.432 1115.53 505.023 1107.28 499.058 1115.42 492.86 1114.37 491.477"></polyline>
            <polyline id="Fill-131" fill="#FFFFFE" points="1133.33 506.419 1143.35 498.802 1133.19 491.464 1132.17 492.873 1140.43 498.838 1132.28 505.035 1133.33 506.419"></polyline>
            <polyline id="Fill-132" fill="#FFFFFE" points="1119.17 508.777 1129.79 489.974 1128.27 489.119 1117.66 507.922"></polyline>
            <polygon id="Fill-133" fill="url(#linearGradient-14)" points="374.113 109.179 478.415 109.179 478.415 44.86 374.113 44.86"></polygon>
            <polyline id="Fill-135" fill="#FFFFFE" points="373.949 46.036 477.815 109.775 478.725 108.293 374.858 44.554"></polyline>
            <polyline id="Fill-136" fill="#FFFFFE" points="477.67 44.409 373.804 108.149 374.713 109.63 478.58 45.891"></polyline>
            <polygon id="Fill-137" fill="url(#linearGradient-15)" points="236.204 515.197 290.093 515.197 290.093 461.307 236.204 461.307"></polygon>
            <polyline id="Fill-139" fill="#FFFFFE" points="249.724 476.492 275.365 501.264 276.573 500.013 250.932 475.242"></polyline>
            <polyline id="Fill-140" fill="#FFFFFE" points="275.365 475.242 249.724 500.013 250.932 501.264 276.573 476.492"></polyline>
            <g id="Group-143" transform="translate(446.000000, 598.000000)">
                <mask id="mask-17" fill="white">
                    <use xlink:href="#path-16"></use>
                </mask>
                <g id="Clip-142"></g>
                <path d="M47.018,23.092 C47.018,35.812 36.705,46.125 23.984,46.125 C11.263,46.125 0.951,35.812 0.951,23.092 C0.951,10.371 11.263,0.058 23.984,0.058 C36.705,0.058 47.018,10.371 47.018,23.092" id="Fill-141" fill="url(#linearGradient-18)" mask="url(#mask-17)"></path>
            </g>
            <path d="M480.855,620.878 C480.778,622.806 480.167,624.731 478.977,626.432 C476.947,629.332 473.714,630.881 470.422,630.882 C468.356,630.882 466.275,630.272 464.452,628.997 C461.551,626.967 460.002,623.733 460.001,620.441 C460.002,618.375 460.612,616.293 461.887,614.471 C463.917,611.57 467.151,610.021 470.443,610.02 C470.711,610.02 470.979,610.03 471.247,610.051 L471.382,608.318 C471.069,608.293 470.755,608.281 470.443,608.281 C466.609,608.28 462.829,610.093 460.463,613.474 C458.978,615.595 458.262,618.033 458.262999,620.441 C458.262,624.275 460.074,628.055 463.455,630.421 C465.576,631.906 468.014,632.621 470.422,632.621 C474.256,632.622 478.036,630.809 480.402,627.429 C481.787,625.45 482.503,623.195 482.592,620.948 L480.855,620.878" id="Fill-144" fill="#FFFFFE"></path>
            <polyline id="Fill-145" fill="#FFFFFE" points="473.407 625.446 474.475 626.819 481.234 621.549 485.998 628.676 487.443 627.707 481.64 619.028 473.407 625.446"></polyline>
            <path d="M229.934,68.389 L229.065,68.389 C229.064,72.112 227.558,75.474 225.119,77.915 C222.678,80.354 219.316,81.861 215.593,81.861 C211.87,81.861 208.508,80.354 206.067,77.915 C203.628,75.474 202.122,72.112 202.121,68.389 C202.122,64.667 203.628,61.304 206.067,58.864 C208.508,56.424 211.87,54.918 215.593,54.918 C219.316,54.918 222.678,56.424 225.119,58.864 C227.558,61.304 229.064,64.667 229.065,68.389 L230.803,68.389 C230.802,59.989 223.994,53.18 215.593,53.179 C207.193,53.18 200.384,59.989 200.383,68.389 C200.384,76.79 207.193,83.599 215.593,83.599 C223.994,83.599 230.802,76.79 230.803,68.389 L229.934,68.389" id="Fill-146" fill="#E77B34"></path>
            <path d="M1258.12,403.875 C1258.12,410.115 1253.06,415.174 1246.82,415.174 C1240.58,415.174 1235.52,410.115 1235.52,403.875 C1235.52,397.635 1240.58,392.575 1246.82,392.575 C1253.06,392.575 1258.12,397.635 1258.12,403.875" id="Fill-147" fill="#F7C254"></path>
            <polygon id="Fill-148" fill="#DADBD8" points="883.812 335.648 1053.29 335.648 1053.29 209.189 883.812 209.189"></polygon>
            <polygon id="Fill-149" fill="url(#linearGradient-19)" points="883.812 335.56 1053.29 335.56 1053.29 309.145 883.812 309.145"></polygon>
            <polyline id="Fill-151" fill="#FFFFFE" points="1034.09 248.012 999.19 280.362 976.986 248.579 948.771 278.529 928.343 246.366 896.286 280.649 897.555 281.837 928.08 249.194 948.503 281.349 976.785 251.327 998.908 282.993 1035.28 249.287 1034.09 248.012"></polyline>
            <polyline id="Fill-152" fill="#FFFFFE" points="1019.76 249.374 1033.51 249.51 1033.24 262.683 1034.98 262.719 1035.28 247.789 1019.77 247.636 1019.76 249.374"></polyline>
            <path d="M999.922,378.157 C989.492,355.268 954.434,360.049 954.434,360.049 L931.929,357.692 C921.453,356.595 910.865,357.986 901.026,361.752 L844.107,383.538 L824.128,354.753 L810.165,361.86 L831.693,405.563 C834.063,410.376 839.37,412.996 844.631,411.955 L890.276,402.919 L870.704,494.337 L975.295,522.729 L984.855,481.009 C984.855,481.009 1003.98,469.71 1009.19,464.205 C1014.41,458.7 1010.35,401.045 999.922,378.157" id="Fill-153" fill="#2B2D2C"></path>
            <path d="M879.838,744.595 L879.183,750.353 C879.132,750.802 879.179,751.256 879.322,751.683 L879.755,752.981 C880.369,754.822 879.165,756.774 877.242,757.035 C875.297,757.298 872.734,757.411 869.979,756.9 C864.112,755.814 863.461,755.814 858.68,756.683 C855.495,757.262 847.677,757.456 842.816,757.52 C839.591,757.563 836.488,756.004 834.821,753.243 C834.725,753.085 834.638,752.928 834.56,752.772 C833.474,750.599 834.778,749.947 839.34,749.512 C843.398,749.126 860.507,741.87 864.255,740.264 C864.736,740.058 865.257,739.979 865.779,740.031 L877.065,741.16 C878.785,741.332 880.033,742.878 879.838,744.595" id="Fill-154" fill="#2B2D2C"></path>
            <path d="M929.13,742.459 L929.171,750.975 L930.046,752.836 C930.724,754.279 929.923,755.97 928.383,756.386 C926.679,756.844 924.347,757.252 921.759,757.083 C916.49,756.739 915.917,756.806 911.805,758.068 C909.066,758.909 902.214,759.893 897.948,760.456 C895.119,760.83 892.229,759.782 890.476,757.529 C890.376,757.4 890.282,757.27 890.198,757.142 C889.016,755.345 890.094,754.636 894.06,753.779 C898.026,752.923 915.602,742.706 915.602,742.706 L929.13,742.459" id="Fill-155" fill="#2B2D2C"></path>
            <path d="M875.412,492.671 C875.412,492.671 866.937,552.861 865.417,576.547 C864.418,592.1 865.855,619.367 866.96,636.256 C867.589,645.89 870.171,655.292 874.552,663.894 L914.96,743.211 L929.3,742.342 C929.3,742.342 919.305,680.631 918.871,672.807 C918.436,664.985 923.651,508.316 923.651,508.316 L875.412,492.671" id="Fill-156" fill="#2B2D2C"></path>
            <path d="M822.349,355.658 L805.297,328.729 C805.297,328.729 803.67,332.524 804.382,334.72 C805.095,336.918 808.261,342.767 808.261,342.767 C808.261,342.767 806.006,347.475 806.976,350.728 C807.946,353.98 812.068,360.891 812.068,360.891 L822.349,355.658" id="Fill-157" fill="#ED9B76"></path>
            <g id="Group-160" transform="translate(862.000000, 504.000000)">
                <mask id="mask-21" fill="white">
                    <use xlink:href="#path-20"></use>
                </mask>
                <g id="Clip-159"></g>
                <path d="M46.658,0.187 C46.658,0.187 14.715,135.779 9.501,165.549 C4.286,195.317 0.591,236.603 0.591,236.603 L20.799,241.167 L45.871,159.506 C48.416,151.391 51.818,143.575 56.025,136.184 C68.552,114.176 95.728,66.41 100.547,57.77 C106.848,46.47 113.295,18.729 113.295,18.729 L46.658,0.187" id="Fill-158" fill="url(#linearGradient-22)" mask="url(#mask-21)"></path>
            </g>
            <path d="M926.765,357.151 C926.765,357.151 932.27,364.394 940.528,365.409 C948.785,366.423 954.434,360.049 954.434,360.049 C954.434,360.049 952.986,353.53 953.711,350.053 C954.434,346.576 955.159,343.389 955.159,343.389 C955.159,343.389 961.677,332.235 964.14,326.73 C966.603,321.225 968.921,308.477 955.303,302.103 C941.686,295.729 935.892,302.249 934.443,304.711 C932.995,307.174 933.285,309.927 931.256,313.403 C929.788,315.921 927.939,318.742 927.031,320.107 C926.699,320.606 926.729,321.257 927.1,321.727 L928.649,323.688 L928.359,333.829 L930.966,346.721 L926.765,357.151" id="Fill-161" fill="#ED9B76"></path>
            <path d="M928.504,328.469 C928.504,328.469 929.301,330.374 932.126,332.235 C941.469,338.391 947.771,327.962 947.771,327.962 C947.771,327.962 959.07,312.969 941.542,309.346 C934.218,307.834 929.735,300.365 932.126,296.454 C935.572,290.814 945.598,289.79 952.261,296.454 C958.925,303.118 970.804,307.174 970.08,313.692 C969.355,320.212 966.313,326.586 963.706,331.22 C961.098,335.856 954.724,344.838 954.724,344.838 C954.724,344.838 954.145,341.796 956.172,338.029 C958.201,334.263 960.808,328.759 959.505,326.44 C958.201,324.123 954.58,324.412 954.434,327.02 C954.29,329.628 953.421,337.015 951.248,339.767 C949.075,342.52 945.598,346.215 935.747,349.039 C929.977,350.694 924.448,350.053 920.826,348.17 L920.718,348.114 C918.627,347.011 918.088,344.255 919.579,342.419 C921.081,340.572 922.949,338.223 923.869,336.871 C926.331,333.249 928.504,328.469 928.504,328.469" id="Fill-162" fill="#2B2D2C"></path>
            <path d="M948.422,508.207 C946.462,507.049 944.885,506.192 944.376,505.919 L944.407,505.731 C945.752,505.092 947.198,503.537 948.217,501.456 C949.078,499.699 949.452,497.932 949.357,496.548 C949.909,496.256 950.269,496.147 950.269,496.147 L944.946,488.542 C944.946,488.542 939.948,490.824 938.862,497.994 C938.452,500.698 938.135,503.001 937.899,504.82 C937.542,507.578 939.076,510.229 941.646,511.293 L949.944,514.726 C949.944,514.726 950.013,513.682 948.681,512.521 L950.595,513.313 C950.595,513.313 950.704,511.793 948.314,510.38 C947.831,510.095 947.38,509.833 946.952,509.588 L950.704,511.14 C950.704,511.14 950.813,509.62 948.422,508.207" id="Fill-163" fill="#ED9B76"></path>
            <polygon id="Fill-164" fill="#FFFFFE" points="900.407 539.982 910.686 539.982 910.686 538.982 900.407 538.982"></polygon>
            <polyline id="Fill-165" fill="#FFFFFE" points="964.988 528.264 956.488 554.38 965.148 556.46 965.382 555.487 957.773 553.66 965.939 528.573 964.988 528.264"></polyline>
            <polyline id="Fill-166" fill="#FFFFFE" points="923.274 739.863 903.697 678.499 902.744 678.803 922.321 740.167"></polyline>
            <polyline id="Fill-167" fill="#FFFFFE" points="912.43 738.628 928.379 736.754 928.263 735.761 912.313 737.635"></polyline>
            <polyline id="Fill-168" fill="#FFFFFE" points="863.097 734.294 884.241 740.495 884.522 739.536 863.379 733.334"></polyline>
            <path d="M875.336,743.344 C875.337,743.34 875.697,742.037 876.343,739.718 C878.606,731.603 884.368,711.103 890.392,690.954 C893.404,680.88 896.482,670.893 899.22,662.589 C901.956,654.288 904.361,647.654 905.995,644.346 C909.768,636.696 922.67,614.156 934.615,593.558 C940.589,583.257 946.325,573.436 950.568,566.19 C952.69,562.567 954.438,559.588 955.656,557.515 C956.874,555.441 957.559,554.277 957.561,554.274 L956.7,553.767 C956.699,553.767 945.699,572.451 933.75,593.057 C921.799,613.668 908.909,636.181 905.098,643.904 C903.174,647.807 900.313,655.917 897.075,665.939 C887.371,695.987 874.373,743.074 874.372,743.078 L875.336,743.344" id="Fill-169" fill="#FFFFFE"></path>
            <polyline id="Fill-170" fill="#FFFFFE" points="812.668 366.954 827.543 359.814 827.11 358.912 812.235 366.053"></polyline>
            <polyline id="Fill-171" fill="#FFFFFE" points="952.368 481.845 958.701 492.425 959.56 491.912 953.227 481.332"></polyline>
            <polyline id="Fill-172" fill="#FFFFFE" points="969.613 398.776 974.797 452.012 975.792 451.915 970.609 398.679"></polyline>
        </g>
    </g>
</svg>