<?xml version="1.0" encoding="UTF-8"?>
<svg width="230px" height="230px" viewBox="0 0 230 230" version="1.1" xmlns="http://www.w3.org/2000/svg" xmlns:xlink="http://www.w3.org/1999/xlink">
    <!-- Generator: Sketch 63.1 (92452) - https://sketch.com -->
    <title>Logos / Whole</title>
    <desc>Created with Sketch.</desc>
    <defs>
        <path d="M53.8904,177.7637 C43.2137,132.5778 66.0037,96.4111 122.2618,69.2643 C111.5794,69.8003 100.7542,71.6939 90.7088,75.4614 C93.8408,62.6749 94.6532,50.1038 93.144,37.7484 C91.6204,25.2564 87.7245,12.9858 81.4579,0.9332 L81.4557,0.9332 C49.6424,7.4169 23.886,24.5531 4.1863,52.3395 C3.4482,55.205 2.8178,58.1176 2.2985,61.0719 C-5.7267,106.7859 14.4979,152.8333 53.8887,177.7637 L53.8904,177.7637 Z" id="path-1"></path>
        <linearGradient x1="60.7296596%" y1="49.5823967%" x2="52.7003933%" y2="106.733171%" id="linearGradient-3">
            <stop stop-color="#F16215" offset="0%"></stop>
            <stop stop-color="#A61515" offset="100%"></stop>
        </linearGradient>
        <path d="M58.4574,0.9323 C-0.5591,40.1933 -23.4874,112.9289 30.8918,177.7677 C1.886,135.1369 14.1774,72.9184 70.1443,37.7481 C68.6204,25.2564 64.7242,12.9844 58.4574,0.9323" id="path-4"></path>
        <linearGradient x1="53.2478964%" y1="-0.0804703131%" x2="53.7563824%" y2="132.48914%" id="linearGradient-6">
            <stop stop-color="#FF9B16" offset="0%"></stop>
            <stop stop-color="#ED2721" offset="100%"></stop>
        </linearGradient>
        <path d="M55.144,0.7484 C-0.8226,35.917 -13.1134,98.1366 15.8921,140.7677 C-1.7893,112.8062 8.136,57.504 52.7088,38.4614 C55.8408,25.6749 56.6532,13.1038 55.144,0.7484" id="path-7"></path>
        <linearGradient x1="55.9801894%" y1="20.6054451%" x2="44.9782065%" y2="128.704829%" id="linearGradient-9">
            <stop stop-color="#F9791A" offset="0%"></stop>
            <stop stop-color="#D30B07" offset="100%"></stop>
        </linearGradient>
        <path d="M45.7088,6.4614 C14.8962,19.6249 0.6408,50.1169 0.616670647,76.9256 C0.6062,88.8538 3.4128,100.0529 8.8315,108.6725 C8.8516,108.7039 8.872,108.7363 8.8921,108.7677 C-1.788,63.5812 21.0012,27.4128 77.2618,0.2643 C66.5794,0.8003 55.7542,2.6939 45.7088,6.4614" id="path-10"></path>
        <linearGradient x1="53.2816653%" y1="17.8295795%" x2="39.8510134%" y2="110.978734%" id="linearGradient-12">
            <stop stop-color="#F16215" offset="0%"></stop>
            <stop stop-color="#A61515" offset="100%"></stop>
        </linearGradient>
        <path d="M81.4608,0.9323 C49.6447,7.4154 23.8866,24.5514 4.1866,52.3392 C3.4479,55.2047 2.8175,58.1173 2.2985,61.0719 C-5.7267,106.7882 14.4996,152.8384 53.895,177.7677 C-0.4843,112.9289 22.4443,40.1933 81.4608,0.9323" id="path-13"></path>
        <linearGradient x1="53.8336715%" y1="0.688606467%" x2="55.5359501%" y2="125.550484%" id="linearGradient-15">
            <stop stop-color="#FFC636" offset="0%"></stop>
            <stop stop-color="#E21511" offset="100%"></stop>
        </linearGradient>
        <path d="M73.6100522,0.073879613 C70.4831475,12.8400771 69.6714702,25.3906259 71.1790136,37.7255262 C72.7005343,50.1972035 76.5901961,62.4482404 82.8470006,74.481632 C114.33569,68.0650878 139.884059,51.1925816 159.486117,23.8671085 L159.739579,23.5130604 L159.739579,23.5130604 L159.991294,23.1592619 C143.238221,88.2185101 73.9574875,124.466161 11.2857982,102.292301 L9.38870109,101.602439 C8.73077318,86.7396575 11.0240363,71.9198065 17.1839986,59.1605977 C11.5032554,60.4075657 5.76360819,61.4149242 0.019967463,62.2016423 C6.66214402,32.8344961 47.5265554,8.76871136 73.6100522,0.073879613 Z" id="path-16"></path>
        <linearGradient x1="74.6033896%" y1="8.3910698%" x2="47.2349777%" y2="183.055202%" id="linearGradient-18">
            <stop stop-color="#E5E5E0" offset="0%"></stop>
            <stop stop-color="#161715" offset="100%"></stop>
        </linearGradient>
        <path d="M62.1936553,0.785719668 C63.715176,13.257397 67.6048377,25.5084339 73.8616423,37.5418255 C53.2102937,51.2804384 28.1341553,60.9127425 0.403342752,64.6626321 C-0.315485915,48.4370717 2.28327939,34.2911225 8.19864029,22.2207912 C14.6611097,20.7981094 21.0596832,19.065932 27.3384519,16.9913126" id="path-19"></path>
        <linearGradient x1="34.1302702%" y1="154.900402%" x2="64.0237485%" y2="-47.9297003%" id="linearGradient-21">
            <stop stop-color="#E5E5E0" offset="0%"></stop>
            <stop stop-color="#161715" offset="100%"></stop>
        </linearGradient>
        <path d="M73.6100522,0.073879613 C70.4831475,12.8390787 69.6724685,25.3896275 71.1780152,37.7255262 C49.7449405,51.1935799 25.0012604,58.7772224 0.019967463,62.2016423" id="path-22"></path>
        <linearGradient x1="37.8252612%" y1="172.744799%" x2="58.4737485%" y2="-35.4234164%" id="linearGradient-24">
            <stop stop-color="#E5E5E0" offset="0%"></stop>
            <stop stop-color="#161715" offset="100%"></stop>
        </linearGradient>
    </defs>
    <g id="Logos-/-Whole" stroke="none" stroke-width="1" fill="none" fill-rule="evenodd">
        <g id="Logos-/-Left" transform="translate(0.000000, 0.535499)">
            <g id="Group-6" stroke-width="1" transform="translate(0.000000, 33.500000)">
                <mask id="mask-2" fill="white">
                    <use xlink:href="#path-1"></use>
                </mask>
                <g id="Clip-5"></g>
                <path d="M53.8904,177.7637 C43.2137,132.5778 66.0037,96.4111 122.2618,69.2643 C111.5794,69.8003 100.7542,71.6939 90.7088,75.4614 C93.8408,62.6749 94.6532,50.1038 93.144,37.7484 C91.6204,25.2564 87.7245,12.9858 81.4579,0.9332 L81.4557,0.9332 C49.6424,7.4169 23.886,24.5531 4.1863,52.3395 C3.4482,55.205 2.8178,58.1176 2.2985,61.0719 C-5.7267,106.7859 14.4979,152.8333 53.8887,177.7637 L53.8904,177.7637 Z" id="Fill-4" fill="url(#linearGradient-3)" mask="url(#mask-2)"></path>
            </g>
            <path d="M4.6926,85.0942013 C24.3271,57.7237013 49.9163,40.8241013 81.4571,34.3968013 C87.7236,46.4494013 91.6196,58.7209013 93.144,71.2129013 C94.6532,83.5683013 93.8408,96.1394013 90.7088,108.925901 C116.8351,100.216701 157.7657,76.1115013 164.4181,46.6966013 C158.6652,47.4847013 152.9162,48.4941013 147.2271,49.7430013 C153.3967,36.9630013 155.6939,22.1191013 155.0348,7.23240128 C91.7667,-16.3997987 21.1335,19.9809013 4.1863,85.8040013 C4.3541,85.5667013 4.5228,85.3300013 4.6926,85.0942013" id="Fill-1" fill="#E6E6E6"></path>
            <path d="M93.1443,71.2126013 C94.6529,83.5686013 93.8411,96.1396013 90.7088,108.925601 C116.8354,100.217001 157.766,76.1115013 164.4184,46.6963013 C139.3964,50.1265013 114.6125,57.7228013 93.1443,71.2126013" id="Fill-2" fill="#CFCFCF"></path>
            <path d="M81.4571,34.3968013 C87.7236,46.4494013 91.6196,58.7209013 93.144,71.2129013 C104.0591,64.3545013 115.8306,59.0197013 128.0552,54.9809013 C134.3445,52.9025013 140.7539,51.1683013 147.2271,49.7430013 C153.1512,37.6524013 155.7543,23.4837013 155.0348,7.23240128 C127.259,10.9877013 102.1412,20.6357013 81.4571,34.3968013" id="Fill-3" fill="#DADADA"></path>
            <g id="Group-9" stroke-width="1" transform="translate(23.000000, 33.464501)">
                <mask id="mask-5" fill="white">
                    <use xlink:href="#path-4"></use>
                </mask>
                <g id="Clip-8"></g>
                <path d="M58.4574,0.9323 C-0.5591,40.1933 -23.4874,112.9289 30.8918,177.7677 C1.886,135.1369 14.1774,72.9184 70.1443,37.7481 C68.6204,25.2564 64.7242,12.9844 58.4574,0.9323" id="Fill-7" fill="url(#linearGradient-6)" mask="url(#mask-5)"></path>
            </g>
            <g id="Group-12" stroke-width="1" transform="translate(38.000000, 70.464501)">
                <mask id="mask-8" fill="white">
                    <use xlink:href="#path-7"></use>
                </mask>
                <g id="Clip-11"></g>
                <path d="M55.144,0.7484 C-0.8226,35.917 -13.1134,98.1366 15.8921,140.7677 C-1.7893,112.8062 8.136,57.504 52.7088,38.4614 C55.8408,25.6749 56.6532,13.1038 55.144,0.7484" id="Fill-10" fill="url(#linearGradient-9)" mask="url(#mask-8)"></path>
            </g>
            <g id="Group-15" stroke-width="1" transform="translate(45.000000, 102.464501)">
                <mask id="mask-11" fill="white">
                    <use xlink:href="#path-10"></use>
                </mask>
                <g id="Clip-14"></g>
                <path d="M45.7088,6.4614 C14.8962,19.6249 0.6408,50.1169 0.616670647,76.9256 C0.6062,88.8538 3.4128,100.0529 8.8315,108.6725 C8.8516,108.7039 8.872,108.7363 8.8921,108.7677 C-1.788,63.5812 21.0012,27.4128 77.2618,0.2643 C66.5794,0.8003 55.7542,2.6939 45.7088,6.4614" id="Fill-13" fill="url(#linearGradient-12)" mask="url(#mask-11)"></path>
            </g>
            <g id="Group-18" stroke-width="1" transform="translate(0.000000, 33.464501)">
                <mask id="mask-14" fill="white">
                    <use xlink:href="#path-13"></use>
                </mask>
                <g id="Clip-17"></g>
                <path d="M81.4608,0.9323 C49.6447,7.4154 23.8866,24.5514 4.1866,52.3392 C3.4479,55.2047 2.8175,58.1173 2.2985,61.0719 C-5.7267,106.7882 14.4996,152.8384 53.895,177.7677 C-0.4843,112.9289 22.4443,40.1933 81.4608,0.9323" id="Fill-16" fill="url(#linearGradient-15)" mask="url(#mask-14)"></path>
            </g>
        </g>
        <g id="Logos-/-Right" transform="translate(65.000000, 18.232000)">
            <g id="Group" transform="translate(-0.000000, 0.000000)">
                <g id="Group-23" transform="translate(0.000000, 102.832434)">
                    <mask id="mask-17" fill="white">
                        <use xlink:href="#path-16"></use>
                    </mask>
                    <g id="Clip-22"></g>
                    <polygon id="Fill-21" fill="url(#linearGradient-18)" mask="url(#mask-17)" points="-64.8942546 108.762771 163.610396 108.762771 163.610396 -119.733893 -64.8942546 -119.733893"></polygon>
                </g>
                <g id="Group-26" transform="translate(8.985358, 139.772241)">
                    <mask id="mask-20" fill="white">
                        <use xlink:href="#path-19"></use>
                    </mask>
                    <g id="Clip-25"></g>
                    <path d="M73.8616423,37.5418255 C67.6048377,25.5084339 63.715176,13.257397 62.1936553,0.785719668 C51.2964124,7.63256272 39.5435637,12.9588835 27.3384519,16.9913126 C21.0596832,19.065932 14.6611097,20.7981094 8.19864029,22.2207912 C2.28327939,34.2911225 -0.315485915,48.4370717 0.403342752,64.6626321 C28.1341553,60.9127425 53.2102937,51.2804384 73.8616423,37.5418255" id="Fill-24" fill="url(#linearGradient-21)" mask="url(#mask-20)"></path>
                </g>
                <g id="Group-30" transform="translate(41.931672, 0.000000)">
                    <path d="M68.4364826,0.770744071 C79.0961127,45.8822348 56.3431886,81.9903964 0.176712047,109.093232 C10.841334,108.558104 21.6487233,106.668184 31.67838,102.906314 C28.5514753,115.672511 27.7397979,128.22306 29.2473414,140.55796 C30.7678637,153.029638 34.6575255,165.279676 40.91433,177.313068 L40.9163267,177.313068 C72.6775717,170.839616 98.3926689,153.731494 118.06062,125.990698 C118.796421,123.12936 119.426394,120.222098 119.94455,117.271905 C127.956495,71.6332734 107.765396,25.6601867 68.4384793,0.770744071 L68.4364826,0.770744071" id="Fill-27" fill="#E5E5E0"></path>
                    <path d="M40.91433,177.314066 C99.8353181,138.116938 122.726018,65.4992688 68.4354842,0.766750578 C97.3942957,43.3283963 85.122293,105.445177 29.246343,140.55796 C30.7688621,153.029638 34.6575255,165.281673 40.91433,177.314066" id="Fill-29" fill="#D7D6D1"></path>
                </g>
                <path d="M71.1790136,140.55796 C127.053965,105.446175 139.32497,43.3283963 110.367156,0.766750578 C128.019392,28.6822622 118.110539,83.8952924 73.6100522,102.906314 C70.4831475,115.672511 69.6714702,128.22306 71.1790136,140.55796" id="Fill-31" fill="#CBCAC5"></path>
                <g id="Group-38" transform="translate(0.000000, 102.832434)">
                    <mask id="mask-23" fill="white">
                        <use xlink:href="#path-22"></use>
                    </mask>
                    <g id="Clip-37"></g>
                    <path d="M71.1780152,37.7255262 C69.6724685,25.3896275 70.4831475,12.8390787 73.6100522,0.073879613 C47.525557,8.76871136 6.66214402,32.8344961 0.019967463,62.2016423 C25.0012604,58.7772224 49.7449405,51.1935799 71.1780152,37.7255262" id="Fill-36" fill="url(#linearGradient-24)" mask="url(#mask-23)"></path>
                </g>
            </g>
        </g>
    </g>
</svg>