<?xml version="1.0" encoding="UTF-8"?>
<svg width="123px" height="178px" viewBox="0 0 123 178" version="1.1" xmlns="http://www.w3.org/2000/svg" xmlns:xlink="http://www.w3.org/1999/xlink">
    <!-- Generator: Sketch 63.1 (92452) - https://sketch.com -->
    <title>Combined Shape</title>
    <desc>Created with Sketch.</desc>
    <defs>
        <path d="M81.4608,0.9323 C87.7246313,12.9857583 91.6204843,25.2570913 93.1443,37.7481 C91.465293,38.803209 89.8255939,39.8826614 88.2251386,40.985198 L86.6374996,42.0954919 C88.7365533,40.6051696 90.905336,39.155144 93.144,37.7484 C94.6532,50.1038 93.8408,62.6749 90.7088,75.4614 C100.7542,71.6939 111.5794,69.8003 122.2618,69.2643 C66.0012,96.4128 43.212,132.5812 53.8921,177.7677 L53.8907995,177.7623 C53.89366,177.766852 53.8923201,177.766004 53.8909801,177.765156 L53.8921,177.7677 C14.4975362,152.833701 -5.72629055,106.785868 2.2985,61.0719 C2.8175,58.1173 3.4479,55.2047 4.1866,52.3392 C23.8866,24.5514 49.6447,7.4154 81.4608,0.9323 L81.4547995,0.9333 C81.4575734,0.932633502 81.4577468,0.932967004 81.4579202,0.933300507 L81.4608,0.9323 Z" id="path-1"></path>
    </defs>
    <g id="Page-1" stroke="none" stroke-width="1" fill="none" fill-rule="evenodd">
        <mask id="mask-2" fill="white">
            <use xlink:href="#path-1"></use>
        </mask>
        <use id="Combined-Shape" fill="#000000" xlink:href="#path-1"></use>
    </g>
</svg>